<?xml version="1.0" standalone="no"?>
 <!DOCTYPE svg PUBLIC "-//W3C//DTD SVG 1.1//EN" 
 "http://www.w3.org/Graphics/SVG/1.1/DTD/svg11.dtd"> 
<svg
  xmlns:svg="http://www.w3.org/2000/svg"
  xmlns="http://www.w3.org/2000/svg"
  xmlns:xlink="http://www.w3.org/1999/xlink"
  version="1.1"
  width="29.700220cm" height="21.000720cm" viewBox="0 0 297002200 210007200">
<title>SVG Picture created as keyboard2_ctrl-B_Silkscreen.svg date 2023/04/12 19:50:45 </title>
  <desc>Picture generated by PCBNEW </desc>
<g style="fill:#000000; fill-opacity:1.000000;stroke:#000000; stroke-opacity:1.000000;
stroke-linecap:round; stroke-linejoin:round;"
 transform="translate(0 0) scale(1 1)">
</g>
<g style="fill:#000000; fill-opacity:0.0; 
stroke:#000000; stroke-width:0.000000; stroke-opacity:1; 
stroke-linecap:round; stroke-linejoin:round;">
</g>
<g style="fill:#000000; fill-opacity:0.0; 
stroke:#000000; stroke-width:21200.000000; stroke-opacity:1; 
stroke-linecap:round; stroke-linejoin:round;">
</g>
<g style="fill:#000000; fill-opacity:0.0; 
stroke:#000000; stroke-width:150000.000000; stroke-opacity:1; 
stroke-linecap:round; stroke-linejoin:round;">
<rect x="177002200.000000" y="166007200.000000" width="108000000.000000" height="32000000.000000" rx="0.000000" />
</g>
<g style="fill:#000000; fill-opacity:0.0; 
stroke:#000000; stroke-width:21200.000000; stroke-opacity:1; 
stroke-linecap:round; stroke-linejoin:round;">
</g>
<g style="fill:#000000; fill-opacity:0.0; 
stroke:#000000; stroke-width:150000.000000; stroke-opacity:1; 
stroke-linecap:round; stroke-linejoin:round;">
<rect x="10000000.000000" y="10000000.000000" width="277002200.000000" height="190007200.000000" rx="0.000000" />
</g>
<g style="fill:#000000; fill-opacity:0.0; 
stroke:#000000; stroke-width:21200.000000; stroke-opacity:1; 
stroke-linecap:round; stroke-linejoin:round;">
</g>
<g style="fill:#000000; fill-opacity:0.0; 
stroke:#000000; stroke-width:150000.000000; stroke-opacity:1; 
stroke-linecap:round; stroke-linejoin:round;">
<rect x="12000000.000000" y="12000000.000000" width="273002200.000000" height="186007200.000000" rx="0.000000" />
</g>
<g style="fill:#000000; fill-opacity:0.0; 
stroke:#000000; stroke-width:21200.000000; stroke-opacity:1; 
stroke-linecap:round; stroke-linejoin:round;">
</g>
<g style="fill:#000000; fill-opacity:0.0; 
stroke:#000000; stroke-width:150000.000000; stroke-opacity:1; 
stroke-linecap:round; stroke-linejoin:round;">
<path d="M60000000 12000000
L60000000 10000000
" />
</g>
<g style="fill:#000000; fill-opacity:0.0; 
stroke:#000000; stroke-width:21200.000000; stroke-opacity:1; 
stroke-linecap:round; stroke-linejoin:round;">
</g>
<g style="fill:#000000; fill-opacity:0.0; 
stroke:#000000; stroke-width:150000.000000; stroke-opacity:1; 
stroke-linecap:round; stroke-linejoin:round;">
<path d="M110000000 12000000
L110000000 10000000
" />
</g>
<g style="fill:#000000; fill-opacity:0.0; 
stroke:#000000; stroke-width:21200.000000; stroke-opacity:1; 
stroke-linecap:round; stroke-linejoin:round;">
</g>
<g style="fill:#000000; fill-opacity:0.0; 
stroke:#000000; stroke-width:150000.000000; stroke-opacity:1; 
stroke-linecap:round; stroke-linejoin:round;">
<path d="M160000000 12000000
L160000000 10000000
" />
</g>
<g style="fill:#000000; fill-opacity:0.0; 
stroke:#000000; stroke-width:21200.000000; stroke-opacity:1; 
stroke-linecap:round; stroke-linejoin:round;">
</g>
<g style="fill:#000000; fill-opacity:0.0; 
stroke:#000000; stroke-width:150000.000000; stroke-opacity:1; 
stroke-linecap:round; stroke-linejoin:round;">
<path d="M210000000 12000000
L210000000 10000000
" />
</g>
<g style="fill:#000000; fill-opacity:0.0; 
stroke:#000000; stroke-width:21200.000000; stroke-opacity:1; 
stroke-linecap:round; stroke-linejoin:round;">
</g>
<g style="fill:#000000; fill-opacity:0.0; 
stroke:#000000; stroke-width:150000.000000; stroke-opacity:1; 
stroke-linecap:round; stroke-linejoin:round;">
<path d="M260000000 12000000
L260000000 10000000
" />
</g>
<g style="fill:#000000; fill-opacity:0.0; 
stroke:#000000; stroke-width:21200.000000; stroke-opacity:1; 
stroke-linecap:round; stroke-linejoin:round;">
</g>
<g style="fill:#000000; fill-opacity:0.0; 
stroke:#000000; stroke-width:150000.000000; stroke-opacity:1; 
stroke-linecap:round; stroke-linejoin:round;">
<text x="35000000.000000" y="11650000.000000"
textLength="1388095.000000" font-size="1733333.000000" lengthAdjust="spacingAndGlyphs"
text-anchor="start" opacity="0">1</text>
<g class="stroked-text"><desc>1</desc>
<path d="M36065476 11588095
L35322619 11588095
" />
<path d="M35694047 11588095
L35694047 10288095
L35570238 10473809
L35446428 10597619
L35322619 10659523
" />
</g></g>
<g style="fill:#000000; fill-opacity:0.0; 
stroke:#000000; stroke-width:21200.000000; stroke-opacity:1; 
stroke-linecap:round; stroke-linejoin:round;">
</g>
<g style="fill:#000000; fill-opacity:0.0; 
stroke:#000000; stroke-width:150000.000000; stroke-opacity:1; 
stroke-linecap:round; stroke-linejoin:round;">
<text x="85000000.000000" y="11650000.000000"
textLength="1388095.000000" font-size="1733333.000000" lengthAdjust="spacingAndGlyphs"
text-anchor="start" opacity="0">2</text>
<g class="stroked-text"><desc>2</desc>
<path d="M85322619 10411904
L85384523 10350000
L85508333 10288095
L85817857 10288095
L85941666 10350000
L86003571 10411904
L86065476 10535714
L86065476 10659523
L86003571 10845238
L85260714 11588095
L86065476 11588095
" />
</g></g>
<g style="fill:#000000; fill-opacity:0.0; 
stroke:#000000; stroke-width:21200.000000; stroke-opacity:1; 
stroke-linecap:round; stroke-linejoin:round;">
</g>
<g style="fill:#000000; fill-opacity:0.0; 
stroke:#000000; stroke-width:150000.000000; stroke-opacity:1; 
stroke-linecap:round; stroke-linejoin:round;">
<text x="135000000.000000" y="11650000.000000"
textLength="1388095.000000" font-size="1733333.000000" lengthAdjust="spacingAndGlyphs"
text-anchor="start" opacity="0">3</text>
<g class="stroked-text"><desc>3</desc>
<path d="M135260714 10288095
L136065476 10288095
L135632142 10783333
L135817857 10783333
L135941666 10845238
L136003571 10907142
L136065476 11030952
L136065476 11340476
L136003571 11464285
L135941666 11526190
L135817857 11588095
L135446428 11588095
L135322619 11526190
L135260714 11464285
" />
</g></g>
<g style="fill:#000000; fill-opacity:0.0; 
stroke:#000000; stroke-width:21200.000000; stroke-opacity:1; 
stroke-linecap:round; stroke-linejoin:round;">
</g>
<g style="fill:#000000; fill-opacity:0.0; 
stroke:#000000; stroke-width:150000.000000; stroke-opacity:1; 
stroke-linecap:round; stroke-linejoin:round;">
<text x="185000000.000000" y="11650000.000000"
textLength="1388095.000000" font-size="1733333.000000" lengthAdjust="spacingAndGlyphs"
text-anchor="start" opacity="0">4</text>
<g class="stroked-text"><desc>4</desc>
<path d="M185941666 10721428
L185941666 11588095
" />
<path d="M185632142 10226190
L185322619 11154761
L186127380 11154761
" />
</g></g>
<g style="fill:#000000; fill-opacity:0.0; 
stroke:#000000; stroke-width:21200.000000; stroke-opacity:1; 
stroke-linecap:round; stroke-linejoin:round;">
</g>
<g style="fill:#000000; fill-opacity:0.0; 
stroke:#000000; stroke-width:150000.000000; stroke-opacity:1; 
stroke-linecap:round; stroke-linejoin:round;">
<text x="235000000.000000" y="11650000.000000"
textLength="1388095.000000" font-size="1733333.000000" lengthAdjust="spacingAndGlyphs"
text-anchor="start" opacity="0">5</text>
<g class="stroked-text"><desc>5</desc>
<path d="M236003571 10288095
L235384523 10288095
L235322619 10907142
L235384523 10845238
L235508333 10783333
L235817857 10783333
L235941666 10845238
L236003571 10907142
L236065476 11030952
L236065476 11340476
L236003571 11464285
L235941666 11526190
L235817857 11588095
L235508333 11588095
L235384523 11526190
L235322619 11464285
" />
</g></g>
<g style="fill:#000000; fill-opacity:0.0; 
stroke:#000000; stroke-width:21200.000000; stroke-opacity:1; 
stroke-linecap:round; stroke-linejoin:round;">
</g>
<g style="fill:#000000; fill-opacity:0.0; 
stroke:#000000; stroke-width:150000.000000; stroke-opacity:1; 
stroke-linecap:round; stroke-linejoin:round;">
<text x="285000000.000000" y="11650000.000000"
textLength="1388095.000000" font-size="1733333.000000" lengthAdjust="spacingAndGlyphs"
text-anchor="start" opacity="0">6</text>
<g class="stroked-text"><desc>6</desc>
<path d="M285941666 10288095
L285694047 10288095
L285570238 10350000
L285508333 10411904
L285384523 10597619
L285322619 10845238
L285322619 11340476
L285384523 11464285
L285446428 11526190
L285570238 11588095
L285817857 11588095
L285941666 11526190
L286003571 11464285
L286065476 11340476
L286065476 11030952
L286003571 10907142
L285941666 10845238
L285817857 10783333
L285570238 10783333
L285446428 10845238
L285384523 10907142
L285322619 11030952
" />
</g></g>
<g style="fill:#000000; fill-opacity:0.0; 
stroke:#000000; stroke-width:21200.000000; stroke-opacity:1; 
stroke-linecap:round; stroke-linejoin:round;">
</g>
<g style="fill:#000000; fill-opacity:0.0; 
stroke:#000000; stroke-width:150000.000000; stroke-opacity:1; 
stroke-linecap:round; stroke-linejoin:round;">
<path d="M60000000 198007200
L60000000 200007200
" />
</g>
<g style="fill:#000000; fill-opacity:0.0; 
stroke:#000000; stroke-width:21200.000000; stroke-opacity:1; 
stroke-linecap:round; stroke-linejoin:round;">
</g>
<g style="fill:#000000; fill-opacity:0.0; 
stroke:#000000; stroke-width:150000.000000; stroke-opacity:1; 
stroke-linecap:round; stroke-linejoin:round;">
<path d="M110000000 198007200
L110000000 200007200
" />
</g>
<g style="fill:#000000; fill-opacity:0.0; 
stroke:#000000; stroke-width:21200.000000; stroke-opacity:1; 
stroke-linecap:round; stroke-linejoin:round;">
</g>
<g style="fill:#000000; fill-opacity:0.0; 
stroke:#000000; stroke-width:150000.000000; stroke-opacity:1; 
stroke-linecap:round; stroke-linejoin:round;">
<path d="M160000000 198007200
L160000000 200007200
" />
</g>
<g style="fill:#000000; fill-opacity:0.0; 
stroke:#000000; stroke-width:21200.000000; stroke-opacity:1; 
stroke-linecap:round; stroke-linejoin:round;">
</g>
<g style="fill:#000000; fill-opacity:0.0; 
stroke:#000000; stroke-width:150000.000000; stroke-opacity:1; 
stroke-linecap:round; stroke-linejoin:round;">
<path d="M210000000 198007200
L210000000 200007200
" />
</g>
<g style="fill:#000000; fill-opacity:0.0; 
stroke:#000000; stroke-width:21200.000000; stroke-opacity:1; 
stroke-linecap:round; stroke-linejoin:round;">
</g>
<g style="fill:#000000; fill-opacity:0.0; 
stroke:#000000; stroke-width:150000.000000; stroke-opacity:1; 
stroke-linecap:round; stroke-linejoin:round;">
<path d="M260000000 198007200
L260000000 200007200
" />
</g>
<g style="fill:#000000; fill-opacity:0.0; 
stroke:#000000; stroke-width:21200.000000; stroke-opacity:1; 
stroke-linecap:round; stroke-linejoin:round;">
</g>
<g style="fill:#000000; fill-opacity:0.0; 
stroke:#000000; stroke-width:150000.000000; stroke-opacity:1; 
stroke-linecap:round; stroke-linejoin:round;">
<text x="35000000.000000" y="199657200.000000"
textLength="1388095.000000" font-size="1733333.000000" lengthAdjust="spacingAndGlyphs"
text-anchor="start" opacity="0">1</text>
<g class="stroked-text"><desc>1</desc>
<path d="M36065476 199595295
L35322619 199595295
" />
<path d="M35694047 199595295
L35694047 198295295
L35570238 198481009
L35446428 198604819
L35322619 198666723
" />
</g></g>
<g style="fill:#000000; fill-opacity:0.0; 
stroke:#000000; stroke-width:21200.000000; stroke-opacity:1; 
stroke-linecap:round; stroke-linejoin:round;">
</g>
<g style="fill:#000000; fill-opacity:0.0; 
stroke:#000000; stroke-width:150000.000000; stroke-opacity:1; 
stroke-linecap:round; stroke-linejoin:round;">
<text x="85000000.000000" y="199657200.000000"
textLength="1388095.000000" font-size="1733333.000000" lengthAdjust="spacingAndGlyphs"
text-anchor="start" opacity="0">2</text>
<g class="stroked-text"><desc>2</desc>
<path d="M85322619 198419104
L85384523 198357200
L85508333 198295295
L85817857 198295295
L85941666 198357200
L86003571 198419104
L86065476 198542914
L86065476 198666723
L86003571 198852438
L85260714 199595295
L86065476 199595295
" />
</g></g>
<g style="fill:#000000; fill-opacity:0.0; 
stroke:#000000; stroke-width:21200.000000; stroke-opacity:1; 
stroke-linecap:round; stroke-linejoin:round;">
</g>
<g style="fill:#000000; fill-opacity:0.0; 
stroke:#000000; stroke-width:150000.000000; stroke-opacity:1; 
stroke-linecap:round; stroke-linejoin:round;">
<text x="135000000.000000" y="199657200.000000"
textLength="1388095.000000" font-size="1733333.000000" lengthAdjust="spacingAndGlyphs"
text-anchor="start" opacity="0">3</text>
<g class="stroked-text"><desc>3</desc>
<path d="M135260714 198295295
L136065476 198295295
L135632142 198790533
L135817857 198790533
L135941666 198852438
L136003571 198914342
L136065476 199038152
L136065476 199347676
L136003571 199471485
L135941666 199533390
L135817857 199595295
L135446428 199595295
L135322619 199533390
L135260714 199471485
" />
</g></g>
<g style="fill:#000000; fill-opacity:0.0; 
stroke:#000000; stroke-width:21200.000000; stroke-opacity:1; 
stroke-linecap:round; stroke-linejoin:round;">
</g>
<g style="fill:#000000; fill-opacity:0.0; 
stroke:#000000; stroke-width:150000.000000; stroke-opacity:1; 
stroke-linecap:round; stroke-linejoin:round;">
<text x="185000000.000000" y="199657200.000000"
textLength="1388095.000000" font-size="1733333.000000" lengthAdjust="spacingAndGlyphs"
text-anchor="start" opacity="0">4</text>
<g class="stroked-text"><desc>4</desc>
<path d="M185941666 198728628
L185941666 199595295
" />
<path d="M185632142 198233390
L185322619 199161961
L186127380 199161961
" />
</g></g>
<g style="fill:#000000; fill-opacity:0.0; 
stroke:#000000; stroke-width:21200.000000; stroke-opacity:1; 
stroke-linecap:round; stroke-linejoin:round;">
</g>
<g style="fill:#000000; fill-opacity:0.0; 
stroke:#000000; stroke-width:150000.000000; stroke-opacity:1; 
stroke-linecap:round; stroke-linejoin:round;">
<text x="235000000.000000" y="199657200.000000"
textLength="1388095.000000" font-size="1733333.000000" lengthAdjust="spacingAndGlyphs"
text-anchor="start" opacity="0">5</text>
<g class="stroked-text"><desc>5</desc>
<path d="M236003571 198295295
L235384523 198295295
L235322619 198914342
L235384523 198852438
L235508333 198790533
L235817857 198790533
L235941666 198852438
L236003571 198914342
L236065476 199038152
L236065476 199347676
L236003571 199471485
L235941666 199533390
L235817857 199595295
L235508333 199595295
L235384523 199533390
L235322619 199471485
" />
</g></g>
<g style="fill:#000000; fill-opacity:0.0; 
stroke:#000000; stroke-width:21200.000000; stroke-opacity:1; 
stroke-linecap:round; stroke-linejoin:round;">
</g>
<g style="fill:#000000; fill-opacity:0.0; 
stroke:#000000; stroke-width:150000.000000; stroke-opacity:1; 
stroke-linecap:round; stroke-linejoin:round;">
<text x="285000000.000000" y="199657200.000000"
textLength="1388095.000000" font-size="1733333.000000" lengthAdjust="spacingAndGlyphs"
text-anchor="start" opacity="0">6</text>
<g class="stroked-text"><desc>6</desc>
<path d="M285941666 198295295
L285694047 198295295
L285570238 198357200
L285508333 198419104
L285384523 198604819
L285322619 198852438
L285322619 199347676
L285384523 199471485
L285446428 199533390
L285570238 199595295
L285817857 199595295
L285941666 199533390
L286003571 199471485
L286065476 199347676
L286065476 199038152
L286003571 198914342
L285941666 198852438
L285817857 198790533
L285570238 198790533
L285446428 198852438
L285384523 198914342
L285322619 199038152
" />
</g></g>
<g style="fill:#000000; fill-opacity:0.0; 
stroke:#000000; stroke-width:21200.000000; stroke-opacity:1; 
stroke-linecap:round; stroke-linejoin:round;">
</g>
<g style="fill:#000000; fill-opacity:0.0; 
stroke:#000000; stroke-width:150000.000000; stroke-opacity:1; 
stroke-linecap:round; stroke-linejoin:round;">
<path d="M10000000 60000000
L12000000 60000000
" />
</g>
<g style="fill:#000000; fill-opacity:0.0; 
stroke:#000000; stroke-width:21200.000000; stroke-opacity:1; 
stroke-linecap:round; stroke-linejoin:round;">
</g>
<g style="fill:#000000; fill-opacity:0.0; 
stroke:#000000; stroke-width:150000.000000; stroke-opacity:1; 
stroke-linecap:round; stroke-linejoin:round;">
<path d="M10000000 110000000
L12000000 110000000
" />
</g>
<g style="fill:#000000; fill-opacity:0.0; 
stroke:#000000; stroke-width:21200.000000; stroke-opacity:1; 
stroke-linecap:round; stroke-linejoin:round;">
</g>
<g style="fill:#000000; fill-opacity:0.0; 
stroke:#000000; stroke-width:150000.000000; stroke-opacity:1; 
stroke-linecap:round; stroke-linejoin:round;">
<path d="M10000000 160000000
L12000000 160000000
" />
</g>
<g style="fill:#000000; fill-opacity:0.0; 
stroke:#000000; stroke-width:21200.000000; stroke-opacity:1; 
stroke-linecap:round; stroke-linejoin:round;">
</g>
<g style="fill:#000000; fill-opacity:0.0; 
stroke:#000000; stroke-width:150000.000000; stroke-opacity:1; 
stroke-linecap:round; stroke-linejoin:round;">
<text x="11000000.000000" y="35650000.000000"
textLength="1264286.000000" font-size="1733333.000000" lengthAdjust="spacingAndGlyphs"
text-anchor="middle" opacity="0">A</text>
<g class="stroked-text"><desc>A</desc>
<path d="M10690476 35216666
L11309523 35216666
" />
<path d="M10566666 35588095
L11000000 34288095
L11433333 35588095
" />
</g></g>
<g style="fill:#000000; fill-opacity:0.0; 
stroke:#000000; stroke-width:21200.000000; stroke-opacity:1; 
stroke-linecap:round; stroke-linejoin:round;">
</g>
<g style="fill:#000000; fill-opacity:0.0; 
stroke:#000000; stroke-width:150000.000000; stroke-opacity:1; 
stroke-linecap:round; stroke-linejoin:round;">
<text x="11000000.000000" y="85650000.000000"
textLength="1450000.000000" font-size="1733333.000000" lengthAdjust="spacingAndGlyphs"
text-anchor="middle" opacity="0">B</text>
<g class="stroked-text"><desc>B</desc>
<path d="M11092857 84907142
L11278571 84969047
L11340476 85030952
L11402380 85154761
L11402380 85340476
L11340476 85464285
L11278571 85526190
L11154761 85588095
L10659523 85588095
L10659523 84288095
L11092857 84288095
L11216666 84350000
L11278571 84411904
L11340476 84535714
L11340476 84659523
L11278571 84783333
L11216666 84845238
L11092857 84907142
L10659523 84907142
" />
</g></g>
<g style="fill:#000000; fill-opacity:0.0; 
stroke:#000000; stroke-width:21200.000000; stroke-opacity:1; 
stroke-linecap:round; stroke-linejoin:round;">
</g>
<g style="fill:#000000; fill-opacity:0.0; 
stroke:#000000; stroke-width:150000.000000; stroke-opacity:1; 
stroke-linecap:round; stroke-linejoin:round;">
<text x="11000000.000000" y="135650000.000000"
textLength="1450000.000000" font-size="1733333.000000" lengthAdjust="spacingAndGlyphs"
text-anchor="middle" opacity="0">C</text>
<g class="stroked-text"><desc>C</desc>
<path d="M11402380 135464285
L11340476 135526190
L11154761 135588095
L11030952 135588095
L10845238 135526190
L10721428 135402380
L10659523 135278571
L10597619 135030952
L10597619 134845238
L10659523 134597619
L10721428 134473809
L10845238 134350000
L11030952 134288095
L11154761 134288095
L11340476 134350000
L11402380 134411904
" />
</g></g>
<g style="fill:#000000; fill-opacity:0.0; 
stroke:#000000; stroke-width:21200.000000; stroke-opacity:1; 
stroke-linecap:round; stroke-linejoin:round;">
</g>
<g style="fill:#000000; fill-opacity:0.0; 
stroke:#000000; stroke-width:150000.000000; stroke-opacity:1; 
stroke-linecap:round; stroke-linejoin:round;">
<text x="11000000.000000" y="185650000.000000"
textLength="1450000.000000" font-size="1733333.000000" lengthAdjust="spacingAndGlyphs"
text-anchor="middle" opacity="0">D</text>
<g class="stroked-text"><desc>D</desc>
<path d="M10659523 185588095
L10659523 184288095
L10969047 184288095
L11154761 184350000
L11278571 184473809
L11340476 184597619
L11402380 184845238
L11402380 185030952
L11340476 185278571
L11278571 185402380
L11154761 185526190
L10969047 185588095
L10659523 185588095
" />
</g></g>
<g style="fill:#000000; fill-opacity:0.0; 
stroke:#000000; stroke-width:21200.000000; stroke-opacity:1; 
stroke-linecap:round; stroke-linejoin:round;">
</g>
<g style="fill:#000000; fill-opacity:0.0; 
stroke:#000000; stroke-width:150000.000000; stroke-opacity:1; 
stroke-linecap:round; stroke-linejoin:round;">
<path d="M287002200 60000000
L285002200 60000000
" />
</g>
<g style="fill:#000000; fill-opacity:0.0; 
stroke:#000000; stroke-width:21200.000000; stroke-opacity:1; 
stroke-linecap:round; stroke-linejoin:round;">
</g>
<g style="fill:#000000; fill-opacity:0.0; 
stroke:#000000; stroke-width:150000.000000; stroke-opacity:1; 
stroke-linecap:round; stroke-linejoin:round;">
<path d="M287002200 110000000
L285002200 110000000
" />
</g>
<g style="fill:#000000; fill-opacity:0.0; 
stroke:#000000; stroke-width:21200.000000; stroke-opacity:1; 
stroke-linecap:round; stroke-linejoin:round;">
</g>
<g style="fill:#000000; fill-opacity:0.0; 
stroke:#000000; stroke-width:150000.000000; stroke-opacity:1; 
stroke-linecap:round; stroke-linejoin:round;">
<path d="M287002200 160000000
L285002200 160000000
" />
</g>
<g style="fill:#000000; fill-opacity:0.0; 
stroke:#000000; stroke-width:21200.000000; stroke-opacity:1; 
stroke-linecap:round; stroke-linejoin:round;">
</g>
<g style="fill:#000000; fill-opacity:0.0; 
stroke:#000000; stroke-width:150000.000000; stroke-opacity:1; 
stroke-linecap:round; stroke-linejoin:round;">
<text x="286002200.000000" y="35650000.000000"
textLength="1264286.000000" font-size="1733333.000000" lengthAdjust="spacingAndGlyphs"
text-anchor="middle" opacity="0">A</text>
<g class="stroked-text"><desc>A</desc>
<path d="M285692676 35216666
L286311723 35216666
" />
<path d="M285568866 35588095
L286002200 34288095
L286435533 35588095
" />
</g></g>
<g style="fill:#000000; fill-opacity:0.0; 
stroke:#000000; stroke-width:21200.000000; stroke-opacity:1; 
stroke-linecap:round; stroke-linejoin:round;">
</g>
<g style="fill:#000000; fill-opacity:0.0; 
stroke:#000000; stroke-width:150000.000000; stroke-opacity:1; 
stroke-linecap:round; stroke-linejoin:round;">
<text x="286002200.000000" y="85650000.000000"
textLength="1450000.000000" font-size="1733333.000000" lengthAdjust="spacingAndGlyphs"
text-anchor="middle" opacity="0">B</text>
<g class="stroked-text"><desc>B</desc>
<path d="M286095057 84907142
L286280771 84969047
L286342676 85030952
L286404580 85154761
L286404580 85340476
L286342676 85464285
L286280771 85526190
L286156961 85588095
L285661723 85588095
L285661723 84288095
L286095057 84288095
L286218866 84350000
L286280771 84411904
L286342676 84535714
L286342676 84659523
L286280771 84783333
L286218866 84845238
L286095057 84907142
L285661723 84907142
" />
</g></g>
<g style="fill:#000000; fill-opacity:0.0; 
stroke:#000000; stroke-width:21200.000000; stroke-opacity:1; 
stroke-linecap:round; stroke-linejoin:round;">
</g>
<g style="fill:#000000; fill-opacity:0.0; 
stroke:#000000; stroke-width:150000.000000; stroke-opacity:1; 
stroke-linecap:round; stroke-linejoin:round;">
<text x="286002200.000000" y="135650000.000000"
textLength="1450000.000000" font-size="1733333.000000" lengthAdjust="spacingAndGlyphs"
text-anchor="middle" opacity="0">C</text>
<g class="stroked-text"><desc>C</desc>
<path d="M286404580 135464285
L286342676 135526190
L286156961 135588095
L286033152 135588095
L285847438 135526190
L285723628 135402380
L285661723 135278571
L285599819 135030952
L285599819 134845238
L285661723 134597619
L285723628 134473809
L285847438 134350000
L286033152 134288095
L286156961 134288095
L286342676 134350000
L286404580 134411904
" />
</g></g>
<g style="fill:#000000; fill-opacity:0.0; 
stroke:#000000; stroke-width:21200.000000; stroke-opacity:1; 
stroke-linecap:round; stroke-linejoin:round;">
</g>
<g style="fill:#000000; fill-opacity:0.0; 
stroke:#000000; stroke-width:150000.000000; stroke-opacity:1; 
stroke-linecap:round; stroke-linejoin:round;">
<text x="286002200.000000" y="185650000.000000"
textLength="1450000.000000" font-size="1733333.000000" lengthAdjust="spacingAndGlyphs"
text-anchor="middle" opacity="0">D</text>
<g class="stroked-text"><desc>D</desc>
<path d="M285661723 185588095
L285661723 184288095
L285971247 184288095
L286156961 184350000
L286280771 184473809
L286342676 184597619
L286404580 184845238
L286404580 185030952
L286342676 185278571
L286280771 185402380
L286156961 185526190
L285971247 185588095
L285661723 185588095
" />
</g></g>
<g style="fill:#000000; fill-opacity:0.0; 
stroke:#000000; stroke-width:21200.000000; stroke-opacity:1; 
stroke-linecap:round; stroke-linejoin:round;">
</g>
<g style="fill:#000000; fill-opacity:0.0; 
stroke:#000000; stroke-width:150000.000000; stroke-opacity:1; 
stroke-linecap:round; stroke-linejoin:round;">
<text x="200002200.000000" y="193857200.000000"
textLength="7007143.000000" font-size="2000000.000000" lengthAdjust="spacingAndGlyphs"
text-anchor="start" opacity="0">Date: </text>
<g class="stroked-text"><desc>Date: </desc>
<path d="M200434342 193785771
L200434342 192285771
L200791485 192285771
L201005771 192357200
L201148628 192500057
L201220057 192642914
L201291485 192928628
L201291485 193142914
L201220057 193428628
L201148628 193571485
L201005771 193714342
L200791485 193785771
L200434342 193785771
" />
<path d="M202577200 193785771
L202577200 193000057
L202505771 192857200
L202362914 192785771
L202077200 192785771
L201934342 192857200
" />
<path d="M202577200 193714342
L202434342 193785771
L202077200 193785771
L201934342 193714342
L201862914 193571485
L201862914 193428628
L201934342 193285771
L202077200 193214342
L202434342 193214342
L202577200 193142914
" />
<path d="M203077200 192785771
L203648628 192785771
" />
<path d="M203291485 192285771
L203291485 193571485
L203362914 193714342
L203505771 193785771
L203648628 193785771
" />
<path d="M204720057 193714342
L204577200 193785771
L204291485 193785771
L204148628 193714342
L204077200 193571485
L204077200 193000057
L204148628 192857200
L204291485 192785771
L204577200 192785771
L204720057 192857200
L204791485 193000057
L204791485 193142914
L204077200 193285771
" />
<path d="M205434342 193642914
L205505771 193714342
L205434342 193785771
L205362914 193714342
L205434342 193642914
L205434342 193785771
" />
<path d="M205434342 192857200
L205505771 192928628
L205434342 193000057
L205362914 192928628
L205434342 192857200
L205434342 193000057
" />
</g></g>
<g style="fill:#000000; fill-opacity:0.0; 
stroke:#000000; stroke-width:21200.000000; stroke-opacity:1; 
stroke-linecap:round; stroke-linejoin:round;">
</g>
<g style="fill:#000000; fill-opacity:0.0; 
stroke:#000000; stroke-width:150000.000000; stroke-opacity:1; 
stroke-linecap:round; stroke-linejoin:round;">
<path d="M177002200 194507200
L285002200 194507200
" />
</g>
<g style="fill:#000000; fill-opacity:0.0; 
stroke:#000000; stroke-width:21200.000000; stroke-opacity:1; 
stroke-linecap:round; stroke-linejoin:round;">
</g>
<g style="fill:#000000; fill-opacity:0.0; 
stroke:#000000; stroke-width:150000.000000; stroke-opacity:1; 
stroke-linecap:round; stroke-linejoin:round;">
<text x="178002200.000000" y="196657200.000000"
textLength="41292857.000000" font-size="2000000.000000" lengthAdjust="spacingAndGlyphs"
text-anchor="start" opacity="0">KiCad E.D.A.  pcbnew 6.0.2+dfsg-1</text>
<g class="stroked-text"><desc>KiCad E.D.A.  pcbnew 6.0.2+dfsg-1</desc>
<path d="M178434342 196585771
L178434342 195085771
" />
<path d="M179291485 196585771
L178648628 195728628
" />
<path d="M179291485 195085771
L178434342 195942914
" />
<path d="M179934342 196585771
L179934342 195585771
" />
<path d="M179934342 195085771
L179862914 195157200
L179934342 195228628
L180005771 195157200
L179934342 195085771
L179934342 195228628
" />
<path d="M181505771 196442914
L181434342 196514342
L181220057 196585771
L181077200 196585771
L180862914 196514342
L180720057 196371485
L180648628 196228628
L180577200 195942914
L180577200 195728628
L180648628 195442914
L180720057 195300057
L180862914 195157200
L181077200 195085771
L181220057 195085771
L181434342 195157200
L181505771 195228628
" />
<path d="M182791485 196585771
L182791485 195800057
L182720057 195657200
L182577200 195585771
L182291485 195585771
L182148628 195657200
" />
<path d="M182791485 196514342
L182648628 196585771
L182291485 196585771
L182148628 196514342
L182077200 196371485
L182077200 196228628
L182148628 196085771
L182291485 196014342
L182648628 196014342
L182791485 195942914
" />
<path d="M184148628 196585771
L184148628 195085771
" />
<path d="M184148628 196514342
L184005771 196585771
L183720057 196585771
L183577200 196514342
L183505771 196442914
L183434342 196300057
L183434342 195871485
L183505771 195728628
L183577200 195657200
L183720057 195585771
L184005771 195585771
L184148628 195657200
" />
<path d="M186005771 195800057
L186505771 195800057
" />
<path d="M186720057 196585771
L186005771 196585771
L186005771 195085771
L186720057 195085771
" />
<path d="M187362914 196442914
L187434342 196514342
L187362914 196585771
L187291485 196514342
L187362914 196442914
L187362914 196585771
" />
<path d="M188077200 196585771
L188077200 195085771
L188434342 195085771
L188648628 195157200
L188791485 195300057
L188862914 195442914
L188934342 195728628
L188934342 195942914
L188862914 196228628
L188791485 196371485
L188648628 196514342
L188434342 196585771
L188077200 196585771
" />
<path d="M189577200 196442914
L189648628 196514342
L189577200 196585771
L189505771 196514342
L189577200 196442914
L189577200 196585771
" />
<path d="M190220057 196157200
L190934342 196157200
" />
<path d="M190077200 196585771
L190577200 195085771
L191077200 196585771
" />
<path d="M191577200 196442914
L191648628 196514342
L191577200 196585771
L191505771 196514342
L191577200 196442914
L191577200 196585771
" />
<path d="M194577200 195585771
L194577200 197085771
" />
<path d="M194577200 195657200
L194720057 195585771
L195005771 195585771
L195148628 195657200
L195220057 195728628
L195291485 195871485
L195291485 196300057
L195220057 196442914
L195148628 196514342
L195005771 196585771
L194720057 196585771
L194577200 196514342
" />
<path d="M196577200 196514342
L196434342 196585771
L196148628 196585771
L196005771 196514342
L195934342 196442914
L195862914 196300057
L195862914 195871485
L195934342 195728628
L196005771 195657200
L196148628 195585771
L196434342 195585771
L196577200 195657200
" />
<path d="M197220057 196585771
L197220057 195085771
" />
<path d="M197220057 195657200
L197362914 195585771
L197648628 195585771
L197791485 195657200
L197862914 195728628
L197934342 195871485
L197934342 196300057
L197862914 196442914
L197791485 196514342
L197648628 196585771
L197362914 196585771
L197220057 196514342
" />
<path d="M198577200 195585771
L198577200 196585771
" />
<path d="M198577200 195728628
L198648628 195657200
L198791485 195585771
L199005771 195585771
L199148628 195657200
L199220057 195800057
L199220057 196585771
" />
<path d="M200505771 196514342
L200362914 196585771
L200077200 196585771
L199934342 196514342
L199862914 196371485
L199862914 195800057
L199934342 195657200
L200077200 195585771
L200362914 195585771
L200505771 195657200
L200577200 195800057
L200577200 195942914
L199862914 196085771
" />
<path d="M201077200 195585771
L201362914 196585771
L201648628 195871485
L201934342 196585771
L202220057 195585771
" />
<path d="M204577200 195085771
L204291485 195085771
L204148628 195157200
L204077200 195228628
L203934342 195442914
L203862914 195728628
L203862914 196300057
L203934342 196442914
L204005771 196514342
L204148628 196585771
L204434342 196585771
L204577200 196514342
L204648628 196442914
L204720057 196300057
L204720057 195942914
L204648628 195800057
L204577200 195728628
L204434342 195657200
L204148628 195657200
L204005771 195728628
L203934342 195800057
L203862914 195942914
" />
<path d="M205362914 196442914
L205434342 196514342
L205362914 196585771
L205291485 196514342
L205362914 196442914
L205362914 196585771
" />
<path d="M206362914 195085771
L206505771 195085771
L206648628 195157200
L206720057 195228628
L206791485 195371485
L206862914 195657200
L206862914 196014342
L206791485 196300057
L206720057 196442914
L206648628 196514342
L206505771 196585771
L206362914 196585771
L206220057 196514342
L206148628 196442914
L206077200 196300057
L206005771 196014342
L206005771 195657200
L206077200 195371485
L206148628 195228628
L206220057 195157200
L206362914 195085771
" />
<path d="M207505771 196442914
L207577200 196514342
L207505771 196585771
L207434342 196514342
L207505771 196442914
L207505771 196585771
" />
<path d="M208148628 195228628
L208220057 195157200
L208362914 195085771
L208720057 195085771
L208862914 195157200
L208934342 195228628
L209005771 195371485
L209005771 195514342
L208934342 195728628
L208077200 196585771
L209005771 196585771
" />
<path d="M209648628 196014342
L210791485 196014342
" />
<path d="M210220057 196585771
L210220057 195442914
" />
<path d="M212148628 196585771
L212148628 195085771
" />
<path d="M212148628 196514342
L212005771 196585771
L211720057 196585771
L211577200 196514342
L211505771 196442914
L211434342 196300057
L211434342 195871485
L211505771 195728628
L211577200 195657200
L211720057 195585771
L212005771 195585771
L212148628 195657200
" />
<path d="M212648628 195585771
L213220057 195585771
" />
<path d="M212862914 196585771
L212862914 195300057
L212934342 195157200
L213077200 195085771
L213220057 195085771
" />
<path d="M213648628 196514342
L213791485 196585771
L214077200 196585771
L214220057 196514342
L214291485 196371485
L214291485 196300057
L214220057 196157200
L214077200 196085771
L213862914 196085771
L213720057 196014342
L213648628 195871485
L213648628 195800057
L213720057 195657200
L213862914 195585771
L214077200 195585771
L214220057 195657200
" />
<path d="M215577200 195585771
L215577200 196800057
L215505771 196942914
L215434342 197014342
L215291485 197085771
L215077200 197085771
L214934342 197014342
" />
<path d="M215577200 196514342
L215434342 196585771
L215148628 196585771
L215005771 196514342
L214934342 196442914
L214862914 196300057
L214862914 195871485
L214934342 195728628
L215005771 195657200
L215148628 195585771
L215434342 195585771
L215577200 195657200
" />
<path d="M216291485 196014342
L217434342 196014342
" />
<path d="M218934342 196585771
L218077200 196585771
" />
<path d="M218505771 196585771
L218505771 195085771
L218362914 195300057
L218220057 195442914
L218077200 195514342
" />
</g></g>
<g style="fill:#000000; fill-opacity:0.0; 
stroke:#000000; stroke-width:21200.000000; stroke-opacity:1; 
stroke-linecap:round; stroke-linejoin:round;">
</g>
<g style="fill:#000000; fill-opacity:0.0; 
stroke:#000000; stroke-width:150000.000000; stroke-opacity:1; 
stroke-linecap:round; stroke-linejoin:round;">
<path d="M177002200 191507200
L285002200 191507200
" />
</g>
<g style="fill:#000000; fill-opacity:0.0; 
stroke:#000000; stroke-width:21200.000000; stroke-opacity:1; 
stroke-linecap:round; stroke-linejoin:round;">
</g>
<g style="fill:#000000; fill-opacity:0.0; 
stroke:#000000; stroke-width:300000.000000; stroke-opacity:1; 
stroke-linecap:round; stroke-linejoin:round;">
<text x="263002200.000000" y="193857200.000000"
textLength="5935714.000000" font-size="2000000.000000" lengthAdjust="spacingAndGlyphs"
text-anchor="start" opacity="0">Rev: </text>
<g class="stroked-text"><desc>Rev: </desc>
<path d="M264411485 193785771
L263911485 193071485
" />
<path d="M263554342 193785771
L263554342 192285771
L264125771 192285771
L264268628 192357200
L264340057 192428628
L264411485 192571485
L264411485 192785771
L264340057 192928628
L264268628 193000057
L264125771 193071485
L263554342 193071485
" />
<path d="M265625771 193714342
L265482914 193785771
L265197200 193785771
L265054342 193714342
L264982914 193571485
L264982914 193000057
L265054342 192857200
L265197200 192785771
L265482914 192785771
L265625771 192857200
L265697200 193000057
L265697200 193142914
L264982914 193285771
" />
<path d="M266197200 192785771
L266554342 193785771
L266911485 192785771
" />
<path d="M267482914 193642914
L267554342 193714342
L267482914 193785771
L267411485 193714342
L267482914 193642914
L267482914 193785771
" />
<path d="M267482914 192857200
L267554342 192928628
L267482914 193000057
L267411485 192928628
L267482914 192857200
L267482914 193000057
" />
</g></g>
<g style="fill:#000000; fill-opacity:0.0; 
stroke:#000000; stroke-width:21200.000000; stroke-opacity:1; 
stroke-linecap:round; stroke-linejoin:round;">
</g>
<g style="fill:#000000; fill-opacity:0.0; 
stroke:#000000; stroke-width:150000.000000; stroke-opacity:1; 
stroke-linecap:round; stroke-linejoin:round;">
<text x="178002200.000000" y="193857200.000000"
textLength="9604286.000000" font-size="2000000.000000" lengthAdjust="spacingAndGlyphs"
text-anchor="start" opacity="0">Size: A4</text>
<g class="stroked-text"><desc>Size: A4</desc>
<path d="M178362914 193714342
L178577200 193785771
L178934342 193785771
L179077200 193714342
L179148628 193642914
L179220057 193500057
L179220057 193357200
L179148628 193214342
L179077200 193142914
L178934342 193071485
L178648628 193000057
L178505771 192928628
L178434342 192857200
L178362914 192714342
L178362914 192571485
L178434342 192428628
L178505771 192357200
L178648628 192285771
L179005771 192285771
L179220057 192357200
" />
<path d="M179862914 193785771
L179862914 192785771
" />
<path d="M179862914 192285771
L179791485 192357200
L179862914 192428628
L179934342 192357200
L179862914 192285771
L179862914 192428628
" />
<path d="M180434342 192785771
L181220057 192785771
L180434342 193785771
L181220057 193785771
" />
<path d="M182362914 193714342
L182220057 193785771
L181934342 193785771
L181791485 193714342
L181720057 193571485
L181720057 193000057
L181791485 192857200
L181934342 192785771
L182220057 192785771
L182362914 192857200
L182434342 193000057
L182434342 193142914
L181720057 193285771
" />
<path d="M183077200 193642914
L183148628 193714342
L183077200 193785771
L183005771 193714342
L183077200 193642914
L183077200 193785771
" />
<path d="M183077200 192857200
L183148628 192928628
L183077200 193000057
L183005771 192928628
L183077200 192857200
L183077200 193000057
" />
<path d="M184862914 193357200
L185577200 193357200
" />
<path d="M184720057 193785771
L185220057 192285771
L185720057 193785771
" />
<path d="M186862914 192785771
L186862914 193785771
" />
<path d="M186505771 192214342
L186148628 193285771
L187077200 193285771
" />
</g></g>
<g style="fill:#000000; fill-opacity:0.0; 
stroke:#000000; stroke-width:21200.000000; stroke-opacity:1; 
stroke-linecap:round; stroke-linejoin:round;">
</g>
<g style="fill:#000000; fill-opacity:0.0; 
stroke:#000000; stroke-width:150000.000000; stroke-opacity:1; 
stroke-linecap:round; stroke-linejoin:round;">
<text x="263002200.000000" y="196657200.000000"
textLength="8507143.000000" font-size="2000000.000000" lengthAdjust="spacingAndGlyphs"
text-anchor="start" opacity="0">Id: 1/1</text>
<g class="stroked-text"><desc>Id: 1/1</desc>
<path d="M263434342 196585771
L263434342 195085771
" />
<path d="M264791485 196585771
L264791485 195085771
" />
<path d="M264791485 196514342
L264648628 196585771
L264362914 196585771
L264220057 196514342
L264148628 196442914
L264077200 196300057
L264077200 195871485
L264148628 195728628
L264220057 195657200
L264362914 195585771
L264648628 195585771
L264791485 195657200
" />
<path d="M265505771 196442914
L265577200 196514342
L265505771 196585771
L265434342 196514342
L265505771 196442914
L265505771 196585771
" />
<path d="M265505771 195657200
L265577200 195728628
L265505771 195800057
L265434342 195728628
L265505771 195657200
L265505771 195800057
" />
<path d="M268148628 196585771
L267291485 196585771
" />
<path d="M267720057 196585771
L267720057 195085771
L267577200 195300057
L267434342 195442914
L267291485 195514342
" />
<path d="M269862914 195014342
L268577200 196942914
" />
<path d="M271148628 196585771
L270291485 196585771
" />
<path d="M270720057 196585771
L270720057 195085771
L270577200 195300057
L270434342 195442914
L270291485 195514342
" />
</g></g>
<g style="fill:#000000; fill-opacity:0.0; 
stroke:#000000; stroke-width:21200.000000; stroke-opacity:1; 
stroke-linecap:round; stroke-linejoin:round;">
</g>
<g style="fill:#000000; fill-opacity:0.0; 
stroke:#000000; stroke-width:150000.000000; stroke-opacity:1; 
stroke-linecap:round; stroke-linejoin:round;">
<path d="M177002200 187507200
L285002200 187507200
" />
</g>
<g style="fill:#000000; fill-opacity:0.0; 
stroke:#000000; stroke-width:21200.000000; stroke-opacity:1; 
stroke-linecap:round; stroke-linejoin:round;">
</g>
<g style="fill:#000000; fill-opacity:0.0; 
stroke:#000000; stroke-width:400000.000000; stroke-opacity:1; 
stroke-linecap:round; stroke-linejoin:round;">
<text x="178002200.000000" y="190307200.000000"
textLength="9409643.000000" font-size="2666666.000000" lengthAdjust="spacingAndGlyphs"
text-anchor="start" opacity="0">Title: </text>
<g class="stroked-text"><desc>Title: </desc>
<path d="M178714580 188211961
L179857438 188211961
" />
<path d="M179036009 190211961
L179286009 188211961
" />
<path d="M180274104 190211961
L180440771 188878628
" />
<path d="M180524104 188211961
L180416961 188307200
L180500295 188402438
L180607438 188307200
L180524104 188211961
L180500295 188402438
" />
<path d="M181107438 188878628
L181869342 188878628
" />
<path d="M181476485 188211961
L181262200 189926247
L181333628 190116723
L181512200 190211961
L181702676 190211961
" />
<path d="M182655057 190211961
L182476485 190116723
L182405057 189926247
L182619342 188211961
" />
<path d="M184190771 190116723
L183988390 190211961
L183607438 190211961
L183428866 190116723
L183357438 189926247
L183452676 189164342
L183571723 188973866
L183774104 188878628
L184155057 188878628
L184333628 188973866
L184405057 189164342
L184381247 189354819
L183405057 189545295
" />
<path d="M185155057 190021485
L185238390 190116723
L185131247 190211961
L185047914 190116723
L185155057 190021485
L185131247 190211961
" />
<path d="M185286009 188973866
L185369342 189069104
L185262200 189164342
L185178866 189069104
L185286009 188973866
L185262200 189164342
" />
</g></g>
<g style="fill:#000000; fill-opacity:0.0; 
stroke:#000000; stroke-width:21200.000000; stroke-opacity:1; 
stroke-linecap:round; stroke-linejoin:round;">
</g>
<g style="fill:#000000; fill-opacity:0.0; 
stroke:#000000; stroke-width:150000.000000; stroke-opacity:1; 
stroke-linecap:round; stroke-linejoin:round;">
<text x="178002200.000000" y="186457200.000000"
textLength="34662857.000000" font-size="2000000.000000" lengthAdjust="spacingAndGlyphs"
text-anchor="start" opacity="0">File: keyboard2_ctrl.kicad_pcb</text>
<g class="stroked-text"><desc>File: keyboard2_ctrl.kicad_pcb</desc>
<path d="M178934342 185600057
L178434342 185600057
" />
<path d="M178434342 186385771
L178434342 184885771
L179148628 184885771
" />
<path d="M179720057 186385771
L179720057 185385771
" />
<path d="M179720057 184885771
L179648628 184957200
L179720057 185028628
L179791485 184957200
L179720057 184885771
L179720057 185028628
" />
<path d="M180648628 186385771
L180505771 186314342
L180434342 186171485
L180434342 184885771
" />
<path d="M181791485 186314342
L181648628 186385771
L181362914 186385771
L181220057 186314342
L181148628 186171485
L181148628 185600057
L181220057 185457200
L181362914 185385771
L181648628 185385771
L181791485 185457200
L181862914 185600057
L181862914 185742914
L181148628 185885771
" />
<path d="M182505771 186242914
L182577200 186314342
L182505771 186385771
L182434342 186314342
L182505771 186242914
L182505771 186385771
" />
<path d="M182505771 185457200
L182577200 185528628
L182505771 185600057
L182434342 185528628
L182505771 185457200
L182505771 185600057
" />
<path d="M184362914 186385771
L184362914 184885771
" />
<path d="M184505771 185814342
L184934342 186385771
" />
<path d="M184934342 185385771
L184362914 185957200
" />
<path d="M186148628 186314342
L186005771 186385771
L185720057 186385771
L185577200 186314342
L185505771 186171485
L185505771 185600057
L185577200 185457200
L185720057 185385771
L186005771 185385771
L186148628 185457200
L186220057 185600057
L186220057 185742914
L185505771 185885771
" />
<path d="M186720057 185385771
L187077200 186385771
" />
<path d="M187434342 185385771
L187077200 186385771
L186934342 186742914
L186862914 186814342
L186720057 186885771
" />
<path d="M188005771 186385771
L188005771 184885771
" />
<path d="M188005771 185457200
L188148628 185385771
L188434342 185385771
L188577200 185457200
L188648628 185528628
L188720057 185671485
L188720057 186100057
L188648628 186242914
L188577200 186314342
L188434342 186385771
L188148628 186385771
L188005771 186314342
" />
<path d="M189577200 186385771
L189434342 186314342
L189362914 186242914
L189291485 186100057
L189291485 185671485
L189362914 185528628
L189434342 185457200
L189577200 185385771
L189791485 185385771
L189934342 185457200
L190005771 185528628
L190077200 185671485
L190077200 186100057
L190005771 186242914
L189934342 186314342
L189791485 186385771
L189577200 186385771
" />
<path d="M191362914 186385771
L191362914 185600057
L191291485 185457200
L191148628 185385771
L190862914 185385771
L190720057 185457200
" />
<path d="M191362914 186314342
L191220057 186385771
L190862914 186385771
L190720057 186314342
L190648628 186171485
L190648628 186028628
L190720057 185885771
L190862914 185814342
L191220057 185814342
L191362914 185742914
" />
<path d="M192077200 186385771
L192077200 185385771
" />
<path d="M192077200 185671485
L192148628 185528628
L192220057 185457200
L192362914 185385771
L192505771 185385771
" />
<path d="M193648628 186385771
L193648628 184885771
" />
<path d="M193648628 186314342
L193505771 186385771
L193220057 186385771
L193077200 186314342
L193005771 186242914
L192934342 186100057
L192934342 185671485
L193005771 185528628
L193077200 185457200
L193220057 185385771
L193505771 185385771
L193648628 185457200
" />
<path d="M194291485 185028628
L194362914 184957200
L194505771 184885771
L194862914 184885771
L195005771 184957200
L195077200 185028628
L195148628 185171485
L195148628 185314342
L195077200 185528628
L194220057 186385771
L195148628 186385771
" />
<path d="M195434342 186528628
L196577200 186528628
" />
<path d="M197577200 186314342
L197434342 186385771
L197148628 186385771
L197005771 186314342
L196934342 186242914
L196862914 186100057
L196862914 185671485
L196934342 185528628
L197005771 185457200
L197148628 185385771
L197434342 185385771
L197577200 185457200
" />
<path d="M198005771 185385771
L198577200 185385771
" />
<path d="M198220057 184885771
L198220057 186171485
L198291485 186314342
L198434342 186385771
L198577200 186385771
" />
<path d="M199077200 186385771
L199077200 185385771
" />
<path d="M199077200 185671485
L199148628 185528628
L199220057 185457200
L199362914 185385771
L199505771 185385771
" />
<path d="M200220057 186385771
L200077200 186314342
L200005771 186171485
L200005771 184885771
" />
<path d="M200791485 186242914
L200862914 186314342
L200791485 186385771
L200720057 186314342
L200791485 186242914
L200791485 186385771
" />
<path d="M201505771 186385771
L201505771 184885771
" />
<path d="M201648628 185814342
L202077200 186385771
" />
<path d="M202077200 185385771
L201505771 185957200
" />
<path d="M202720057 186385771
L202720057 185385771
" />
<path d="M202720057 184885771
L202648628 184957200
L202720057 185028628
L202791485 184957200
L202720057 184885771
L202720057 185028628
" />
<path d="M204077200 186314342
L203934342 186385771
L203648628 186385771
L203505771 186314342
L203434342 186242914
L203362914 186100057
L203362914 185671485
L203434342 185528628
L203505771 185457200
L203648628 185385771
L203934342 185385771
L204077200 185457200
" />
<path d="M205362914 186385771
L205362914 185600057
L205291485 185457200
L205148628 185385771
L204862914 185385771
L204720057 185457200
" />
<path d="M205362914 186314342
L205220057 186385771
L204862914 186385771
L204720057 186314342
L204648628 186171485
L204648628 186028628
L204720057 185885771
L204862914 185814342
L205220057 185814342
L205362914 185742914
" />
<path d="M206720057 186385771
L206720057 184885771
" />
<path d="M206720057 186314342
L206577200 186385771
L206291485 186385771
L206148628 186314342
L206077200 186242914
L206005771 186100057
L206005771 185671485
L206077200 185528628
L206148628 185457200
L206291485 185385771
L206577200 185385771
L206720057 185457200
" />
<path d="M207077200 186528628
L208220057 186528628
" />
<path d="M208577200 185385771
L208577200 186885771
" />
<path d="M208577200 185457200
L208720057 185385771
L209005771 185385771
L209148628 185457200
L209220057 185528628
L209291485 185671485
L209291485 186100057
L209220057 186242914
L209148628 186314342
L209005771 186385771
L208720057 186385771
L208577200 186314342
" />
<path d="M210577200 186314342
L210434342 186385771
L210148628 186385771
L210005771 186314342
L209934342 186242914
L209862914 186100057
L209862914 185671485
L209934342 185528628
L210005771 185457200
L210148628 185385771
L210434342 185385771
L210577200 185457200
" />
<path d="M211220057 186385771
L211220057 184885771
" />
<path d="M211220057 185457200
L211362914 185385771
L211648628 185385771
L211791485 185457200
L211862914 185528628
L211934342 185671485
L211934342 186100057
L211862914 186242914
L211791485 186314342
L211648628 186385771
L211362914 186385771
L211220057 186314342
" />
</g></g>
<g style="fill:#000000; fill-opacity:0.0; 
stroke:#000000; stroke-width:21200.000000; stroke-opacity:1; 
stroke-linecap:round; stroke-linejoin:round;">
</g>
<g style="fill:#000000; fill-opacity:0.0; 
stroke:#000000; stroke-width:150000.000000; stroke-opacity:1; 
stroke-linecap:round; stroke-linejoin:round;">
<path d="M177002200 181507200
L285002200 181507200
" />
</g>
<g style="fill:#000000; fill-opacity:0.0; 
stroke:#000000; stroke-width:21200.000000; stroke-opacity:1; 
stroke-linecap:round; stroke-linejoin:round;">
</g>
<g style="fill:#000000; fill-opacity:0.0; 
stroke:#000000; stroke-width:150000.000000; stroke-opacity:1; 
stroke-linecap:round; stroke-linejoin:round;">
<text x="178002200.000000" y="183757200.000000"
textLength="8221429.000000" font-size="2000000.000000" lengthAdjust="spacingAndGlyphs"
text-anchor="start" opacity="0">Sheet: </text>
<g class="stroked-text"><desc>Sheet: </desc>
<path d="M178362914 183614342
L178577200 183685771
L178934342 183685771
L179077200 183614342
L179148628 183542914
L179220057 183400057
L179220057 183257200
L179148628 183114342
L179077200 183042914
L178934342 182971485
L178648628 182900057
L178505771 182828628
L178434342 182757200
L178362914 182614342
L178362914 182471485
L178434342 182328628
L178505771 182257200
L178648628 182185771
L179005771 182185771
L179220057 182257200
" />
<path d="M179862914 183685771
L179862914 182185771
" />
<path d="M180505771 183685771
L180505771 182900057
L180434342 182757200
L180291485 182685771
L180077200 182685771
L179934342 182757200
L179862914 182828628
" />
<path d="M181791485 183614342
L181648628 183685771
L181362914 183685771
L181220057 183614342
L181148628 183471485
L181148628 182900057
L181220057 182757200
L181362914 182685771
L181648628 182685771
L181791485 182757200
L181862914 182900057
L181862914 183042914
L181148628 183185771
" />
<path d="M183077200 183614342
L182934342 183685771
L182648628 183685771
L182505771 183614342
L182434342 183471485
L182434342 182900057
L182505771 182757200
L182648628 182685771
L182934342 182685771
L183077200 182757200
L183148628 182900057
L183148628 183042914
L182434342 183185771
" />
<path d="M183577200 182685771
L184148628 182685771
" />
<path d="M183791485 182185771
L183791485 183471485
L183862914 183614342
L184005771 183685771
L184148628 183685771
" />
<path d="M184648628 183542914
L184720057 183614342
L184648628 183685771
L184577200 183614342
L184648628 183542914
L184648628 183685771
" />
<path d="M184648628 182757200
L184720057 182828628
L184648628 182900057
L184577200 182828628
L184648628 182757200
L184648628 182900057
" />
</g></g>
<g style="fill:#000000; fill-opacity:0.0; 
stroke:#000000; stroke-width:21200.000000; stroke-opacity:1; 
stroke-linecap:round; stroke-linejoin:round;">
</g>
<g style="fill:#000000; fill-opacity:0.0; 
stroke:#000000; stroke-width:300000.000000; stroke-opacity:1; 
stroke-linecap:round; stroke-linejoin:round;">
<text x="178002200.000000" y="180757200.000000"
textLength="150000.000000" font-size="2000000.000000" lengthAdjust="spacingAndGlyphs"
text-anchor="start" opacity="0"></text>
<g class="stroked-text"><desc></desc>
</g></g>
<g style="fill:#000000; fill-opacity:0.0; 
stroke:#000000; stroke-width:21200.000000; stroke-opacity:1; 
stroke-linecap:round; stroke-linejoin:round;">
</g>
<g style="fill:#000000; fill-opacity:0.0; 
stroke:#000000; stroke-width:150000.000000; stroke-opacity:1; 
stroke-linecap:round; stroke-linejoin:round;">
<text x="178002200.000000" y="177757200.000000"
textLength="300000.000000" font-size="2000000.000000" lengthAdjust="spacingAndGlyphs"
text-anchor="start" opacity="0"></text>
<g class="stroked-text"><desc></desc>
</g></g>
<g style="fill:#000000; fill-opacity:0.0; 
stroke:#000000; stroke-width:21200.000000; stroke-opacity:1; 
stroke-linecap:round; stroke-linejoin:round;">
</g>
<g style="fill:#000000; fill-opacity:0.0; 
stroke:#000000; stroke-width:150000.000000; stroke-opacity:1; 
stroke-linecap:round; stroke-linejoin:round;">
<text x="178002200.000000" y="174757200.000000"
textLength="150000.000000" font-size="2000000.000000" lengthAdjust="spacingAndGlyphs"
text-anchor="start" opacity="0"></text>
<g class="stroked-text"><desc></desc>
</g></g>
<g style="fill:#000000; fill-opacity:0.0; 
stroke:#000000; stroke-width:21200.000000; stroke-opacity:1; 
stroke-linecap:round; stroke-linejoin:round;">
</g>
<g style="fill:#000000; fill-opacity:0.0; 
stroke:#000000; stroke-width:150000.000000; stroke-opacity:1; 
stroke-linecap:round; stroke-linejoin:round;">
<text x="178002200.000000" y="171757200.000000"
textLength="150000.000000" font-size="2000000.000000" lengthAdjust="spacingAndGlyphs"
text-anchor="start" opacity="0"></text>
<g class="stroked-text"><desc></desc>
</g></g>
<g style="fill:#000000; fill-opacity:0.0; 
stroke:#000000; stroke-width:21200.000000; stroke-opacity:1; 
stroke-linecap:round; stroke-linejoin:round;">
</g>
<g style="fill:#000000; fill-opacity:0.0; 
stroke:#000000; stroke-width:150000.000000; stroke-opacity:1; 
stroke-linecap:round; stroke-linejoin:round;">
<text x="178002200.000000" y="168757200.000000"
textLength="150000.000000" font-size="2000000.000000" lengthAdjust="spacingAndGlyphs"
text-anchor="start" opacity="0"></text>
<g class="stroked-text"><desc></desc>
</g></g>
<g style="fill:#000000; fill-opacity:0.0; 
stroke:#000000; stroke-width:21200.000000; stroke-opacity:1; 
stroke-linecap:round; stroke-linejoin:round;">
</g>
<g style="fill:#000000; fill-opacity:0.0; 
stroke:#000000; stroke-width:150000.000000; stroke-opacity:1; 
stroke-linecap:round; stroke-linejoin:round;">
<path d="M197002200 191507200
L197002200 194507200
" />
</g>
<g style="fill:#000000; fill-opacity:0.0; 
stroke:#000000; stroke-width:21200.000000; stroke-opacity:1; 
stroke-linecap:round; stroke-linejoin:round;">
</g>
<g style="fill:#000000; fill-opacity:0.0; 
stroke:#000000; stroke-width:150000.000000; stroke-opacity:1; 
stroke-linecap:round; stroke-linejoin:round;">
<path d="M261002200 191507200
L261002200 198007200
" />
</g>
<g style="fill:#E8B2A7; fill-opacity:0.0; 
stroke:#E8B2A7; stroke-width:150000.000000; stroke-opacity:1; 
stroke-linecap:round; stroke-linejoin:round;">
<g transform="rotate(-90.000000 55761360.000000 27036536.000000)">
<text x="55761360.000000" y="27536536.000000"
transform="scale(-1 1) translate(-111522720.000000 0)"
textLength="3564286.000000" font-size="1333333.000000" lengthAdjust="spacingAndGlyphs"
text-anchor="middle" opacity="0">R_C1</text>
</g>
<g class="stroked-text"><desc>R_C1</desc>
<path d="M56213740 25988916
L55737550 25655583
" />
<path d="M56213740 25417488
L55213740 25417488
L55213740 25798440
L55261360 25893678
L55308979 25941297
L55404217 25988916
L55547074 25988916
L55642312 25941297
L55689931 25893678
L55737550 25798440
L55737550 25417488
" />
<path d="M56308979 26179393
L56308979 26941297
" />
<path d="M56118502 27750821
L56166121 27703202
L56213740 27560345
L56213740 27465107
L56166121 27322250
L56070883 27227012
L55975645 27179393
L55785169 27131774
L55642312 27131774
L55451836 27179393
L55356598 27227012
L55261360 27322250
L55213740 27465107
L55213740 27560345
L55261360 27703202
L55308979 27750821
" />
<path d="M56213740 28703202
L56213740 28131774
" />
<path d="M56213740 28417488
L55213740 28417488
L55356598 28322250
L55451836 28227012
L55499455 28131774
" />
</g><text x="101843142.000000" y="105753848.000000"
transform="scale(-1 1) translate(-203686284.000000 0)"
textLength="4043095.000000" font-size="1333333.000000" lengthAdjust="spacingAndGlyphs"
text-anchor="middle" opacity="0">xital1</text>
<g class="stroked-text"><desc>xital1</desc>
<path d="M103819332 105706228
L103295522 105039562
" />
<path d="M103819332 105039562
L103295522 105706228
" />
<path d="M102914570 105706228
L102914570 105039562
" />
<path d="M102914570 104706228
L102962189 104753848
L102914570 104801467
L102866951 104753848
L102914570 104706228
L102914570 104801467
" />
<path d="M102581237 105039562
L102200284 105039562
" />
<path d="M102438380 104706228
L102438380 105563371
L102390761 105658609
L102295522 105706228
L102200284 105706228
" />
<path d="M101438380 105706228
L101438380 105182419
L101485999 105087181
L101581237 105039562
L101771713 105039562
L101866951 105087181
" />
<path d="M101438380 105658609
L101533618 105706228
L101771713 105706228
L101866951 105658609
L101914570 105563371
L101914570 105468133
L101866951 105372895
L101771713 105325276
L101533618 105325276
L101438380 105277657
" />
<path d="M100819332 105706228
L100914570 105658609
L100962189 105563371
L100962189 104706228
" />
<path d="M99914570 105706228
L100485999 105706228
" />
<path d="M100200284 105706228
L100200284 104706228
L100295522 104849086
L100390761 104944324
L100485999 104991943
" />
</g><g transform="rotate(-90.000000 97945456.000000 101045109.000000)">
<text x="97945456.000000" y="101545109.000000"
transform="scale(-1 1) translate(-195890912.000000 0)"
textLength="3805000.000000" font-size="1333333.000000" lengthAdjust="spacingAndGlyphs"
text-anchor="middle" opacity="0">C_xi1</text>
</g>
<g class="stroked-text"><desc>C_xi1</desc>
<path d="M98302598 99854632
L98350217 99807013
L98397836 99664156
L98397836 99568918
L98350217 99426061
L98254979 99330823
L98159741 99283204
L97969265 99235585
L97826408 99235585
L97635932 99283204
L97540694 99330823
L97445456 99426061
L97397836 99568918
L97397836 99664156
L97445456 99807013
L97493075 99854632
" />
<path d="M98493075 100045109
L98493075 100807013
" />
<path d="M98397836 100949870
L97731170 101473680
" />
<path d="M97731170 100949870
L98397836 101473680
" />
<path d="M98397836 101854632
L97731170 101854632
" />
<path d="M97397836 101854632
L97445456 101807013
L97493075 101854632
L97445456 101902251
L97397836 101854632
L97493075 101854632
" />
<path d="M98397836 102854632
L98397836 102283204
" />
<path d="M98397836 102568918
L97397836 102568918
L97540694 102473680
L97635932 102378442
L97683551 102283204
" />
</g><g transform="rotate(-90.000000 109930689.000000 123486091.000000)">
<text x="109930689.000000" y="123986091.000000"
transform="scale(-1 1) translate(-219861378.000000 0)"
textLength="1757381.000000" font-size="1333333.000000" lengthAdjust="spacingAndGlyphs"
text-anchor="middle" opacity="0">C1</text>
</g>
<g class="stroked-text"><desc>C1</desc>
<path d="M110287831 123319424
L110335450 123271805
L110383069 123128948
L110383069 123033710
L110335450 122890852
L110240212 122795614
L110144974 122747995
L109954498 122700376
L109811641 122700376
L109621165 122747995
L109525927 122795614
L109430689 122890852
L109383069 123033710
L109383069 123128948
L109430689 123271805
L109478308 123319424
" />
<path d="M110383069 124271805
L110383069 123700376
" />
<path d="M110383069 123986091
L109383069 123986091
L109525927 123890852
L109621165 123795614
L109668784 123700376
" />
</g><text x="150524467.000000" y="127681521.000000"
transform="scale(-1 1) translate(-301048934.000000 0)"
textLength="2566905.000000" font-size="1333333.000000" lengthAdjust="spacingAndGlyphs"
text-anchor="middle" opacity="0">pp1</text>
<g class="stroked-text"><desc>pp1</desc>
<path d="M151667324 126967235
L151667324 127967235
" />
<path d="M151667324 127014854
L151572086 126967235
L151381609 126967235
L151286371 127014854
L151238752 127062473
L151191133 127157711
L151191133 127443425
L151238752 127538663
L151286371 127586282
L151381609 127633901
L151572086 127633901
L151667324 127586282
" />
<path d="M150762562 126967235
L150762562 127967235
" />
<path d="M150762562 127014854
L150667324 126967235
L150476847 126967235
L150381609 127014854
L150333990 127062473
L150286371 127157711
L150286371 127443425
L150333990 127538663
L150381609 127586282
L150476847 127633901
L150667324 127633901
L150762562 127586282
" />
<path d="M149333990 127633901
L149905419 127633901
" />
<path d="M149619705 127633901
L149619705 126633901
L149714943 126776759
L149810181 126871997
L149905419 126919616
" />
</g><g transform="rotate(-90.000000 107803982.000000 123486091.000000)">
<text x="107803982.000000" y="123986091.000000"
transform="scale(-1 1) translate(-215607964.000000 0)"
textLength="1757381.000000" font-size="1333333.000000" lengthAdjust="spacingAndGlyphs"
text-anchor="middle" opacity="0">C2</text>
</g>
<g class="stroked-text"><desc>C2</desc>
<path d="M108161124 123319424
L108208743 123271805
L108256362 123128948
L108256362 123033710
L108208743 122890852
L108113505 122795614
L108018267 122747995
L107827791 122700376
L107684934 122700376
L107494458 122747995
L107399220 122795614
L107303982 122890852
L107256362 123033710
L107256362 123128948
L107303982 123271805
L107351601 123319424
" />
<path d="M107351601 123700376
L107303982 123747995
L107256362 123843233
L107256362 124081329
L107303982 124176567
L107351601 124224186
L107446839 124271805
L107542077 124271805
L107684934 124224186
L108256362 123652757
L108256362 124271805
" />
</g><text x="102374811.000000" y="122403316.000000"
transform="scale(-1 1) translate(-204749622.000000 0)"
textLength="6662143.000000" font-size="1333333.000000" lengthAdjust="spacingAndGlyphs"
text-anchor="middle" opacity="0">Cerveau1</text>
<g class="stroked-text"><desc>Cerveau1</desc>
<path d="M104993858 122260458
L105041477 122308077
L105184334 122355696
L105279572 122355696
L105422430 122308077
L105517668 122212839
L105565287 122117601
L105612906 121927125
L105612906 121784268
L105565287 121593792
L105517668 121498554
L105422430 121403316
L105279572 121355696
L105184334 121355696
L105041477 121403316
L104993858 121450935
" />
<path d="M104184334 122308077
L104279572 122355696
L104470049 122355696
L104565287 122308077
L104612906 122212839
L104612906 121831887
L104565287 121736649
L104470049 121689030
L104279572 121689030
L104184334 121736649
L104136715 121831887
L104136715 121927125
L104612906 122022363
" />
<path d="M103708144 122355696
L103708144 121689030
" />
<path d="M103708144 121879506
L103660525 121784268
L103612906 121736649
L103517668 121689030
L103422430 121689030
" />
<path d="M103184334 121689030
L102946239 122355696
L102708144 121689030
" />
<path d="M101946239 122308077
L102041477 122355696
L102231953 122355696
L102327191 122308077
L102374811 122212839
L102374811 121831887
L102327191 121736649
L102231953 121689030
L102041477 121689030
L101946239 121736649
L101898620 121831887
L101898620 121927125
L102374811 122022363
" />
<path d="M101041477 122355696
L101041477 121831887
L101089096 121736649
L101184334 121689030
L101374811 121689030
L101470049 121736649
" />
<path d="M101041477 122308077
L101136715 122355696
L101374811 122355696
L101470049 122308077
L101517668 122212839
L101517668 122117601
L101470049 122022363
L101374811 121974744
L101136715 121974744
L101041477 121927125
" />
<path d="M100136715 121689030
L100136715 122355696
" />
<path d="M100565287 121689030
L100565287 122212839
L100517668 122308077
L100422430 122355696
L100279572 122355696
L100184334 122308077
L100136715 122260458
" />
<path d="M99136715 122355696
L99708144 122355696
" />
<path d="M99422430 122355696
L99422430 121355696
L99517668 121498554
L99612906 121593792
L99708144 121641411
" />
</g><text x="74740706.000000" y="118970764.000000"
transform="scale(-1 1) translate(-149481412.000000 0)"
textLength="2852619.000000" font-size="1333333.000000" lengthAdjust="spacingAndGlyphs"
text-anchor="middle" opacity="0">SW1</text>
<g class="stroked-text"><desc>SW1</desc>
<path d="M76074039 118875525
L75931182 118923144
L75693086 118923144
L75597848 118875525
L75550229 118827906
L75502610 118732668
L75502610 118637430
L75550229 118542192
L75597848 118494573
L75693086 118446954
L75883563 118399335
L75978801 118351716
L76026420 118304097
L76074039 118208859
L76074039 118113621
L76026420 118018383
L75978801 117970764
L75883563 117923144
L75645467 117923144
L75502610 117970764
" />
<path d="M75169277 117923144
L74931182 118923144
L74740706 118208859
L74550229 118923144
L74312134 117923144
" />
<path d="M73407372 118923144
L73978801 118923144
" />
<path d="M73693086 118923144
L73693086 117923144
L73788325 118066002
L73883563 118161240
L73978801 118208859
" />
</g><g transform="rotate(-90.000000 109186349.000000 101046305.000000)">
<text x="109186349.000000" y="101546305.000000"
transform="scale(-1 1) translate(-218372698.000000 0)"
textLength="3805000.000000" font-size="1333333.000000" lengthAdjust="spacingAndGlyphs"
text-anchor="middle" opacity="0">C_xi2</text>
</g>
<g class="stroked-text"><desc>C_xi2</desc>
<path d="M109543491 99855828
L109591110 99808209
L109638729 99665352
L109638729 99570114
L109591110 99427257
L109495872 99332019
L109400634 99284400
L109210158 99236781
L109067301 99236781
L108876825 99284400
L108781587 99332019
L108686349 99427257
L108638729 99570114
L108638729 99665352
L108686349 99808209
L108733968 99855828
" />
<path d="M109733968 100046305
L109733968 100808209
" />
<path d="M109638729 100951066
L108972063 101474876
" />
<path d="M108972063 100951066
L109638729 101474876
" />
<path d="M109638729 101855828
L108972063 101855828
" />
<path d="M108638729 101855828
L108686349 101808209
L108733968 101855828
L108686349 101903447
L108638729 101855828
L108733968 101855828
" />
<path d="M108733968 102284400
L108686349 102332019
L108638729 102427257
L108638729 102665352
L108686349 102760590
L108733968 102808209
L108829206 102855828
L108924444 102855828
L109067301 102808209
L109638729 102236781
L109638729 102855828
" />
</g><text x="69952922.000000" y="27232592.000000"
transform="scale(-1 1) translate(-139905844.000000 0)"
textLength="3519286.000000" font-size="1333333.000000" lengthAdjust="spacingAndGlyphs"
text-anchor="middle" opacity="0">R_C2</text>
<g class="stroked-text"><desc>R_C2</desc>
<path d="M71000541 27184972
L71333874 26708782
" />
<path d="M71571969 27184972
L71571969 26184972
L71191017 26184972
L71095779 26232592
L71048160 26280211
L71000541 26375449
L71000541 26518306
L71048160 26613544
L71095779 26661163
L71191017 26708782
L71571969 26708782
" />
<path d="M70810064 27280211
L70048160 27280211
" />
<path d="M69238636 27089734
L69286255 27137353
L69429112 27184972
L69524350 27184972
L69667207 27137353
L69762445 27042115
L69810064 26946877
L69857683 26756401
L69857683 26613544
L69810064 26423068
L69762445 26327830
L69667207 26232592
L69524350 26184972
L69429112 26184972
L69286255 26232592
L69238636 26280211
" />
<path d="M68857683 26280211
L68810064 26232592
L68714826 26184972
L68476731 26184972
L68381493 26232592
L68333874 26280211
L68286255 26375449
L68286255 26470687
L68333874 26613544
L68905302 27184972
L68286255 27184972
" />
</g><text x="63462914.000000" y="33653386.000000"
transform="scale(-1 1) translate(-126925828.000000 0)"
textLength="5519286.000000" font-size="1333333.000000" lengthAdjust="spacingAndGlyphs"
text-anchor="middle" opacity="0">USB_C1</text>
<g class="stroked-text"><desc>USB_C1</desc>
<path d="M66081961 32605766
L66081961 33415290
L66034342 33510528
L65986723 33558147
L65891485 33605766
L65701009 33605766
L65605771 33558147
L65558152 33510528
L65510533 33415290
L65510533 32605766
" />
<path d="M65081961 33558147
L64939104 33605766
L64701009 33605766
L64605771 33558147
L64558152 33510528
L64510533 33415290
L64510533 33320052
L64558152 33224814
L64605771 33177195
L64701009 33129576
L64891485 33081957
L64986723 33034338
L65034342 32986719
L65081961 32891481
L65081961 32796243
L65034342 32701005
L64986723 32653386
L64891485 32605766
L64653390 32605766
L64510533 32653386
" />
<path d="M63748628 33081957
L63605771 33129576
L63558152 33177195
L63510533 33272433
L63510533 33415290
L63558152 33510528
L63605771 33558147
L63701009 33605766
L64081961 33605766
L64081961 32605766
L63748628 32605766
L63653390 32653386
L63605771 32701005
L63558152 32796243
L63558152 32891481
L63605771 32986719
L63653390 33034338
L63748628 33081957
L64081961 33081957
" />
<path d="M63320056 33701005
L62558152 33701005
" />
<path d="M61748628 33510528
L61796247 33558147
L61939104 33605766
L62034342 33605766
L62177199 33558147
L62272437 33462909
L62320056 33367671
L62367675 33177195
L62367675 33034338
L62320056 32843862
L62272437 32748624
L62177199 32653386
L62034342 32605766
L61939104 32605766
L61796247 32653386
L61748628 32701005
" />
<path d="M60796247 33605766
L61367675 33605766
" />
<path d="M61081961 33605766
L61081961 32605766
L61177199 32748624
L61272437 32843862
L61367675 32891481
" />
</g><g transform="rotate(-90.000000 112035242.000000 123486091.000000)">
<text x="112035242.000000" y="123986091.000000"
transform="scale(-1 1) translate(-224070484.000000 0)"
textLength="1757381.000000" font-size="1333333.000000" lengthAdjust="spacingAndGlyphs"
text-anchor="middle" opacity="0">C4</text>
</g>
<g class="stroked-text"><desc>C4</desc>
<path d="M112392384 123319424
L112440003 123271805
L112487622 123128948
L112487622 123033710
L112440003 122890852
L112344765 122795614
L112249527 122747995
L112059051 122700376
L111916194 122700376
L111725718 122747995
L111630480 122795614
L111535242 122890852
L111487622 123033710
L111487622 123128948
L111535242 123271805
L111582861 123319424
" />
<path d="M111820956 124176567
L112487622 124176567
" />
<path d="M111440003 123938471
L112154289 123700376
L112154289 124319424
" />
</g><text x="93613208.000000" y="115235960.000000"
transform="scale(-1 1) translate(-187226416.000000 0)"
textLength="2185952.000000" font-size="1333333.000000" lengthAdjust="spacingAndGlyphs"
text-anchor="middle" opacity="0">0.1</text>
<g class="stroked-text"><desc>0.1</desc>
<path d="M94375112 114188340
L94279874 114188340
L94184636 114235960
L94137017 114283579
L94089398 114378817
L94041779 114569293
L94041779 114807388
L94089398 114997864
L94137017 115093102
L94184636 115140721
L94279874 115188340
L94375112 115188340
L94470350 115140721
L94517969 115093102
L94565588 114997864
L94613208 114807388
L94613208 114569293
L94565588 114378817
L94517969 114283579
L94470350 114235960
L94375112 114188340
" />
<path d="M93613208 115093102
L93565588 115140721
L93613208 115188340
L93660827 115140721
L93613208 115093102
L93613208 115188340
" />
<path d="M92613208 115188340
L93184636 115188340
" />
<path d="M92898922 115188340
L92898922 114188340
L92994160 114331198
L93089398 114426436
L93184636 114474055
" />
</g><g transform="rotate(-90.000000 108777759.000000 119667635.000000)">
<text x="108777759.000000" y="120167635.000000"
transform="scale(-1 1) translate(-217555518.000000 0)"
textLength="5709762.000000" font-size="1333333.000000" lengthAdjust="spacingAndGlyphs"
text-anchor="middle" opacity="0">R_HWB1</text>
</g>
<g class="stroked-text"><desc>R_HWB1</desc>
<path d="M109230139 117524777
L108753949 117191444
" />
<path d="M109230139 116953349
L108230139 116953349
L108230139 117334301
L108277759 117429539
L108325378 117477158
L108420616 117524777
L108563473 117524777
L108658711 117477158
L108706330 117429539
L108753949 117334301
L108753949 116953349
" />
<path d="M109325378 117715254
L109325378 118477158
" />
<path d="M109230139 118715254
L108230139 118715254
" />
<path d="M108706330 118715254
L108706330 119286682
" />
<path d="M109230139 119286682
L108230139 119286682
" />
<path d="M108230139 119667635
L109230139 119905730
L108515854 120096206
L109230139 120286682
L108230139 120524777
" />
<path d="M108706330 121239063
L108753949 121381920
L108801568 121429539
L108896806 121477158
L109039663 121477158
L109134901 121429539
L109182520 121381920
L109230139 121286682
L109230139 120905730
L108230139 120905730
L108230139 121239063
L108277759 121334301
L108325378 121381920
L108420616 121429539
L108515854 121429539
L108611092 121381920
L108658711 121334301
L108706330 121239063
L108706330 120905730
" />
<path d="M109230139 122429539
L109230139 121858111
" />
<path d="M109230139 122143825
L108230139 122143825
L108372997 122048587
L108468235 121953349
L108515854 121858111
" />
</g><g transform="rotate(-90.000000 90171687.000000 123592103.000000)">
<text x="90171687.000000" y="124092103.000000"
transform="scale(-1 1) translate(-180343374.000000 0)"
textLength="1757381.000000" font-size="1333333.000000" lengthAdjust="spacingAndGlyphs"
text-anchor="middle" opacity="0">R1</text>
</g>
<g class="stroked-text"><desc>R1</desc>
<path d="M90624067 123425436
L90147877 123092103
" />
<path d="M90624067 122854007
L89624067 122854007
L89624067 123234960
L89671687 123330198
L89719306 123377817
L89814544 123425436
L89957401 123425436
L90052639 123377817
L90100258 123330198
L90147877 123234960
L90147877 122854007
" />
<path d="M90624067 124377817
L90624067 123806388
" />
<path d="M90624067 124092103
L89624067 124092103
L89766925 123996864
L89862163 123901626
L89909782 123806388
" />
</g><text x="90571143.000000" y="117183888.000000"
transform="scale(-1 1) translate(-181142286.000000 0)"
textLength="4995476.000000" font-size="1333333.000000" lengthAdjust="spacingAndGlyphs"
text-anchor="middle" opacity="0">Cglob1</text>
<g class="stroked-text"><desc>Cglob1</desc>
<path d="M92356857 117041030
L92404476 117088649
L92547333 117136268
L92642571 117136268
L92785428 117088649
L92880666 116993411
L92928285 116898173
L92975904 116707697
L92975904 116564840
L92928285 116374364
L92880666 116279126
L92785428 116183888
L92642571 116136268
L92547333 116136268
L92404476 116183888
L92356857 116231507
" />
<path d="M91499714 116469602
L91499714 117279126
L91547333 117374364
L91594952 117421983
L91690190 117469602
L91833047 117469602
L91928285 117421983
" />
<path d="M91499714 117088649
L91594952 117136268
L91785428 117136268
L91880666 117088649
L91928285 117041030
L91975904 116945792
L91975904 116660078
L91928285 116564840
L91880666 116517221
L91785428 116469602
L91594952 116469602
L91499714 116517221
" />
<path d="M90880666 117136268
L90975904 117088649
L91023523 116993411
L91023523 116136268
" />
<path d="M90356857 117136268
L90452095 117088649
L90499714 117041030
L90547333 116945792
L90547333 116660078
L90499714 116564840
L90452095 116517221
L90356857 116469602
L90214000 116469602
L90118762 116517221
L90071143 116564840
L90023523 116660078
L90023523 116945792
L90071143 117041030
L90118762 117088649
L90214000 117136268
L90356857 117136268
" />
<path d="M89594952 117136268
L89594952 116136268
" />
<path d="M89594952 116517221
L89499714 116469602
L89309238 116469602
L89214000 116517221
L89166381 116564840
L89118762 116660078
L89118762 116945792
L89166381 117041030
L89214000 117088649
L89309238 117136268
L89499714 117136268
L89594952 117088649
" />
<path d="M88166381 117136268
L88737809 117136268
" />
<path d="M88452095 117136268
L88452095 116136268
L88547333 116279126
L88642571 116374364
L88737809 116421983
" />
</g><g transform="rotate(-90.000000 105655122.000000 123486091.000000)">
<text x="105655122.000000" y="123986091.000000"
transform="scale(-1 1) translate(-211310244.000000 0)"
textLength="1757381.000000" font-size="1333333.000000" lengthAdjust="spacingAndGlyphs"
text-anchor="middle" opacity="0">C3</text>
</g>
<g class="stroked-text"><desc>C3</desc>
<path d="M106012264 123319424
L106059883 123271805
L106107502 123128948
L106107502 123033710
L106059883 122890852
L105964645 122795614
L105869407 122747995
L105678931 122700376
L105536074 122700376
L105345598 122747995
L105250360 122795614
L105155122 122890852
L105107502 123033710
L105107502 123128948
L105155122 123271805
L105202741 123319424
" />
<path d="M105107502 123652757
L105107502 124271805
L105488455 123938471
L105488455 124081329
L105536074 124176567
L105583693 124224186
L105678931 124271805
L105917026 124271805
L106012264 124224186
L106059883 124176567
L106107502 124081329
L106107502 123795614
L106059883 123700376
L106012264 123652757
" />
</g></g>
<g style="fill:#E8B2A7; fill-opacity:0.0; 
stroke:#E8B2A7; stroke-width:120000.000000; stroke-opacity:1; 
stroke-linecap:round; stroke-linejoin:round;">
<path d="M56676360 26809472
L56676360 27263600
" />
<path d="M58146360 26809472
L58146360 27263600
" />
<path d="M99143142 104453848
L99143142 100153848
" />
<path d="M99143142 100153848
L104543142 100153848
" />
<path d="M95530456 101306361
L95530456 100783857
" />
<path d="M97000456 101306361
L97000456 100783857
" />
<path d="M112345689 123224839
L112345689 123747343
" />
<path d="M110875689 123224839
L110875689 123747343
" />
<path d="M155604467 104321521
L147984467 104321521
" />
<path d="M147984467 104321521
L147984467 127181521
" />
<path d="M147984467 127181521
L155604467 127181521
" />
<path d="M155604467 127181521
L155604467 104321521
" />
<path d="M108748982 123224839
L108748982 123747343
" />
<path d="M110218982 123224839
L110218982 123747343
" />
</g>
<g style="fill:#E8B2A7; fill-opacity:0.0; 
stroke:#E8B2A7; stroke-width:150000.000000; stroke-opacity:1; 
stroke-linecap:round; stroke-linejoin:round;">
<path d="M97199811 109278316
L97874811 109278316
" />
<path d="M97199811 119628316
L97199811 119053316
" />
<path d="M107549811 119628316
L106874811 119628316
" />
<path d="M97199811 109278316
L97199811 109953316
" />
<path d="M107549811 119628316
L107549811 118953316
" />
<path d="M107549811 109278316
L106874811 109278316
" />
<path d="M107549811 109278316
L107549811 109953316
" />
<path d="M97199811 119628316
L97874811 119628316
" />
<path d="M97199811 119053316
L95924811 119053316
" />
</g>
<g style="fill:#E8B2A7; fill-opacity:0.0; 
stroke:#E8B2A7; stroke-width:120000.000000; stroke-opacity:1; 
stroke-linecap:round; stroke-linejoin:round;">
<path d="M73040706 124520764
L73490706 124970764
" />
<path d="M77490706 121220764
L77490706 123220764
" />
<path d="M76440706 119920764
L75990706 119470764
" />
<path d="M75990706 124970764
L73490706 124970764
" />
<path d="M71990706 121220764
L71990706 123220764
" />
<path d="M75990706 119470764
L73490706 119470764
" />
<path d="M73040706 119920764
L73490706 119470764
" />
<path d="M76440706 124520764
L75990706 124970764
" />
<path d="M106771349 101307557
L106771349 100785053
" />
<path d="M108241349 101307557
L108241349 100785053
" />
<path d="M70179986 29117592
L69725858 29117592
" />
<path d="M70179986 27647592
L69725858 27647592
" />
<path d="M68057914 25353386
L68057914 22623386
" />
<path d="M58867914 28953386
L58867914 28053386
" />
<path d="M68057914 28953386
L68057914 28053386
" />
<path d="M58987914 32033386
L67937914 32033386
" />
<path d="M58867914 22623386
L68057914 22623386
" />
<path d="M58867914 25353386
L58867914 22623386
" />
<path d="M112980242 123224839
L112980242 123747343
" />
<path d="M114450242 123224839
L114450242 123747343
" />
<path d="M93351956 113790960
L93874460 113790960
" />
<path d="M93351956 112320960
L93874460 112320960
" />
<path d="M109692759 119440571
L109692759 119894699
" />
<path d="M111162759 119440571
L111162759 119894699
" />
<path d="M91086687 123365039
L91086687 123819167
" />
<path d="M92556687 123365039
L92556687 123819167
" />
<path d="M90832395 119098888
L90309891 119098888
" />
<path d="M90832395 117628888
L90309891 117628888
" />
<path d="M108070122 123224839
L108070122 123747343
" />
<path d="M106600122 123224839
L106600122 123747343
" />
<g >
</g>
<g >
</g>
<g >
</g>
<g >
</g>
<g >
</g>
<g >
</g>
<g >
</g>
<g >
</g>
<g >
</g>
<g >
</g>
<g >
</g>
<g >
</g>
<g >
</g>
<g >
</g>
<g >
</g>
<g >
</g>
<g >
</g>
<g >
</g>
<g >
</g>
<g >
</g>
<g >
</g>
<g >
</g>
<g >
</g>
<g >
</g>
<g >
</g>
<g >
</g>
<g >
</g>
<g >
</g>
<g >
</g>
<g >
</g>
<g >
</g>
<g >
</g>
<g >
</g>
<g >
</g>
<g >
</g>
<g >
</g>
<g >
</g>
<g >
</g>
<g >
</g>
<g >
</g>
<g >
</g>
<g >
</g>
<g >
</g>
<g >
</g>
<g >
</g>
<g >
</g>
<g >
</g>
<g >
</g>
<g >
</g>
<g >
</g>
<g >
</g>
<g >
</g>
<g >
</g>
<g >
</g>
<g >
</g>
<g >
</g>
<g >
</g>
<g >
</g>
<g >
</g>
<g >
</g>
<g >
</g>
<g >
</g>
<g >
</g>
<g >
</g>
<g >
</g>
<g >
</g>
<g >
</g>
<g >
</g>
<g >
</g>
<g >
</g>
<g >
</g>
<g >
</g>
<g >
</g>
<g >
</g>
<g >
</g>
<g >
</g>
<g >
</g>
<g >
</g>
</g>
<g style="fill:#000000; fill-opacity:0.0; 
stroke:#000000; stroke-width:120000.000000; stroke-opacity:1; 
stroke-linecap:round; stroke-linejoin:round;">
</g>
<g style="fill:#D0D2CD; fill-opacity:0.0; 
stroke:#D0D2CD; stroke-width:120000.000000; stroke-opacity:1; 
stroke-linecap:round; stroke-linejoin:round;">
</g>
<g style="fill:#D0D2CD; fill-opacity:0.0; 
stroke:#D0D2CD; stroke-width:100000.000000; stroke-opacity:1; 
stroke-linecap:round; stroke-linejoin:round;">
<path d="M156210000 127000000
L22860000 127000000
" />
<path d="M22860000 127000000
L22860000 24130000
" />
<path d="M165100000 24130000
L165100000 45720000
" />
<path d="M160020000 64770000
L160020000 85090000
" />
<path d="M160020000 85090000
L168910000 85090000
" />
<path d="M154940000 45720000
L154940000 64770000
" />
<path d="M156210000 106680000
L156210000 127000000
" />
<path d="M22860000 24130000
L165100000 24130000
" />
<path d="M154940000 64770000
L160020000 64770000
" />
<path d="M165100000 45720000
L154940000 45720000
" />
<path d="M168910000 85090000
L168910000 106680000
" />
<path d="M168910000 106680000
L156210000 106680000
" />
<g >
</g>
<g >
</g>
<g >
</g>
<g >
</g>
<g >
</g>
<g >
</g>
<g >
</g>
<g >
</g>
<g >
</g>
<g >
</g>
<g >
</g>
<g >
</g>
<g >
</g>
<g >
</g>
<g >
</g>
<g >
</g>
<g >
</g>
<g >
</g>
<g >
</g>
<g >
</g>
<g >
</g>
<g >
</g>
<g >
</g>
<g >
</g>
<g >
</g>
<g >
</g>
<g >
</g>
<g >
</g>
<g >
</g>
<g >
</g>
<g >
</g>
<g >
</g>
<g >
</g>
<g >
</g>
<g >
</g>
<g >
</g>
<g >
</g>
<g >
</g>
<g >
</g>
<g >
</g>
<g >
</g>
<g >
</g>
<g >
</g>
<g >
</g>
<g >
</g>
<g >
</g>
<g >
</g>
<g >
</g>
<g >
</g>
<g >
</g>
<g >
</g>
<g >
</g>
<g >
</g>
<g >
</g>
<g >
</g>
<g >
</g>
<g >
</g>
<g >
</g>
<g >
</g>
<g >
</g>
<g >
</g>
<g >
</g>
<g >
</g>
<g >
</g>
<g >
</g>
<g >
</g>
<g >
</g>
<g >
</g>
<g >
</g>
<g >
</g>
<g >
</g>
<g >
</g>
<g >
</g>
<g >
</g>
<g >
</g>
<g >
</g>
<g >
</g>
<g >
</g>
</g> 
</svg>
