%TF.GenerationSoftware,KiCad,Pcbnew,6.0.2+dfsg-1*%
%TF.CreationDate,2023-05-02T18:44:16+02:00*%
%TF.ProjectId,keyboard2_ctrl,6b657962-6f61-4726-9432-5f6374726c2e,rev?*%
%TF.SameCoordinates,Original*%
%TF.FileFunction,Legend,Bot*%
%TF.FilePolarity,Positive*%
%FSLAX46Y46*%
G04 Gerber Fmt 4.6, Leading zero omitted, Abs format (unit mm)*
G04 Created by KiCad (PCBNEW 6.0.2+dfsg-1) date 2023-05-02 18:44:16*
%MOMM*%
%LPD*%
G01*
G04 APERTURE LIST*
%ADD10C,0.150000*%
%ADD11C,0.120000*%
G04 APERTURE END LIST*
D10*
%TO.C,R_C1*%
X56213740Y-25988916D02*
X55737550Y-25655583D01*
X56213740Y-25417488D02*
X55213740Y-25417488D01*
X55213740Y-25798440D01*
X55261360Y-25893678D01*
X55308979Y-25941297D01*
X55404217Y-25988916D01*
X55547074Y-25988916D01*
X55642312Y-25941297D01*
X55689931Y-25893678D01*
X55737550Y-25798440D01*
X55737550Y-25417488D01*
X56308979Y-26179393D02*
X56308979Y-26941297D01*
X56118502Y-27750821D02*
X56166121Y-27703202D01*
X56213740Y-27560345D01*
X56213740Y-27465107D01*
X56166121Y-27322250D01*
X56070883Y-27227012D01*
X55975645Y-27179393D01*
X55785169Y-27131774D01*
X55642312Y-27131774D01*
X55451836Y-27179393D01*
X55356598Y-27227012D01*
X55261360Y-27322250D01*
X55213740Y-27465107D01*
X55213740Y-27560345D01*
X55261360Y-27703202D01*
X55308979Y-27750821D01*
X56213740Y-28703202D02*
X56213740Y-28131774D01*
X56213740Y-28417488D02*
X55213740Y-28417488D01*
X55356598Y-28322250D01*
X55451836Y-28227012D01*
X55499455Y-28131774D01*
%TO.C,xital1*%
X103819332Y-105706228D02*
X103295522Y-105039562D01*
X103819332Y-105039562D02*
X103295522Y-105706228D01*
X102914570Y-105706228D02*
X102914570Y-105039562D01*
X102914570Y-104706228D02*
X102962189Y-104753848D01*
X102914570Y-104801467D01*
X102866951Y-104753848D01*
X102914570Y-104706228D01*
X102914570Y-104801467D01*
X102581237Y-105039562D02*
X102200284Y-105039562D01*
X102438380Y-104706228D02*
X102438380Y-105563371D01*
X102390761Y-105658609D01*
X102295522Y-105706228D01*
X102200284Y-105706228D01*
X101438380Y-105706228D02*
X101438380Y-105182419D01*
X101485999Y-105087181D01*
X101581237Y-105039562D01*
X101771713Y-105039562D01*
X101866951Y-105087181D01*
X101438380Y-105658609D02*
X101533618Y-105706228D01*
X101771713Y-105706228D01*
X101866951Y-105658609D01*
X101914570Y-105563371D01*
X101914570Y-105468133D01*
X101866951Y-105372895D01*
X101771713Y-105325276D01*
X101533618Y-105325276D01*
X101438380Y-105277657D01*
X100819332Y-105706228D02*
X100914570Y-105658609D01*
X100962189Y-105563371D01*
X100962189Y-104706228D01*
X99914570Y-105706228D02*
X100485999Y-105706228D01*
X100200284Y-105706228D02*
X100200284Y-104706228D01*
X100295522Y-104849086D01*
X100390761Y-104944324D01*
X100485999Y-104991943D01*
%TO.C,C_xi1*%
X98302598Y-99854632D02*
X98350217Y-99807013D01*
X98397836Y-99664156D01*
X98397836Y-99568918D01*
X98350217Y-99426061D01*
X98254979Y-99330823D01*
X98159741Y-99283204D01*
X97969265Y-99235585D01*
X97826408Y-99235585D01*
X97635932Y-99283204D01*
X97540694Y-99330823D01*
X97445456Y-99426061D01*
X97397836Y-99568918D01*
X97397836Y-99664156D01*
X97445456Y-99807013D01*
X97493075Y-99854632D01*
X98493075Y-100045109D02*
X98493075Y-100807013D01*
X98397836Y-100949870D02*
X97731170Y-101473680D01*
X97731170Y-100949870D02*
X98397836Y-101473680D01*
X98397836Y-101854632D02*
X97731170Y-101854632D01*
X97397836Y-101854632D02*
X97445456Y-101807013D01*
X97493075Y-101854632D01*
X97445456Y-101902251D01*
X97397836Y-101854632D01*
X97493075Y-101854632D01*
X98397836Y-102854632D02*
X98397836Y-102283204D01*
X98397836Y-102568918D02*
X97397836Y-102568918D01*
X97540694Y-102473680D01*
X97635932Y-102378442D01*
X97683551Y-102283204D01*
%TO.C,C1*%
X110287831Y-123319424D02*
X110335450Y-123271805D01*
X110383069Y-123128948D01*
X110383069Y-123033710D01*
X110335450Y-122890852D01*
X110240212Y-122795614D01*
X110144974Y-122747995D01*
X109954498Y-122700376D01*
X109811641Y-122700376D01*
X109621165Y-122747995D01*
X109525927Y-122795614D01*
X109430689Y-122890852D01*
X109383069Y-123033710D01*
X109383069Y-123128948D01*
X109430689Y-123271805D01*
X109478308Y-123319424D01*
X110383069Y-124271805D02*
X110383069Y-123700376D01*
X110383069Y-123986091D02*
X109383069Y-123986091D01*
X109525927Y-123890852D01*
X109621165Y-123795614D01*
X109668784Y-123700376D01*
%TO.C,pp1*%
X151667324Y-126967235D02*
X151667324Y-127967235D01*
X151667324Y-127014854D02*
X151572086Y-126967235D01*
X151381609Y-126967235D01*
X151286371Y-127014854D01*
X151238752Y-127062473D01*
X151191133Y-127157711D01*
X151191133Y-127443425D01*
X151238752Y-127538663D01*
X151286371Y-127586282D01*
X151381609Y-127633901D01*
X151572086Y-127633901D01*
X151667324Y-127586282D01*
X150762562Y-126967235D02*
X150762562Y-127967235D01*
X150762562Y-127014854D02*
X150667324Y-126967235D01*
X150476847Y-126967235D01*
X150381609Y-127014854D01*
X150333990Y-127062473D01*
X150286371Y-127157711D01*
X150286371Y-127443425D01*
X150333990Y-127538663D01*
X150381609Y-127586282D01*
X150476847Y-127633901D01*
X150667324Y-127633901D01*
X150762562Y-127586282D01*
X149333990Y-127633901D02*
X149905419Y-127633901D01*
X149619705Y-127633901D02*
X149619705Y-126633901D01*
X149714943Y-126776759D01*
X149810181Y-126871997D01*
X149905419Y-126919616D01*
%TO.C,C2*%
X108161124Y-123319424D02*
X108208743Y-123271805D01*
X108256362Y-123128948D01*
X108256362Y-123033710D01*
X108208743Y-122890852D01*
X108113505Y-122795614D01*
X108018267Y-122747995D01*
X107827791Y-122700376D01*
X107684934Y-122700376D01*
X107494458Y-122747995D01*
X107399220Y-122795614D01*
X107303982Y-122890852D01*
X107256362Y-123033710D01*
X107256362Y-123128948D01*
X107303982Y-123271805D01*
X107351601Y-123319424D01*
X107351601Y-123700376D02*
X107303982Y-123747995D01*
X107256362Y-123843233D01*
X107256362Y-124081329D01*
X107303982Y-124176567D01*
X107351601Y-124224186D01*
X107446839Y-124271805D01*
X107542077Y-124271805D01*
X107684934Y-124224186D01*
X108256362Y-123652757D01*
X108256362Y-124271805D01*
%TO.C,Cerveau1*%
X104993858Y-122260458D02*
X105041477Y-122308077D01*
X105184334Y-122355696D01*
X105279572Y-122355696D01*
X105422430Y-122308077D01*
X105517668Y-122212839D01*
X105565287Y-122117601D01*
X105612906Y-121927125D01*
X105612906Y-121784268D01*
X105565287Y-121593792D01*
X105517668Y-121498554D01*
X105422430Y-121403316D01*
X105279572Y-121355696D01*
X105184334Y-121355696D01*
X105041477Y-121403316D01*
X104993858Y-121450935D01*
X104184334Y-122308077D02*
X104279572Y-122355696D01*
X104470049Y-122355696D01*
X104565287Y-122308077D01*
X104612906Y-122212839D01*
X104612906Y-121831887D01*
X104565287Y-121736649D01*
X104470049Y-121689030D01*
X104279572Y-121689030D01*
X104184334Y-121736649D01*
X104136715Y-121831887D01*
X104136715Y-121927125D01*
X104612906Y-122022363D01*
X103708144Y-122355696D02*
X103708144Y-121689030D01*
X103708144Y-121879506D02*
X103660525Y-121784268D01*
X103612906Y-121736649D01*
X103517668Y-121689030D01*
X103422430Y-121689030D01*
X103184334Y-121689030D02*
X102946239Y-122355696D01*
X102708144Y-121689030D01*
X101946239Y-122308077D02*
X102041477Y-122355696D01*
X102231953Y-122355696D01*
X102327191Y-122308077D01*
X102374811Y-122212839D01*
X102374811Y-121831887D01*
X102327191Y-121736649D01*
X102231953Y-121689030D01*
X102041477Y-121689030D01*
X101946239Y-121736649D01*
X101898620Y-121831887D01*
X101898620Y-121927125D01*
X102374811Y-122022363D01*
X101041477Y-122355696D02*
X101041477Y-121831887D01*
X101089096Y-121736649D01*
X101184334Y-121689030D01*
X101374811Y-121689030D01*
X101470049Y-121736649D01*
X101041477Y-122308077D02*
X101136715Y-122355696D01*
X101374811Y-122355696D01*
X101470049Y-122308077D01*
X101517668Y-122212839D01*
X101517668Y-122117601D01*
X101470049Y-122022363D01*
X101374811Y-121974744D01*
X101136715Y-121974744D01*
X101041477Y-121927125D01*
X100136715Y-121689030D02*
X100136715Y-122355696D01*
X100565287Y-121689030D02*
X100565287Y-122212839D01*
X100517668Y-122308077D01*
X100422430Y-122355696D01*
X100279572Y-122355696D01*
X100184334Y-122308077D01*
X100136715Y-122260458D01*
X99136715Y-122355696D02*
X99708144Y-122355696D01*
X99422430Y-122355696D02*
X99422430Y-121355696D01*
X99517668Y-121498554D01*
X99612906Y-121593792D01*
X99708144Y-121641411D01*
%TO.C,SW1*%
X76074039Y-118875525D02*
X75931182Y-118923144D01*
X75693086Y-118923144D01*
X75597848Y-118875525D01*
X75550229Y-118827906D01*
X75502610Y-118732668D01*
X75502610Y-118637430D01*
X75550229Y-118542192D01*
X75597848Y-118494573D01*
X75693086Y-118446954D01*
X75883563Y-118399335D01*
X75978801Y-118351716D01*
X76026420Y-118304097D01*
X76074039Y-118208859D01*
X76074039Y-118113621D01*
X76026420Y-118018383D01*
X75978801Y-117970764D01*
X75883563Y-117923144D01*
X75645467Y-117923144D01*
X75502610Y-117970764D01*
X75169277Y-117923144D02*
X74931182Y-118923144D01*
X74740706Y-118208859D01*
X74550229Y-118923144D01*
X74312134Y-117923144D01*
X73407372Y-118923144D02*
X73978801Y-118923144D01*
X73693086Y-118923144D02*
X73693086Y-117923144D01*
X73788325Y-118066002D01*
X73883563Y-118161240D01*
X73978801Y-118208859D01*
%TO.C,C_xi2*%
X109543491Y-99855828D02*
X109591110Y-99808209D01*
X109638729Y-99665352D01*
X109638729Y-99570114D01*
X109591110Y-99427257D01*
X109495872Y-99332019D01*
X109400634Y-99284400D01*
X109210158Y-99236781D01*
X109067301Y-99236781D01*
X108876825Y-99284400D01*
X108781587Y-99332019D01*
X108686349Y-99427257D01*
X108638729Y-99570114D01*
X108638729Y-99665352D01*
X108686349Y-99808209D01*
X108733968Y-99855828D01*
X109733968Y-100046305D02*
X109733968Y-100808209D01*
X109638729Y-100951066D02*
X108972063Y-101474876D01*
X108972063Y-100951066D02*
X109638729Y-101474876D01*
X109638729Y-101855828D02*
X108972063Y-101855828D01*
X108638729Y-101855828D02*
X108686349Y-101808209D01*
X108733968Y-101855828D01*
X108686349Y-101903447D01*
X108638729Y-101855828D01*
X108733968Y-101855828D01*
X108733968Y-102284400D02*
X108686349Y-102332019D01*
X108638729Y-102427257D01*
X108638729Y-102665352D01*
X108686349Y-102760590D01*
X108733968Y-102808209D01*
X108829206Y-102855828D01*
X108924444Y-102855828D01*
X109067301Y-102808209D01*
X109638729Y-102236781D01*
X109638729Y-102855828D01*
%TO.C,R_C2*%
X71000541Y-27184972D02*
X71333874Y-26708782D01*
X71571969Y-27184972D02*
X71571969Y-26184972D01*
X71191017Y-26184972D01*
X71095779Y-26232592D01*
X71048160Y-26280211D01*
X71000541Y-26375449D01*
X71000541Y-26518306D01*
X71048160Y-26613544D01*
X71095779Y-26661163D01*
X71191017Y-26708782D01*
X71571969Y-26708782D01*
X70810064Y-27280211D02*
X70048160Y-27280211D01*
X69238636Y-27089734D02*
X69286255Y-27137353D01*
X69429112Y-27184972D01*
X69524350Y-27184972D01*
X69667207Y-27137353D01*
X69762445Y-27042115D01*
X69810064Y-26946877D01*
X69857683Y-26756401D01*
X69857683Y-26613544D01*
X69810064Y-26423068D01*
X69762445Y-26327830D01*
X69667207Y-26232592D01*
X69524350Y-26184972D01*
X69429112Y-26184972D01*
X69286255Y-26232592D01*
X69238636Y-26280211D01*
X68857683Y-26280211D02*
X68810064Y-26232592D01*
X68714826Y-26184972D01*
X68476731Y-26184972D01*
X68381493Y-26232592D01*
X68333874Y-26280211D01*
X68286255Y-26375449D01*
X68286255Y-26470687D01*
X68333874Y-26613544D01*
X68905302Y-27184972D01*
X68286255Y-27184972D01*
%TO.C,USB_C1*%
X66081961Y-32605766D02*
X66081961Y-33415290D01*
X66034342Y-33510528D01*
X65986723Y-33558147D01*
X65891485Y-33605766D01*
X65701009Y-33605766D01*
X65605771Y-33558147D01*
X65558152Y-33510528D01*
X65510533Y-33415290D01*
X65510533Y-32605766D01*
X65081961Y-33558147D02*
X64939104Y-33605766D01*
X64701009Y-33605766D01*
X64605771Y-33558147D01*
X64558152Y-33510528D01*
X64510533Y-33415290D01*
X64510533Y-33320052D01*
X64558152Y-33224814D01*
X64605771Y-33177195D01*
X64701009Y-33129576D01*
X64891485Y-33081957D01*
X64986723Y-33034338D01*
X65034342Y-32986719D01*
X65081961Y-32891481D01*
X65081961Y-32796243D01*
X65034342Y-32701005D01*
X64986723Y-32653386D01*
X64891485Y-32605766D01*
X64653390Y-32605766D01*
X64510533Y-32653386D01*
X63748628Y-33081957D02*
X63605771Y-33129576D01*
X63558152Y-33177195D01*
X63510533Y-33272433D01*
X63510533Y-33415290D01*
X63558152Y-33510528D01*
X63605771Y-33558147D01*
X63701009Y-33605766D01*
X64081961Y-33605766D01*
X64081961Y-32605766D01*
X63748628Y-32605766D01*
X63653390Y-32653386D01*
X63605771Y-32701005D01*
X63558152Y-32796243D01*
X63558152Y-32891481D01*
X63605771Y-32986719D01*
X63653390Y-33034338D01*
X63748628Y-33081957D01*
X64081961Y-33081957D01*
X63320056Y-33701005D02*
X62558152Y-33701005D01*
X61748628Y-33510528D02*
X61796247Y-33558147D01*
X61939104Y-33605766D01*
X62034342Y-33605766D01*
X62177199Y-33558147D01*
X62272437Y-33462909D01*
X62320056Y-33367671D01*
X62367675Y-33177195D01*
X62367675Y-33034338D01*
X62320056Y-32843862D01*
X62272437Y-32748624D01*
X62177199Y-32653386D01*
X62034342Y-32605766D01*
X61939104Y-32605766D01*
X61796247Y-32653386D01*
X61748628Y-32701005D01*
X60796247Y-33605766D02*
X61367675Y-33605766D01*
X61081961Y-33605766D02*
X61081961Y-32605766D01*
X61177199Y-32748624D01*
X61272437Y-32843862D01*
X61367675Y-32891481D01*
%TO.C,C4*%
X112392384Y-123319424D02*
X112440003Y-123271805D01*
X112487622Y-123128948D01*
X112487622Y-123033710D01*
X112440003Y-122890852D01*
X112344765Y-122795614D01*
X112249527Y-122747995D01*
X112059051Y-122700376D01*
X111916194Y-122700376D01*
X111725718Y-122747995D01*
X111630480Y-122795614D01*
X111535242Y-122890852D01*
X111487622Y-123033710D01*
X111487622Y-123128948D01*
X111535242Y-123271805D01*
X111582861Y-123319424D01*
X111820956Y-124176567D02*
X112487622Y-124176567D01*
X111440003Y-123938471D02*
X112154289Y-123700376D01*
X112154289Y-124319424D01*
%TO.C,0.1*%
X94375112Y-114188340D02*
X94279874Y-114188340D01*
X94184636Y-114235960D01*
X94137017Y-114283579D01*
X94089398Y-114378817D01*
X94041779Y-114569293D01*
X94041779Y-114807388D01*
X94089398Y-114997864D01*
X94137017Y-115093102D01*
X94184636Y-115140721D01*
X94279874Y-115188340D01*
X94375112Y-115188340D01*
X94470350Y-115140721D01*
X94517969Y-115093102D01*
X94565588Y-114997864D01*
X94613208Y-114807388D01*
X94613208Y-114569293D01*
X94565588Y-114378817D01*
X94517969Y-114283579D01*
X94470350Y-114235960D01*
X94375112Y-114188340D01*
X93613208Y-115093102D02*
X93565588Y-115140721D01*
X93613208Y-115188340D01*
X93660827Y-115140721D01*
X93613208Y-115093102D01*
X93613208Y-115188340D01*
X92613208Y-115188340D02*
X93184636Y-115188340D01*
X92898922Y-115188340D02*
X92898922Y-114188340D01*
X92994160Y-114331198D01*
X93089398Y-114426436D01*
X93184636Y-114474055D01*
%TO.C,R_HWB1*%
X109230139Y-117524777D02*
X108753949Y-117191444D01*
X109230139Y-116953349D02*
X108230139Y-116953349D01*
X108230139Y-117334301D01*
X108277759Y-117429539D01*
X108325378Y-117477158D01*
X108420616Y-117524777D01*
X108563473Y-117524777D01*
X108658711Y-117477158D01*
X108706330Y-117429539D01*
X108753949Y-117334301D01*
X108753949Y-116953349D01*
X109325378Y-117715254D02*
X109325378Y-118477158D01*
X109230139Y-118715254D02*
X108230139Y-118715254D01*
X108706330Y-118715254D02*
X108706330Y-119286682D01*
X109230139Y-119286682D02*
X108230139Y-119286682D01*
X108230139Y-119667635D02*
X109230139Y-119905730D01*
X108515854Y-120096206D01*
X109230139Y-120286682D01*
X108230139Y-120524777D01*
X108706330Y-121239063D02*
X108753949Y-121381920D01*
X108801568Y-121429539D01*
X108896806Y-121477158D01*
X109039663Y-121477158D01*
X109134901Y-121429539D01*
X109182520Y-121381920D01*
X109230139Y-121286682D01*
X109230139Y-120905730D01*
X108230139Y-120905730D01*
X108230139Y-121239063D01*
X108277759Y-121334301D01*
X108325378Y-121381920D01*
X108420616Y-121429539D01*
X108515854Y-121429539D01*
X108611092Y-121381920D01*
X108658711Y-121334301D01*
X108706330Y-121239063D01*
X108706330Y-120905730D01*
X109230139Y-122429539D02*
X109230139Y-121858111D01*
X109230139Y-122143825D02*
X108230139Y-122143825D01*
X108372997Y-122048587D01*
X108468235Y-121953349D01*
X108515854Y-121858111D01*
%TO.C,R1*%
X90624067Y-123425436D02*
X90147877Y-123092103D01*
X90624067Y-122854007D02*
X89624067Y-122854007D01*
X89624067Y-123234960D01*
X89671687Y-123330198D01*
X89719306Y-123377817D01*
X89814544Y-123425436D01*
X89957401Y-123425436D01*
X90052639Y-123377817D01*
X90100258Y-123330198D01*
X90147877Y-123234960D01*
X90147877Y-122854007D01*
X90624067Y-124377817D02*
X90624067Y-123806388D01*
X90624067Y-124092103D02*
X89624067Y-124092103D01*
X89766925Y-123996864D01*
X89862163Y-123901626D01*
X89909782Y-123806388D01*
%TO.C,Cglob1*%
X92356857Y-117041030D02*
X92404476Y-117088649D01*
X92547333Y-117136268D01*
X92642571Y-117136268D01*
X92785428Y-117088649D01*
X92880666Y-116993411D01*
X92928285Y-116898173D01*
X92975904Y-116707697D01*
X92975904Y-116564840D01*
X92928285Y-116374364D01*
X92880666Y-116279126D01*
X92785428Y-116183888D01*
X92642571Y-116136268D01*
X92547333Y-116136268D01*
X92404476Y-116183888D01*
X92356857Y-116231507D01*
X91499714Y-116469602D02*
X91499714Y-117279126D01*
X91547333Y-117374364D01*
X91594952Y-117421983D01*
X91690190Y-117469602D01*
X91833047Y-117469602D01*
X91928285Y-117421983D01*
X91499714Y-117088649D02*
X91594952Y-117136268D01*
X91785428Y-117136268D01*
X91880666Y-117088649D01*
X91928285Y-117041030D01*
X91975904Y-116945792D01*
X91975904Y-116660078D01*
X91928285Y-116564840D01*
X91880666Y-116517221D01*
X91785428Y-116469602D01*
X91594952Y-116469602D01*
X91499714Y-116517221D01*
X90880666Y-117136268D02*
X90975904Y-117088649D01*
X91023523Y-116993411D01*
X91023523Y-116136268D01*
X90356857Y-117136268D02*
X90452095Y-117088649D01*
X90499714Y-117041030D01*
X90547333Y-116945792D01*
X90547333Y-116660078D01*
X90499714Y-116564840D01*
X90452095Y-116517221D01*
X90356857Y-116469602D01*
X90214000Y-116469602D01*
X90118762Y-116517221D01*
X90071143Y-116564840D01*
X90023523Y-116660078D01*
X90023523Y-116945792D01*
X90071143Y-117041030D01*
X90118762Y-117088649D01*
X90214000Y-117136268D01*
X90356857Y-117136268D01*
X89594952Y-117136268D02*
X89594952Y-116136268D01*
X89594952Y-116517221D02*
X89499714Y-116469602D01*
X89309238Y-116469602D01*
X89214000Y-116517221D01*
X89166381Y-116564840D01*
X89118762Y-116660078D01*
X89118762Y-116945792D01*
X89166381Y-117041030D01*
X89214000Y-117088649D01*
X89309238Y-117136268D01*
X89499714Y-117136268D01*
X89594952Y-117088649D01*
X88166381Y-117136268D02*
X88737809Y-117136268D01*
X88452095Y-117136268D02*
X88452095Y-116136268D01*
X88547333Y-116279126D01*
X88642571Y-116374364D01*
X88737809Y-116421983D01*
%TO.C,C3*%
X106012264Y-123319424D02*
X106059883Y-123271805D01*
X106107502Y-123128948D01*
X106107502Y-123033710D01*
X106059883Y-122890852D01*
X105964645Y-122795614D01*
X105869407Y-122747995D01*
X105678931Y-122700376D01*
X105536074Y-122700376D01*
X105345598Y-122747995D01*
X105250360Y-122795614D01*
X105155122Y-122890852D01*
X105107502Y-123033710D01*
X105107502Y-123128948D01*
X105155122Y-123271805D01*
X105202741Y-123319424D01*
X105107502Y-123652757D02*
X105107502Y-124271805D01*
X105488455Y-123938471D01*
X105488455Y-124081329D01*
X105536074Y-124176567D01*
X105583693Y-124224186D01*
X105678931Y-124271805D01*
X105917026Y-124271805D01*
X106012264Y-124224186D01*
X106059883Y-124176567D01*
X106107502Y-124081329D01*
X106107502Y-123795614D01*
X106059883Y-123700376D01*
X106012264Y-123652757D01*
D11*
%TO.C,R_C1*%
X56676360Y-26809472D02*
X56676360Y-27263600D01*
X58146360Y-26809472D02*
X58146360Y-27263600D01*
%TO.C,xital1*%
X99143142Y-104453848D02*
X99143142Y-100153848D01*
X99143142Y-100153848D02*
X104543142Y-100153848D01*
%TO.C,C_xi1*%
X95530456Y-101306361D02*
X95530456Y-100783857D01*
X97000456Y-101306361D02*
X97000456Y-100783857D01*
%TO.C,C1*%
X112345689Y-123224839D02*
X112345689Y-123747343D01*
X110875689Y-123224839D02*
X110875689Y-123747343D01*
%TO.C,pp1*%
X155604467Y-104321521D02*
X147984467Y-104321521D01*
X147984467Y-104321521D02*
X147984467Y-127181521D01*
X147984467Y-127181521D02*
X155604467Y-127181521D01*
X155604467Y-127181521D02*
X155604467Y-104321521D01*
%TO.C,C2*%
X108748982Y-123224839D02*
X108748982Y-123747343D01*
X110218982Y-123224839D02*
X110218982Y-123747343D01*
D10*
%TO.C,Cerveau1*%
X97199811Y-109278316D02*
X97874811Y-109278316D01*
X97199811Y-119628316D02*
X97199811Y-119053316D01*
X107549811Y-119628316D02*
X106874811Y-119628316D01*
X97199811Y-109278316D02*
X97199811Y-109953316D01*
X107549811Y-119628316D02*
X107549811Y-118953316D01*
X107549811Y-109278316D02*
X106874811Y-109278316D01*
X107549811Y-109278316D02*
X107549811Y-109953316D01*
X97199811Y-119628316D02*
X97874811Y-119628316D01*
X97199811Y-119053316D02*
X95924811Y-119053316D01*
D11*
%TO.C,SW1*%
X73040706Y-124520764D02*
X73490706Y-124970764D01*
X77490706Y-121220764D02*
X77490706Y-123220764D01*
X76440706Y-119920764D02*
X75990706Y-119470764D01*
X75990706Y-124970764D02*
X73490706Y-124970764D01*
X71990706Y-121220764D02*
X71990706Y-123220764D01*
X75990706Y-119470764D02*
X73490706Y-119470764D01*
X73040706Y-119920764D02*
X73490706Y-119470764D01*
X76440706Y-124520764D02*
X75990706Y-124970764D01*
%TO.C,C_xi2*%
X106771349Y-101307557D02*
X106771349Y-100785053D01*
X108241349Y-101307557D02*
X108241349Y-100785053D01*
%TO.C,R_C2*%
X70179986Y-29117592D02*
X69725858Y-29117592D01*
X70179986Y-27647592D02*
X69725858Y-27647592D01*
%TO.C,USB_C1*%
X68057914Y-25353386D02*
X68057914Y-22623386D01*
X58867914Y-28953386D02*
X58867914Y-28053386D01*
X68057914Y-28953386D02*
X68057914Y-28053386D01*
X58987914Y-32033386D02*
X67937914Y-32033386D01*
X58867914Y-22623386D02*
X68057914Y-22623386D01*
X58867914Y-25353386D02*
X58867914Y-22623386D01*
%TO.C,C4*%
X112980242Y-123224839D02*
X112980242Y-123747343D01*
X114450242Y-123224839D02*
X114450242Y-123747343D01*
%TO.C,0.1*%
X93351956Y-113790960D02*
X93874460Y-113790960D01*
X93351956Y-112320960D02*
X93874460Y-112320960D01*
%TO.C,R_HWB1*%
X109692759Y-119440571D02*
X109692759Y-119894699D01*
X111162759Y-119440571D02*
X111162759Y-119894699D01*
%TO.C,R1*%
X91086687Y-123365039D02*
X91086687Y-123819167D01*
X92556687Y-123365039D02*
X92556687Y-123819167D01*
%TO.C,Cglob1*%
X90832395Y-119098888D02*
X90309891Y-119098888D01*
X90832395Y-117628888D02*
X90309891Y-117628888D01*
%TO.C,C3*%
X108070122Y-123224839D02*
X108070122Y-123747343D01*
X106600122Y-123224839D02*
X106600122Y-123747343D01*
%TD*%
M02*
