%TF.GenerationSoftware,KiCad,Pcbnew,6.0.2+dfsg-1*%
%TF.CreationDate,2023-05-02T18:44:16+02:00*%
%TF.ProjectId,keyboard2_ctrl,6b657962-6f61-4726-9432-5f6374726c2e,rev?*%
%TF.SameCoordinates,Original*%
%TF.FileFunction,Soldermask,Bot*%
%TF.FilePolarity,Negative*%
%FSLAX46Y46*%
G04 Gerber Fmt 4.6, Leading zero omitted, Abs format (unit mm)*
G04 Created by KiCad (PCBNEW 6.0.2+dfsg-1) date 2023-05-02 18:44:16*
%MOMM*%
%LPD*%
G01*
G04 APERTURE LIST*
G04 Aperture macros list*
%AMRoundRect*
0 Rectangle with rounded corners*
0 $1 Rounding radius*
0 $2 $3 $4 $5 $6 $7 $8 $9 X,Y pos of 4 corners*
0 Add a 4 corners polygon primitive as box body*
4,1,4,$2,$3,$4,$5,$6,$7,$8,$9,$2,$3,0*
0 Add four circle primitives for the rounded corners*
1,1,$1+$1,$2,$3*
1,1,$1+$1,$4,$5*
1,1,$1+$1,$6,$7*
1,1,$1+$1,$8,$9*
0 Add four rect primitives between the rounded corners*
20,1,$1+$1,$2,$3,$4,$5,0*
20,1,$1+$1,$4,$5,$6,$7,0*
20,1,$1+$1,$6,$7,$8,$9,0*
20,1,$1+$1,$8,$9,$2,$3,0*%
G04 Aperture macros list end*
%ADD10C,1.700000*%
%ADD11C,4.000000*%
%ADD12C,2.200000*%
%ADD13C,3.050000*%
%ADD14RoundRect,0.250000X-0.450000X0.262500X-0.450000X-0.262500X0.450000X-0.262500X0.450000X0.262500X0*%
%ADD15R,2.100000X1.725000*%
%ADD16RoundRect,0.250000X0.475000X-0.250000X0.475000X0.250000X-0.475000X0.250000X-0.475000X-0.250000X0*%
%ADD17RoundRect,0.250000X-0.475000X0.250000X-0.475000X-0.250000X0.475000X-0.250000X0.475000X0.250000X0*%
%ADD18C,1.524000*%
%ADD19R,1.500000X0.550000*%
%ADD20R,0.550000X1.500000*%
%ADD21R,1.700000X1.000000*%
%ADD22RoundRect,0.250000X0.262500X0.450000X-0.262500X0.450000X-0.262500X-0.450000X0.262500X-0.450000X0*%
%ADD23C,0.700000*%
%ADD24O,0.900000X1.700000*%
%ADD25O,0.900000X2.400000*%
%ADD26RoundRect,0.250000X-0.250000X-0.475000X0.250000X-0.475000X0.250000X0.475000X-0.250000X0.475000X0*%
%ADD27RoundRect,0.250000X0.250000X0.475000X-0.250000X0.475000X-0.250000X-0.475000X0.250000X-0.475000X0*%
G04 APERTURE END LIST*
D10*
%TO.C,K_E1*%
X108430873Y-55055766D03*
D11*
X103350873Y-55055766D03*
D10*
X98270873Y-55055766D03*
D12*
X105890873Y-49975766D03*
X99540873Y-52515766D03*
%TD*%
D10*
%TO.C,K_S1*%
X82686682Y-75379673D03*
D11*
X87766682Y-75379673D03*
D10*
X92846682Y-75379673D03*
D12*
X90306682Y-70299673D03*
X83956682Y-72839673D03*
%TD*%
D10*
%TO.C,K_1*%
X48300144Y-34798000D03*
D11*
X53380144Y-34798000D03*
D10*
X58460144Y-34798000D03*
D12*
X55920144Y-29718000D03*
X49570144Y-32258000D03*
%TD*%
D10*
%TO.C,K_V1*%
X133062576Y-95612304D03*
D11*
X138142576Y-95612304D03*
D10*
X143222576Y-95612304D03*
D12*
X140682576Y-90532304D03*
X134332576Y-93072304D03*
%TD*%
D10*
%TO.C,K_Alt1*%
X82658568Y-115790049D03*
D11*
X87738568Y-115790049D03*
D10*
X92818568Y-115790049D03*
D12*
X90278568Y-110710049D03*
X83928568Y-113250049D03*
%TD*%
D10*
%TO.C,K_C1*%
X122846509Y-95612304D03*
D11*
X117766509Y-95612304D03*
D10*
X112686509Y-95612304D03*
D12*
X120306509Y-90532304D03*
X113956509Y-93072304D03*
%TD*%
D10*
%TO.C,K_3*%
X88900000Y-34798000D03*
X99060000Y-34798000D03*
D11*
X93980000Y-34798000D03*
D12*
X96520000Y-29718000D03*
X90170000Y-32258000D03*
%TD*%
D11*
%TO.C,K_2*%
X73660000Y-34798000D03*
D10*
X68580000Y-34798000D03*
X78740000Y-34798000D03*
D12*
X76200000Y-29718000D03*
X69850000Y-32258000D03*
%TD*%
D10*
%TO.C,K_Tab1*%
X32679165Y-55051483D03*
D11*
X37759165Y-55051483D03*
D10*
X42839165Y-55051483D03*
D12*
X40299165Y-49971483D03*
X33949165Y-52511483D03*
%TD*%
D10*
%TO.C,K_6*%
X159990270Y-34755006D03*
D11*
X154910270Y-34755006D03*
D10*
X149830270Y-34755006D03*
D12*
X157450270Y-29675006D03*
X151100270Y-32215006D03*
%TD*%
D10*
%TO.C,K_D1*%
X113127860Y-75377136D03*
X102967860Y-75377136D03*
D11*
X108047860Y-75377136D03*
D12*
X110587860Y-70297136D03*
X104237860Y-72837136D03*
%TD*%
D10*
%TO.C,K_4*%
X119369316Y-34768489D03*
X109209316Y-34768489D03*
D11*
X114289316Y-34768489D03*
D12*
X116829316Y-29688489D03*
X110479316Y-32228489D03*
%TD*%
D10*
%TO.C,K_F1*%
X123306460Y-75377136D03*
D11*
X128386460Y-75377136D03*
D10*
X133466460Y-75377136D03*
D12*
X130926460Y-70297136D03*
X124576460Y-72837136D03*
%TD*%
D10*
%TO.C,K_X1*%
X92413932Y-95612304D03*
X102573932Y-95612304D03*
D11*
X97493932Y-95612304D03*
D12*
X100033932Y-90532304D03*
X93683932Y-93072304D03*
%TD*%
D11*
%TO.C,K_Esc1*%
X33020000Y-34798000D03*
D10*
X38100000Y-34798000D03*
X27940000Y-34798000D03*
D12*
X35560000Y-29718000D03*
X29210000Y-32258000D03*
%TD*%
D11*
%TO.C,K_Shift1*%
X32895762Y-103838020D03*
X44795762Y-95598020D03*
X56695762Y-103838020D03*
D10*
X49875762Y-95598020D03*
D13*
X32895762Y-88598020D03*
X56695762Y-88598020D03*
D10*
X39715762Y-95598020D03*
D12*
X47335762Y-90518020D03*
X40985762Y-93058020D03*
%TD*%
D10*
%TO.C,K_B1*%
X163478653Y-95612304D03*
D11*
X158398653Y-95612304D03*
D10*
X153318653Y-95612304D03*
D12*
X160938653Y-90532304D03*
X154588653Y-93072304D03*
%TD*%
D11*
%TO.C,K_5*%
X134468949Y-34755006D03*
D10*
X139548949Y-34755006D03*
X129388949Y-34755006D03*
D12*
X137008949Y-29675006D03*
X130658949Y-32215006D03*
%TD*%
D11*
%TO.C,K_Q1*%
X62778198Y-55055766D03*
D10*
X67858198Y-55055766D03*
X57698198Y-55055766D03*
D12*
X65318198Y-49975766D03*
X58968198Y-52515766D03*
%TD*%
D11*
%TO.C,K_W1*%
X83068376Y-55055766D03*
D10*
X88148376Y-55055766D03*
X77988376Y-55055766D03*
D12*
X85608376Y-49975766D03*
X79258376Y-52515766D03*
%TD*%
D11*
%TO.C,K_G1*%
X148685554Y-75377136D03*
D10*
X143605554Y-75377136D03*
X153765554Y-75377136D03*
D12*
X151225554Y-70297136D03*
X144875554Y-72837136D03*
%TD*%
D10*
%TO.C,K_Space1*%
X124339215Y-115790049D03*
D13*
X117519215Y-108790049D03*
X141319215Y-108790049D03*
D11*
X141319215Y-124030049D03*
X117519215Y-124030049D03*
X129419215Y-115790049D03*
D10*
X134499215Y-115790049D03*
D12*
X131959215Y-110710049D03*
X125609215Y-113250049D03*
%TD*%
D11*
%TO.C,K_T1*%
X143771800Y-55055766D03*
D10*
X148851800Y-55055766D03*
X138691800Y-55055766D03*
D12*
X146311800Y-49975766D03*
X139961800Y-52515766D03*
%TD*%
D11*
%TO.C,K_R1*%
X123526755Y-55055766D03*
D10*
X128606755Y-55055766D03*
X118446755Y-55055766D03*
D12*
X126066755Y-49975766D03*
X119716755Y-52515766D03*
%TD*%
D11*
%TO.C,K_Ctrl1*%
X37759165Y-115790049D03*
D10*
X32679165Y-115790049D03*
X42839165Y-115790049D03*
D12*
X40299165Y-110710049D03*
X33949165Y-113250049D03*
%TD*%
D11*
%TO.C,K_Lin1*%
X62810929Y-115790049D03*
D10*
X57730929Y-115790049D03*
X67890929Y-115790049D03*
D12*
X65350929Y-110710049D03*
X59000929Y-113250049D03*
%TD*%
D10*
%TO.C,K_Caps-Lock1*%
X35038987Y-75379673D03*
X45198987Y-75379673D03*
D11*
X40118987Y-75379673D03*
D12*
X42658987Y-70299673D03*
X36308987Y-72839673D03*
%TD*%
D11*
%TO.C,K_A1*%
X67474513Y-75379673D03*
D10*
X62394513Y-75379673D03*
X72554513Y-75379673D03*
D12*
X70014513Y-70299673D03*
X63664513Y-72839673D03*
%TD*%
D11*
%TO.C,K_Z1*%
X77176815Y-95612304D03*
D10*
X72096815Y-95612304D03*
X82256815Y-95612304D03*
D12*
X79716815Y-90532304D03*
X73366815Y-93072304D03*
%TD*%
D14*
%TO.C,R_C1*%
X57411360Y-26124036D03*
X57411360Y-27949036D03*
%TD*%
D15*
%TO.C,xital1*%
X100393142Y-101216348D03*
X103293142Y-101216348D03*
X103293142Y-103391348D03*
X100393142Y-103391348D03*
%TD*%
D16*
%TO.C,C_xi1*%
X96265456Y-101995109D03*
X96265456Y-100095109D03*
%TD*%
D17*
%TO.C,C1*%
X111610689Y-122536091D03*
X111610689Y-124436091D03*
%TD*%
D18*
%TO.C,pp1*%
X150524467Y-106861521D03*
X150524467Y-109401521D03*
X150524467Y-111941521D03*
X150524467Y-114481521D03*
X150524467Y-117021521D03*
X150524467Y-119561521D03*
X150524467Y-122101521D03*
X150524467Y-124641521D03*
X153064467Y-106861521D03*
X153064467Y-109401521D03*
X153064467Y-111941521D03*
X153064467Y-114481521D03*
X153064467Y-117021521D03*
X153064467Y-119561521D03*
X153064467Y-122101521D03*
X153064467Y-124641521D03*
%TD*%
D17*
%TO.C,C2*%
X109483982Y-122536091D03*
X109483982Y-124436091D03*
%TD*%
D19*
%TO.C,Cerveau1*%
X96674811Y-118453316D03*
X96674811Y-117653316D03*
X96674811Y-116853316D03*
X96674811Y-116053316D03*
X96674811Y-115253316D03*
X96674811Y-114453316D03*
X96674811Y-113653316D03*
X96674811Y-112853316D03*
X96674811Y-112053316D03*
X96674811Y-111253316D03*
X96674811Y-110453316D03*
D20*
X98374811Y-108753316D03*
X99174811Y-108753316D03*
X99974811Y-108753316D03*
X100774811Y-108753316D03*
X101574811Y-108753316D03*
X102374811Y-108753316D03*
X103174811Y-108753316D03*
X103974811Y-108753316D03*
X104774811Y-108753316D03*
X105574811Y-108753316D03*
X106374811Y-108753316D03*
D19*
X108074811Y-110453316D03*
X108074811Y-111253316D03*
X108074811Y-112053316D03*
X108074811Y-112853316D03*
X108074811Y-113653316D03*
X108074811Y-114453316D03*
X108074811Y-115253316D03*
X108074811Y-116053316D03*
X108074811Y-116853316D03*
X108074811Y-117653316D03*
X108074811Y-118453316D03*
D20*
X106374811Y-120153316D03*
X105574811Y-120153316D03*
X104774811Y-120153316D03*
X103974811Y-120153316D03*
X103174811Y-120153316D03*
X102374811Y-120153316D03*
X101574811Y-120153316D03*
X100774811Y-120153316D03*
X99974811Y-120153316D03*
X99174811Y-120153316D03*
X98374811Y-120153316D03*
%TD*%
D21*
%TO.C,SW1*%
X77890706Y-120320764D03*
X71590706Y-120320764D03*
X77890706Y-124120764D03*
X71590706Y-124120764D03*
%TD*%
D16*
%TO.C,C_xi2*%
X107506349Y-101996305D03*
X107506349Y-100096305D03*
%TD*%
D22*
%TO.C,R_C2*%
X70865422Y-28382592D03*
X69040422Y-28382592D03*
%TD*%
D23*
%TO.C,USB_C1*%
X60487914Y-31353386D03*
X61337914Y-31353386D03*
X62187914Y-31353386D03*
X63037914Y-31353386D03*
X63887914Y-31353386D03*
X64737914Y-31353386D03*
X65587914Y-31353386D03*
X66437914Y-31353386D03*
X66437914Y-30003386D03*
X65587914Y-30003386D03*
X64737914Y-30003386D03*
X63887914Y-30003386D03*
X63037914Y-30003386D03*
X62187914Y-30003386D03*
X61337914Y-30003386D03*
X60487914Y-30003386D03*
D24*
X59137914Y-26993386D03*
X67787914Y-26993386D03*
D25*
X59137914Y-30373386D03*
X67787914Y-30373386D03*
%TD*%
D17*
%TO.C,C4*%
X113715242Y-122536091D03*
X113715242Y-124436091D03*
%TD*%
D26*
%TO.C,0.1*%
X92663208Y-113055960D03*
X94563208Y-113055960D03*
%TD*%
D14*
%TO.C,R_HWB1*%
X110427759Y-118755135D03*
X110427759Y-120580135D03*
%TD*%
%TO.C,R1*%
X91821687Y-122679603D03*
X91821687Y-124504603D03*
%TD*%
D27*
%TO.C,Cglob1*%
X91521143Y-118363888D03*
X89621143Y-118363888D03*
%TD*%
D17*
%TO.C,C3*%
X107335122Y-122536091D03*
X107335122Y-124436091D03*
%TD*%
M02*
