M48
; DRILL file {KiCad 6.0.2+dfsg-1} date Tue 02 May 2023 06:44:19 PM CEST
; FORMAT={-:-/ absolute / inch / decimal}
; #@! TF.CreationDate,2023-05-02T18:44:19+02:00
; #@! TF.GenerationSoftware,Kicad,Pcbnew,6.0.2+dfsg-1
; #@! TF.FileFunction,NonPlated,1,2,NPTH
FMAT,2
INCH
; #@! TA.AperFunction,NonPlated,NPTH,ComponentDrill
T1C0.0669
; #@! TA.AperFunction,NonPlated,NPTH,ComponentDrill
T2C0.1201
; #@! TA.AperFunction,NonPlated,NPTH,ComponentDrill
T3C0.1575
%
G90
G05
T1
X1.1Y-1.37
X1.2866Y-2.1674
X1.2866Y-4.5587
X1.3795Y-2.9677
X1.5Y-1.37
X1.5636Y-3.7637
X1.6866Y-2.1674
X1.6866Y-4.5587
X1.7795Y-2.9677
X1.9016Y-1.37
X1.9636Y-3.7637
X2.2716Y-2.1675
X2.2729Y-4.5587
X2.3016Y-1.37
X2.4565Y-2.9677
X2.6716Y-2.1675
X2.6729Y-4.5587
X2.7Y-1.37
X2.8385Y-3.7643
X2.8565Y-2.9677
X3.0704Y-2.1675
X3.1Y-1.37
X3.2385Y-3.7643
X3.2543Y-4.5587
X3.2554Y-2.9677
X3.4704Y-2.1675
X3.5Y-1.37
X3.6383Y-3.7643
X3.6543Y-4.5587
X3.6554Y-2.9677
X3.8689Y-2.1675
X3.9Y-1.37
X4.0383Y-3.7643
X4.0539Y-2.9676
X4.2689Y-2.1675
X4.2996Y-1.3688
X4.4365Y-3.7643
X4.4539Y-2.9676
X4.6633Y-2.1675
X4.6996Y-1.3688
X4.8365Y-3.7643
X4.8546Y-2.9676
X4.8952Y-4.5587
X5.0633Y-2.1675
X5.0941Y-1.3683
X5.2387Y-3.7643
X5.2546Y-2.9676
X5.2952Y-4.5587
X5.4603Y-2.1675
X5.4941Y-1.3683
X5.6387Y-3.7643
X5.6538Y-2.9676
X5.8603Y-2.1675
X5.8988Y-1.3683
X6.0362Y-3.7643
X6.0538Y-2.9676
X6.2988Y-1.3683
X6.4362Y-3.7643
T2
X1.2951Y-3.4881
X2.2321Y-3.4881
X4.6267Y-4.2831
X5.5637Y-4.2831
T3
X1.2951Y-4.0881
X1.3Y-1.37
X1.4866Y-2.1674
X1.4866Y-4.5587
X1.5795Y-2.9677
X1.7636Y-3.7637
X2.1016Y-1.37
X2.2321Y-4.0881
X2.4716Y-2.1675
X2.4729Y-4.5587
X2.6565Y-2.9677
X2.9Y-1.37
X3.0385Y-3.7643
X3.2704Y-2.1675
X3.4543Y-4.5587
X3.4554Y-2.9677
X3.7Y-1.37
X3.8383Y-3.7643
X4.0689Y-2.1675
X4.2539Y-2.9676
X4.4996Y-1.3688
X4.6267Y-4.8831
X4.6365Y-3.7643
X4.8633Y-2.1675
X5.0546Y-2.9676
X5.0952Y-4.5587
X5.2941Y-1.3683
X5.4387Y-3.7643
X5.5637Y-4.8831
X5.6603Y-2.1675
X5.8538Y-2.9676
X6.0988Y-1.3683
X6.2362Y-3.7643
T0
M30
