%TF.GenerationSoftware,KiCad,Pcbnew,6.0.2+dfsg-1*%
%TF.CreationDate,2023-05-02T18:44:16+02:00*%
%TF.ProjectId,keyboard2_ctrl,6b657962-6f61-4726-9432-5f6374726c2e,rev?*%
%TF.SameCoordinates,Original*%
%TF.FileFunction,Soldermask,Top*%
%TF.FilePolarity,Negative*%
%FSLAX46Y46*%
G04 Gerber Fmt 4.6, Leading zero omitted, Abs format (unit mm)*
G04 Created by KiCad (PCBNEW 6.0.2+dfsg-1) date 2023-05-02 18:44:16*
%MOMM*%
%LPD*%
G01*
G04 APERTURE LIST*
G04 Aperture macros list*
%AMRoundRect*
0 Rectangle with rounded corners*
0 $1 Rounding radius*
0 $2 $3 $4 $5 $6 $7 $8 $9 X,Y pos of 4 corners*
0 Add a 4 corners polygon primitive as box body*
4,1,4,$2,$3,$4,$5,$6,$7,$8,$9,$2,$3,0*
0 Add four circle primitives for the rounded corners*
1,1,$1+$1,$2,$3*
1,1,$1+$1,$4,$5*
1,1,$1+$1,$6,$7*
1,1,$1+$1,$8,$9*
0 Add four rect primitives between the rounded corners*
20,1,$1+$1,$2,$3,$4,$5,0*
20,1,$1+$1,$4,$5,$6,$7,0*
20,1,$1+$1,$6,$7,$8,$9,0*
20,1,$1+$1,$8,$9,$2,$3,0*%
G04 Aperture macros list end*
%ADD10RoundRect,0.250000X-0.250000X-0.475000X0.250000X-0.475000X0.250000X0.475000X-0.250000X0.475000X0*%
%ADD11RoundRect,0.250000X0.475000X-0.250000X0.475000X0.250000X-0.475000X0.250000X-0.475000X-0.250000X0*%
%ADD12C,1.700000*%
%ADD13C,4.000000*%
%ADD14C,2.200000*%
%ADD15RoundRect,0.250000X0.250000X0.475000X-0.250000X0.475000X-0.250000X-0.475000X0.250000X-0.475000X0*%
%ADD16C,3.050000*%
%ADD17C,0.700000*%
%ADD18O,0.900000X1.700000*%
%ADD19O,0.900000X2.400000*%
G04 APERTURE END LIST*
D10*
%TO.C,D_Alt1*%
X86733068Y-120177049D03*
X88633068Y-120177049D03*
%TD*%
D11*
%TO.C,D_Z1*%
X73295589Y-100173253D03*
X73295589Y-98273253D03*
%TD*%
D12*
%TO.C,K_E1*%
X108430873Y-55055766D03*
D13*
X103350873Y-55055766D03*
D12*
X98270873Y-55055766D03*
D14*
X105890873Y-49975766D03*
X99540873Y-52515766D03*
%TD*%
D11*
%TO.C,D_F1*%
X124452084Y-79713012D03*
X124452084Y-77813012D03*
%TD*%
D12*
%TO.C,K_S1*%
X82686682Y-75379673D03*
D13*
X87766682Y-75379673D03*
D12*
X92846682Y-75379673D03*
D14*
X90306682Y-70299673D03*
X83956682Y-72839673D03*
%TD*%
D12*
%TO.C,K_1*%
X48300144Y-34798000D03*
D13*
X53380144Y-34798000D03*
D12*
X58460144Y-34798000D03*
D14*
X55920144Y-29718000D03*
X49570144Y-32258000D03*
%TD*%
D11*
%TO.C,D_W1*%
X80294988Y-59447891D03*
X80294988Y-57547891D03*
%TD*%
%TO.C,D_esc1*%
X32835000Y-40255000D03*
X32835000Y-38355000D03*
%TD*%
%TO.C,D_A1*%
X63734613Y-80058602D03*
X63734613Y-78158602D03*
%TD*%
%TO.C,D_G1*%
X145267223Y-79686429D03*
X145267223Y-77786429D03*
%TD*%
%TO.C,D_2*%
X73539000Y-40135000D03*
X73539000Y-38235000D03*
%TD*%
D12*
%TO.C,K_V1*%
X133062576Y-95612304D03*
D13*
X138142576Y-95612304D03*
D12*
X143222576Y-95612304D03*
D14*
X140682576Y-90532304D03*
X134332576Y-93072304D03*
%TD*%
D12*
%TO.C,K_Alt1*%
X82658568Y-115790049D03*
D13*
X87738568Y-115790049D03*
D12*
X92818568Y-115790049D03*
D14*
X90278568Y-110710049D03*
X83928568Y-113250049D03*
%TD*%
D11*
%TO.C,D_B1*%
X154996262Y-100463080D03*
X154996262Y-98563080D03*
%TD*%
D12*
%TO.C,K_C1*%
X122846509Y-95612304D03*
D13*
X117766509Y-95612304D03*
D12*
X112686509Y-95612304D03*
D14*
X120306509Y-90532304D03*
X113956509Y-93072304D03*
%TD*%
D11*
%TO.C,D_V1*%
X134369570Y-100567144D03*
X134369570Y-98667144D03*
%TD*%
D12*
%TO.C,K_3*%
X88900000Y-34798000D03*
X99060000Y-34798000D03*
D13*
X93980000Y-34798000D03*
D14*
X96520000Y-29718000D03*
X90170000Y-32258000D03*
%TD*%
D13*
%TO.C,K_2*%
X73660000Y-34798000D03*
D12*
X68580000Y-34798000D03*
X78740000Y-34798000D03*
D14*
X76200000Y-29718000D03*
X69850000Y-32258000D03*
%TD*%
D12*
%TO.C,K_Tab1*%
X32679165Y-55051483D03*
D13*
X37759165Y-55051483D03*
D12*
X42839165Y-55051483D03*
D14*
X40299165Y-49971483D03*
X33949165Y-52511483D03*
%TD*%
D12*
%TO.C,K_6*%
X159990270Y-34755006D03*
D13*
X154910270Y-34755006D03*
D12*
X149830270Y-34755006D03*
D14*
X157450270Y-29675006D03*
X151100270Y-32215006D03*
%TD*%
D12*
%TO.C,K_D1*%
X113127860Y-75377136D03*
X102967860Y-75377136D03*
D13*
X108047860Y-75377136D03*
D14*
X110587860Y-70297136D03*
X104237860Y-72837136D03*
%TD*%
D15*
%TO.C,D_Space1*%
X130472244Y-119817106D03*
X128572244Y-119817106D03*
%TD*%
D12*
%TO.C,K_4*%
X119369316Y-34768489D03*
X109209316Y-34768489D03*
D13*
X114289316Y-34768489D03*
D14*
X116829316Y-29688489D03*
X110479316Y-32228489D03*
%TD*%
D12*
%TO.C,K_F1*%
X123306460Y-75377136D03*
D13*
X128386460Y-75377136D03*
D12*
X133466460Y-75377136D03*
D14*
X130926460Y-70297136D03*
X124576460Y-72837136D03*
%TD*%
D12*
%TO.C,K_X1*%
X92413932Y-95612304D03*
X102573932Y-95612304D03*
D13*
X97493932Y-95612304D03*
D14*
X100033932Y-90532304D03*
X93683932Y-93072304D03*
%TD*%
D11*
%TO.C,D_R1*%
X119612474Y-59421307D03*
X119612474Y-57521307D03*
%TD*%
%TO.C,D_S1*%
X83991493Y-79945249D03*
X83991493Y-78045249D03*
%TD*%
D13*
%TO.C,K_Esc1*%
X33020000Y-34798000D03*
D12*
X38100000Y-34798000D03*
X27940000Y-34798000D03*
D14*
X35560000Y-29718000D03*
X29210000Y-32258000D03*
%TD*%
D13*
%TO.C,K_Shift1*%
X32895762Y-103838020D03*
X44795762Y-95598020D03*
X56695762Y-103838020D03*
D12*
X49875762Y-95598020D03*
D16*
X32895762Y-88598020D03*
X56695762Y-88598020D03*
D12*
X39715762Y-95598020D03*
D14*
X47335762Y-90518020D03*
X40985762Y-93058020D03*
%TD*%
D12*
%TO.C,K_B1*%
X163478653Y-95612304D03*
D13*
X158398653Y-95612304D03*
D12*
X153318653Y-95612304D03*
D14*
X160938653Y-90532304D03*
X154588653Y-93072304D03*
%TD*%
D11*
%TO.C,D_4*%
X114326316Y-39983489D03*
X114326316Y-38083489D03*
%TD*%
%TO.C,D_Caps1*%
X36273516Y-80051584D03*
X36273516Y-78151584D03*
%TD*%
%TO.C,D_3*%
X93955000Y-40507000D03*
X93955000Y-38607000D03*
%TD*%
D15*
%TO.C,D_Lin1*%
X63425929Y-120671049D03*
X61525929Y-120671049D03*
%TD*%
D11*
%TO.C,D_E1*%
X99515098Y-59447891D03*
X99515098Y-57547891D03*
%TD*%
D13*
%TO.C,K_5*%
X134468949Y-34755006D03*
D12*
X139548949Y-34755006D03*
X129388949Y-34755006D03*
D14*
X137008949Y-29675006D03*
X130658949Y-32215006D03*
%TD*%
D13*
%TO.C,K_Q1*%
X62778198Y-55055766D03*
D12*
X67858198Y-55055766D03*
X57698198Y-55055766D03*
D14*
X65318198Y-49975766D03*
X58968198Y-52515766D03*
%TD*%
D11*
%TO.C,D_1*%
X53233144Y-40133000D03*
X53233144Y-38233000D03*
%TD*%
%TO.C,D_5*%
X134371949Y-39970006D03*
X134371949Y-38070006D03*
%TD*%
%TO.C,D_D1*%
X104221788Y-79732578D03*
X104221788Y-77832578D03*
%TD*%
D13*
%TO.C,K_W1*%
X83068376Y-55055766D03*
D12*
X88148376Y-55055766D03*
X77988376Y-55055766D03*
D14*
X85608376Y-49975766D03*
X79258376Y-52515766D03*
%TD*%
D13*
%TO.C,K_G1*%
X148685554Y-75377136D03*
D12*
X143605554Y-75377136D03*
X153765554Y-75377136D03*
D14*
X151225554Y-70297136D03*
X144875554Y-72837136D03*
%TD*%
D15*
%TO.C,D_Ctrl1*%
X38439665Y-120581049D03*
X36539665Y-120581049D03*
%TD*%
D11*
%TO.C,D_Tab1*%
X33932787Y-59261804D03*
X33932787Y-57361804D03*
%TD*%
%TO.C,D_T1*%
X139975689Y-59182052D03*
X139975689Y-57282052D03*
%TD*%
%TO.C,D_Shift1*%
X45095757Y-100849441D03*
X45095757Y-98949441D03*
%TD*%
D12*
%TO.C,K_Space1*%
X124339215Y-115790049D03*
D16*
X117519215Y-108790049D03*
X141319215Y-108790049D03*
D13*
X141319215Y-124030049D03*
X117519215Y-124030049D03*
X129419215Y-115790049D03*
D12*
X134499215Y-115790049D03*
D14*
X131959215Y-110710049D03*
X125609215Y-113250049D03*
%TD*%
D11*
%TO.C,D_C1*%
X117937509Y-101215304D03*
X117937509Y-99315304D03*
%TD*%
%TO.C,D_Q1*%
X58948172Y-59102301D03*
X58948172Y-57202301D03*
%TD*%
D13*
%TO.C,K_T1*%
X143771800Y-55055766D03*
D12*
X148851800Y-55055766D03*
X138691800Y-55055766D03*
D14*
X146311800Y-49975766D03*
X139961800Y-52515766D03*
%TD*%
D13*
%TO.C,K_R1*%
X123526755Y-55055766D03*
D12*
X128606755Y-55055766D03*
X118446755Y-55055766D03*
D14*
X126066755Y-49975766D03*
X119716755Y-52515766D03*
%TD*%
D13*
%TO.C,K_Ctrl1*%
X37759165Y-115790049D03*
D12*
X32679165Y-115790049D03*
X42839165Y-115790049D03*
D14*
X40299165Y-110710049D03*
X33949165Y-113250049D03*
%TD*%
D13*
%TO.C,K_Lin1*%
X62810929Y-115790049D03*
D12*
X57730929Y-115790049D03*
X67890929Y-115790049D03*
D14*
X65350929Y-110710049D03*
X59000929Y-113250049D03*
%TD*%
D12*
%TO.C,K_Caps-Lock1*%
X35038987Y-75379673D03*
X45198987Y-75379673D03*
D13*
X40118987Y-75379673D03*
D14*
X42658987Y-70299673D03*
X36308987Y-72839673D03*
%TD*%
D11*
%TO.C,D_X1*%
X93839574Y-99343838D03*
X93839574Y-97443838D03*
%TD*%
D13*
%TO.C,K_A1*%
X67474513Y-75379673D03*
D12*
X62394513Y-75379673D03*
X72554513Y-75379673D03*
D14*
X70014513Y-70299673D03*
X63664513Y-72839673D03*
%TD*%
D11*
%TO.C,D_6*%
X154831270Y-40090006D03*
X154831270Y-38190006D03*
%TD*%
D13*
%TO.C,K_Z1*%
X77176815Y-95612304D03*
D12*
X72096815Y-95612304D03*
X82256815Y-95612304D03*
D14*
X79716815Y-90532304D03*
X73366815Y-93072304D03*
%TD*%
D17*
%TO.C,USB_C1*%
X60487914Y-31353386D03*
X61337914Y-31353386D03*
X62187914Y-31353386D03*
X63037914Y-31353386D03*
X63887914Y-31353386D03*
X64737914Y-31353386D03*
X65587914Y-31353386D03*
X66437914Y-31353386D03*
X66437914Y-30003386D03*
X65587914Y-30003386D03*
X64737914Y-30003386D03*
X63887914Y-30003386D03*
X63037914Y-30003386D03*
X62187914Y-30003386D03*
X61337914Y-30003386D03*
X60487914Y-30003386D03*
D18*
X59137914Y-26993386D03*
X67787914Y-26993386D03*
D19*
X59137914Y-30373386D03*
X67787914Y-30373386D03*
%TD*%
M02*
