%TF.GenerationSoftware,KiCad,Pcbnew,6.0.2+dfsg-1*%
%TF.CreationDate,2023-05-02T18:44:16+02:00*%
%TF.ProjectId,keyboard2_ctrl,6b657962-6f61-4726-9432-5f6374726c2e,rev?*%
%TF.SameCoordinates,Original*%
%TF.FileFunction,Legend,Top*%
%TF.FilePolarity,Positive*%
%FSLAX46Y46*%
G04 Gerber Fmt 4.6, Leading zero omitted, Abs format (unit mm)*
G04 Created by KiCad (PCBNEW 6.0.2+dfsg-1) date 2023-05-02 18:44:16*
%MOMM*%
%LPD*%
G01*
G04 APERTURE LIST*
%ADD10C,0.150000*%
%ADD11C,0.120000*%
G04 APERTURE END LIST*
D10*
%TO.C,D_Alt1*%
X85587829Y-118949429D02*
X85587829Y-117949429D01*
X85825925Y-117949429D01*
X85968782Y-117997049D01*
X86064020Y-118092287D01*
X86111639Y-118187525D01*
X86159258Y-118378001D01*
X86159258Y-118520858D01*
X86111639Y-118711334D01*
X86064020Y-118806572D01*
X85968782Y-118901810D01*
X85825925Y-118949429D01*
X85587829Y-118949429D01*
X86349734Y-119044668D02*
X87111639Y-119044668D01*
X87302115Y-118663715D02*
X87778306Y-118663715D01*
X87206877Y-118949429D02*
X87540210Y-117949429D01*
X87873544Y-118949429D01*
X88349734Y-118949429D02*
X88254496Y-118901810D01*
X88206877Y-118806572D01*
X88206877Y-117949429D01*
X88587829Y-118282763D02*
X88968782Y-118282763D01*
X88730687Y-117949429D02*
X88730687Y-118806572D01*
X88778306Y-118901810D01*
X88873544Y-118949429D01*
X88968782Y-118949429D01*
X89825925Y-118949429D02*
X89254496Y-118949429D01*
X89540210Y-118949429D02*
X89540210Y-117949429D01*
X89444972Y-118092287D01*
X89349734Y-118187525D01*
X89254496Y-118235144D01*
%TO.C,D_Z1*%
X72067969Y-100818491D02*
X71067969Y-100818491D01*
X71067969Y-100580395D01*
X71115589Y-100437538D01*
X71210827Y-100342300D01*
X71306065Y-100294681D01*
X71496541Y-100247062D01*
X71639398Y-100247062D01*
X71829874Y-100294681D01*
X71925112Y-100342300D01*
X72020350Y-100437538D01*
X72067969Y-100580395D01*
X72067969Y-100818491D01*
X72163208Y-100056586D02*
X72163208Y-99294681D01*
X71067969Y-99151824D02*
X71067969Y-98485157D01*
X72067969Y-99151824D01*
X72067969Y-98485157D01*
X72067969Y-97580395D02*
X72067969Y-98151824D01*
X72067969Y-97866110D02*
X71067969Y-97866110D01*
X71210827Y-97961348D01*
X71306065Y-98056586D01*
X71353684Y-98151824D01*
%TO.C,K_E1*%
X101779444Y-47634146D02*
X101779444Y-46634146D01*
X102350873Y-47634146D02*
X101922301Y-47062718D01*
X102350873Y-46634146D02*
X101779444Y-47205575D01*
X102541349Y-47729385D02*
X103303253Y-47729385D01*
X103541349Y-47110337D02*
X103874682Y-47110337D01*
X104017539Y-47634146D02*
X103541349Y-47634146D01*
X103541349Y-46634146D01*
X104017539Y-46634146D01*
X104969920Y-47634146D02*
X104398492Y-47634146D01*
X104684206Y-47634146D02*
X104684206Y-46634146D01*
X104588968Y-46777004D01*
X104493730Y-46872242D01*
X104398492Y-46919861D01*
%TO.C,D_F1*%
X123224464Y-80310631D02*
X122224464Y-80310631D01*
X122224464Y-80072535D01*
X122272084Y-79929678D01*
X122367322Y-79834440D01*
X122462560Y-79786821D01*
X122653036Y-79739202D01*
X122795893Y-79739202D01*
X122986369Y-79786821D01*
X123081607Y-79834440D01*
X123176845Y-79929678D01*
X123224464Y-80072535D01*
X123224464Y-80310631D01*
X123319703Y-79548726D02*
X123319703Y-78786821D01*
X122700655Y-78215392D02*
X122700655Y-78548726D01*
X123224464Y-78548726D02*
X122224464Y-78548726D01*
X122224464Y-78072535D01*
X123224464Y-77167773D02*
X123224464Y-77739202D01*
X123224464Y-77453488D02*
X122224464Y-77453488D01*
X122367322Y-77548726D01*
X122462560Y-77643964D01*
X122510179Y-77739202D01*
%TO.C,K_S1*%
X86171443Y-67958053D02*
X86171443Y-66958053D01*
X86742872Y-67958053D02*
X86314301Y-67386625D01*
X86742872Y-66958053D02*
X86171443Y-67529482D01*
X86933348Y-68053292D02*
X87695253Y-68053292D01*
X87885729Y-67910434D02*
X88028586Y-67958053D01*
X88266682Y-67958053D01*
X88361920Y-67910434D01*
X88409539Y-67862815D01*
X88457158Y-67767577D01*
X88457158Y-67672339D01*
X88409539Y-67577101D01*
X88361920Y-67529482D01*
X88266682Y-67481863D01*
X88076205Y-67434244D01*
X87980967Y-67386625D01*
X87933348Y-67339006D01*
X87885729Y-67243768D01*
X87885729Y-67148530D01*
X87933348Y-67053292D01*
X87980967Y-67005673D01*
X88076205Y-66958053D01*
X88314301Y-66958053D01*
X88457158Y-67005673D01*
X89409539Y-67958053D02*
X88838110Y-67958053D01*
X89123824Y-67958053D02*
X89123824Y-66958053D01*
X89028586Y-67100911D01*
X88933348Y-67196149D01*
X88838110Y-67243768D01*
%TO.C,K_1*%
X52261096Y-27376380D02*
X52261096Y-26376380D01*
X52832524Y-27376380D02*
X52403953Y-26804952D01*
X52832524Y-26376380D02*
X52261096Y-26947809D01*
X53023001Y-27471619D02*
X53784905Y-27471619D01*
X54546810Y-27376380D02*
X53975382Y-27376380D01*
X54261096Y-27376380D02*
X54261096Y-26376380D01*
X54165858Y-26519238D01*
X54070620Y-26614476D01*
X53975382Y-26662095D01*
%TO.C,D_W1*%
X79067368Y-60188367D02*
X78067368Y-60188367D01*
X78067368Y-59950271D01*
X78114988Y-59807414D01*
X78210226Y-59712176D01*
X78305464Y-59664557D01*
X78495940Y-59616938D01*
X78638797Y-59616938D01*
X78829273Y-59664557D01*
X78924511Y-59712176D01*
X79019749Y-59807414D01*
X79067368Y-59950271D01*
X79067368Y-60188367D01*
X79162607Y-59426462D02*
X79162607Y-58664557D01*
X78067368Y-58521700D02*
X79067368Y-58283605D01*
X78353083Y-58093129D01*
X79067368Y-57902652D01*
X78067368Y-57664557D01*
X79067368Y-56759795D02*
X79067368Y-57331224D01*
X79067368Y-57045510D02*
X78067368Y-57045510D01*
X78210226Y-57140748D01*
X78305464Y-57235986D01*
X78353083Y-57331224D01*
%TO.C,D_esc1*%
X31607380Y-41685952D02*
X30607380Y-41685952D01*
X30607380Y-41447857D01*
X30655000Y-41305000D01*
X30750238Y-41209761D01*
X30845476Y-41162142D01*
X31035952Y-41114523D01*
X31178809Y-41114523D01*
X31369285Y-41162142D01*
X31464523Y-41209761D01*
X31559761Y-41305000D01*
X31607380Y-41447857D01*
X31607380Y-41685952D01*
X31702619Y-40924047D02*
X31702619Y-40162142D01*
X31559761Y-39543095D02*
X31607380Y-39638333D01*
X31607380Y-39828809D01*
X31559761Y-39924047D01*
X31464523Y-39971666D01*
X31083571Y-39971666D01*
X30988333Y-39924047D01*
X30940714Y-39828809D01*
X30940714Y-39638333D01*
X30988333Y-39543095D01*
X31083571Y-39495476D01*
X31178809Y-39495476D01*
X31274047Y-39971666D01*
X31559761Y-39114523D02*
X31607380Y-39019285D01*
X31607380Y-38828809D01*
X31559761Y-38733571D01*
X31464523Y-38685952D01*
X31416904Y-38685952D01*
X31321666Y-38733571D01*
X31274047Y-38828809D01*
X31274047Y-38971666D01*
X31226428Y-39066904D01*
X31131190Y-39114523D01*
X31083571Y-39114523D01*
X30988333Y-39066904D01*
X30940714Y-38971666D01*
X30940714Y-38828809D01*
X30988333Y-38733571D01*
X31559761Y-37828809D02*
X31607380Y-37924047D01*
X31607380Y-38114523D01*
X31559761Y-38209761D01*
X31512142Y-38257380D01*
X31416904Y-38305000D01*
X31131190Y-38305000D01*
X31035952Y-38257380D01*
X30988333Y-38209761D01*
X30940714Y-38114523D01*
X30940714Y-37924047D01*
X30988333Y-37828809D01*
X31607380Y-36876428D02*
X31607380Y-37447857D01*
X31607380Y-37162142D02*
X30607380Y-37162142D01*
X30750238Y-37257380D01*
X30845476Y-37352619D01*
X30893095Y-37447857D01*
%TO.C,D_A1*%
X62506993Y-80656221D02*
X61506993Y-80656221D01*
X61506993Y-80418125D01*
X61554613Y-80275268D01*
X61649851Y-80180030D01*
X61745089Y-80132411D01*
X61935565Y-80084792D01*
X62078422Y-80084792D01*
X62268898Y-80132411D01*
X62364136Y-80180030D01*
X62459374Y-80275268D01*
X62506993Y-80418125D01*
X62506993Y-80656221D01*
X62602232Y-79894316D02*
X62602232Y-79132411D01*
X62221279Y-78941935D02*
X62221279Y-78465744D01*
X62506993Y-79037173D02*
X61506993Y-78703840D01*
X62506993Y-78370506D01*
X62506993Y-77513363D02*
X62506993Y-78084792D01*
X62506993Y-77799078D02*
X61506993Y-77799078D01*
X61649851Y-77894316D01*
X61745089Y-77989554D01*
X61792708Y-78084792D01*
%TO.C,D_G1*%
X144039603Y-80355476D02*
X143039603Y-80355476D01*
X143039603Y-80117381D01*
X143087223Y-79974524D01*
X143182461Y-79879286D01*
X143277699Y-79831667D01*
X143468175Y-79784048D01*
X143611032Y-79784048D01*
X143801508Y-79831667D01*
X143896746Y-79879286D01*
X143991984Y-79974524D01*
X144039603Y-80117381D01*
X144039603Y-80355476D01*
X144134842Y-79593571D02*
X144134842Y-78831667D01*
X143087223Y-78069762D02*
X143039603Y-78165000D01*
X143039603Y-78307857D01*
X143087223Y-78450714D01*
X143182461Y-78545952D01*
X143277699Y-78593571D01*
X143468175Y-78641190D01*
X143611032Y-78641190D01*
X143801508Y-78593571D01*
X143896746Y-78545952D01*
X143991984Y-78450714D01*
X144039603Y-78307857D01*
X144039603Y-78212619D01*
X143991984Y-78069762D01*
X143944365Y-78022143D01*
X143611032Y-78022143D01*
X143611032Y-78212619D01*
X144039603Y-77069762D02*
X144039603Y-77641190D01*
X144039603Y-77355476D02*
X143039603Y-77355476D01*
X143182461Y-77450714D01*
X143277699Y-77545952D01*
X143325318Y-77641190D01*
%TO.C,D_2*%
X72311380Y-40304047D02*
X71311380Y-40304047D01*
X71311380Y-40065952D01*
X71359000Y-39923095D01*
X71454238Y-39827857D01*
X71549476Y-39780238D01*
X71739952Y-39732619D01*
X71882809Y-39732619D01*
X72073285Y-39780238D01*
X72168523Y-39827857D01*
X72263761Y-39923095D01*
X72311380Y-40065952D01*
X72311380Y-40304047D01*
X72406619Y-39542142D02*
X72406619Y-38780238D01*
X71406619Y-38589761D02*
X71359000Y-38542142D01*
X71311380Y-38446904D01*
X71311380Y-38208809D01*
X71359000Y-38113571D01*
X71406619Y-38065952D01*
X71501857Y-38018333D01*
X71597095Y-38018333D01*
X71739952Y-38065952D01*
X72311380Y-38637380D01*
X72311380Y-38018333D01*
%TO.C,K_V1*%
X136594956Y-88190684D02*
X136594956Y-87190684D01*
X137166385Y-88190684D02*
X136737814Y-87619256D01*
X137166385Y-87190684D02*
X136594956Y-87762113D01*
X137356861Y-88285923D02*
X138118766Y-88285923D01*
X138214004Y-87190684D02*
X138547337Y-88190684D01*
X138880671Y-87190684D01*
X139737814Y-88190684D02*
X139166385Y-88190684D01*
X139452099Y-88190684D02*
X139452099Y-87190684D01*
X139356861Y-87333542D01*
X139261623Y-87428780D01*
X139166385Y-87476399D01*
%TO.C,K_Alt1*%
X85643329Y-108368429D02*
X85643329Y-107368429D01*
X86214758Y-108368429D02*
X85786187Y-107797001D01*
X86214758Y-107368429D02*
X85643329Y-107939858D01*
X86405234Y-108463668D02*
X87167139Y-108463668D01*
X87357615Y-108082715D02*
X87833806Y-108082715D01*
X87262377Y-108368429D02*
X87595710Y-107368429D01*
X87929044Y-108368429D01*
X88405234Y-108368429D02*
X88309996Y-108320810D01*
X88262377Y-108225572D01*
X88262377Y-107368429D01*
X88643329Y-107701763D02*
X89024282Y-107701763D01*
X88786187Y-107368429D02*
X88786187Y-108225572D01*
X88833806Y-108320810D01*
X88929044Y-108368429D01*
X89024282Y-108368429D01*
X89881425Y-108368429D02*
X89309996Y-108368429D01*
X89595710Y-108368429D02*
X89595710Y-107368429D01*
X89500472Y-107511287D01*
X89405234Y-107606525D01*
X89309996Y-107654144D01*
%TO.C,D_B1*%
X153768642Y-101132127D02*
X152768642Y-101132127D01*
X152768642Y-100894032D01*
X152816262Y-100751175D01*
X152911500Y-100655937D01*
X153006738Y-100608318D01*
X153197214Y-100560699D01*
X153340071Y-100560699D01*
X153530547Y-100608318D01*
X153625785Y-100655937D01*
X153721023Y-100751175D01*
X153768642Y-100894032D01*
X153768642Y-101132127D01*
X153863881Y-100370222D02*
X153863881Y-99608318D01*
X153244833Y-99036889D02*
X153292452Y-98894032D01*
X153340071Y-98846413D01*
X153435309Y-98798794D01*
X153578166Y-98798794D01*
X153673404Y-98846413D01*
X153721023Y-98894032D01*
X153768642Y-98989270D01*
X153768642Y-99370222D01*
X152768642Y-99370222D01*
X152768642Y-99036889D01*
X152816262Y-98941651D01*
X152863881Y-98894032D01*
X152959119Y-98846413D01*
X153054357Y-98846413D01*
X153149595Y-98894032D01*
X153197214Y-98941651D01*
X153244833Y-99036889D01*
X153244833Y-99370222D01*
X153768642Y-97846413D02*
X153768642Y-98417841D01*
X153768642Y-98132127D02*
X152768642Y-98132127D01*
X152911500Y-98227365D01*
X153006738Y-98322603D01*
X153054357Y-98417841D01*
%TO.C,K_C1*%
X116147461Y-88190684D02*
X116147461Y-87190684D01*
X116718889Y-88190684D02*
X116290318Y-87619256D01*
X116718889Y-87190684D02*
X116147461Y-87762113D01*
X116909366Y-88285923D02*
X117671270Y-88285923D01*
X118480794Y-88095446D02*
X118433175Y-88143065D01*
X118290318Y-88190684D01*
X118195080Y-88190684D01*
X118052223Y-88143065D01*
X117956985Y-88047827D01*
X117909366Y-87952589D01*
X117861747Y-87762113D01*
X117861747Y-87619256D01*
X117909366Y-87428780D01*
X117956985Y-87333542D01*
X118052223Y-87238304D01*
X118195080Y-87190684D01*
X118290318Y-87190684D01*
X118433175Y-87238304D01*
X118480794Y-87285923D01*
X119433175Y-88190684D02*
X118861747Y-88190684D01*
X119147461Y-88190684D02*
X119147461Y-87190684D01*
X119052223Y-87333542D01*
X118956985Y-87428780D01*
X118861747Y-87476399D01*
%TO.C,D_V1*%
X133141950Y-101164763D02*
X132141950Y-101164763D01*
X132141950Y-100926667D01*
X132189570Y-100783810D01*
X132284808Y-100688572D01*
X132380046Y-100640953D01*
X132570522Y-100593334D01*
X132713379Y-100593334D01*
X132903855Y-100640953D01*
X132999093Y-100688572D01*
X133094331Y-100783810D01*
X133141950Y-100926667D01*
X133141950Y-101164763D01*
X133237189Y-100402858D02*
X133237189Y-99640953D01*
X132141950Y-99545715D02*
X133141950Y-99212382D01*
X132141950Y-98879048D01*
X133141950Y-98021905D02*
X133141950Y-98593334D01*
X133141950Y-98307620D02*
X132141950Y-98307620D01*
X132284808Y-98402858D01*
X132380046Y-98498096D01*
X132427665Y-98593334D01*
%TO.C,K_3*%
X92860952Y-27376380D02*
X92860952Y-26376380D01*
X93432380Y-27376380D02*
X93003809Y-26804952D01*
X93432380Y-26376380D02*
X92860952Y-26947809D01*
X93622857Y-27471619D02*
X94384761Y-27471619D01*
X94527619Y-26376380D02*
X95146666Y-26376380D01*
X94813333Y-26757333D01*
X94956190Y-26757333D01*
X95051428Y-26804952D01*
X95099047Y-26852571D01*
X95146666Y-26947809D01*
X95146666Y-27185904D01*
X95099047Y-27281142D01*
X95051428Y-27328761D01*
X94956190Y-27376380D01*
X94670476Y-27376380D01*
X94575238Y-27328761D01*
X94527619Y-27281142D01*
%TO.C,K_2*%
X72540952Y-27376380D02*
X72540952Y-26376380D01*
X73112380Y-27376380D02*
X72683809Y-26804952D01*
X73112380Y-26376380D02*
X72540952Y-26947809D01*
X73302857Y-27471619D02*
X74064761Y-27471619D01*
X74255238Y-26471619D02*
X74302857Y-26424000D01*
X74398095Y-26376380D01*
X74636190Y-26376380D01*
X74731428Y-26424000D01*
X74779047Y-26471619D01*
X74826666Y-26566857D01*
X74826666Y-26662095D01*
X74779047Y-26804952D01*
X74207619Y-27376380D01*
X74826666Y-27376380D01*
%TO.C,K_Tab1*%
X35354403Y-47629863D02*
X35354403Y-46629863D01*
X35925831Y-47629863D02*
X35497260Y-47058435D01*
X35925831Y-46629863D02*
X35354403Y-47201292D01*
X36116307Y-47725102D02*
X36878212Y-47725102D01*
X36973450Y-46629863D02*
X37544879Y-46629863D01*
X37259165Y-47629863D02*
X37259165Y-46629863D01*
X38306784Y-47629863D02*
X38306784Y-47106054D01*
X38259165Y-47010816D01*
X38163926Y-46963197D01*
X37973450Y-46963197D01*
X37878212Y-47010816D01*
X38306784Y-47582244D02*
X38211545Y-47629863D01*
X37973450Y-47629863D01*
X37878212Y-47582244D01*
X37830593Y-47487006D01*
X37830593Y-47391768D01*
X37878212Y-47296530D01*
X37973450Y-47248911D01*
X38211545Y-47248911D01*
X38306784Y-47201292D01*
X38782974Y-47629863D02*
X38782974Y-46629863D01*
X38782974Y-47010816D02*
X38878212Y-46963197D01*
X39068688Y-46963197D01*
X39163926Y-47010816D01*
X39211545Y-47058435D01*
X39259165Y-47153673D01*
X39259165Y-47439387D01*
X39211545Y-47534625D01*
X39163926Y-47582244D01*
X39068688Y-47629863D01*
X38878212Y-47629863D01*
X38782974Y-47582244D01*
X40211545Y-47629863D02*
X39640117Y-47629863D01*
X39925831Y-47629863D02*
X39925831Y-46629863D01*
X39830593Y-46772721D01*
X39735355Y-46867959D01*
X39640117Y-46915578D01*
%TO.C,K_6*%
X153791222Y-27333386D02*
X153791222Y-26333386D01*
X154362650Y-27333386D02*
X153934079Y-26761958D01*
X154362650Y-26333386D02*
X153791222Y-26904815D01*
X154553127Y-27428625D02*
X155315031Y-27428625D01*
X155981698Y-26333386D02*
X155791222Y-26333386D01*
X155695984Y-26381006D01*
X155648365Y-26428625D01*
X155553127Y-26571482D01*
X155505508Y-26761958D01*
X155505508Y-27142910D01*
X155553127Y-27238148D01*
X155600746Y-27285767D01*
X155695984Y-27333386D01*
X155886460Y-27333386D01*
X155981698Y-27285767D01*
X156029317Y-27238148D01*
X156076936Y-27142910D01*
X156076936Y-26904815D01*
X156029317Y-26809577D01*
X155981698Y-26761958D01*
X155886460Y-26714339D01*
X155695984Y-26714339D01*
X155600746Y-26761958D01*
X155553127Y-26809577D01*
X155505508Y-26904815D01*
%TO.C,K_D1*%
X106428812Y-67955516D02*
X106428812Y-66955516D01*
X107000240Y-67955516D02*
X106571669Y-67384088D01*
X107000240Y-66955516D02*
X106428812Y-67526945D01*
X107190717Y-68050755D02*
X107952621Y-68050755D01*
X108190717Y-67955516D02*
X108190717Y-66955516D01*
X108428812Y-66955516D01*
X108571669Y-67003136D01*
X108666907Y-67098374D01*
X108714526Y-67193612D01*
X108762145Y-67384088D01*
X108762145Y-67526945D01*
X108714526Y-67717421D01*
X108666907Y-67812659D01*
X108571669Y-67907897D01*
X108428812Y-67955516D01*
X108190717Y-67955516D01*
X109714526Y-67955516D02*
X109143098Y-67955516D01*
X109428812Y-67955516D02*
X109428812Y-66955516D01*
X109333574Y-67098374D01*
X109238336Y-67193612D01*
X109143098Y-67241231D01*
%TO.C,D_Space1*%
X126165101Y-121949486D02*
X126165101Y-120949486D01*
X126403196Y-120949486D01*
X126546053Y-120997106D01*
X126641291Y-121092344D01*
X126688910Y-121187582D01*
X126736529Y-121378058D01*
X126736529Y-121520915D01*
X126688910Y-121711391D01*
X126641291Y-121806629D01*
X126546053Y-121901867D01*
X126403196Y-121949486D01*
X126165101Y-121949486D01*
X126927005Y-122044725D02*
X127688910Y-122044725D01*
X127879386Y-121901867D02*
X128022244Y-121949486D01*
X128260339Y-121949486D01*
X128355577Y-121901867D01*
X128403196Y-121854248D01*
X128450815Y-121759010D01*
X128450815Y-121663772D01*
X128403196Y-121568534D01*
X128355577Y-121520915D01*
X128260339Y-121473296D01*
X128069863Y-121425677D01*
X127974624Y-121378058D01*
X127927005Y-121330439D01*
X127879386Y-121235201D01*
X127879386Y-121139963D01*
X127927005Y-121044725D01*
X127974624Y-120997106D01*
X128069863Y-120949486D01*
X128307958Y-120949486D01*
X128450815Y-120997106D01*
X128879386Y-121282820D02*
X128879386Y-122282820D01*
X128879386Y-121330439D02*
X128974624Y-121282820D01*
X129165101Y-121282820D01*
X129260339Y-121330439D01*
X129307958Y-121378058D01*
X129355577Y-121473296D01*
X129355577Y-121759010D01*
X129307958Y-121854248D01*
X129260339Y-121901867D01*
X129165101Y-121949486D01*
X128974624Y-121949486D01*
X128879386Y-121901867D01*
X130212720Y-121949486D02*
X130212720Y-121425677D01*
X130165101Y-121330439D01*
X130069863Y-121282820D01*
X129879386Y-121282820D01*
X129784148Y-121330439D01*
X130212720Y-121901867D02*
X130117482Y-121949486D01*
X129879386Y-121949486D01*
X129784148Y-121901867D01*
X129736529Y-121806629D01*
X129736529Y-121711391D01*
X129784148Y-121616153D01*
X129879386Y-121568534D01*
X130117482Y-121568534D01*
X130212720Y-121520915D01*
X131117482Y-121901867D02*
X131022244Y-121949486D01*
X130831767Y-121949486D01*
X130736529Y-121901867D01*
X130688910Y-121854248D01*
X130641291Y-121759010D01*
X130641291Y-121473296D01*
X130688910Y-121378058D01*
X130736529Y-121330439D01*
X130831767Y-121282820D01*
X131022244Y-121282820D01*
X131117482Y-121330439D01*
X131927005Y-121901867D02*
X131831767Y-121949486D01*
X131641291Y-121949486D01*
X131546053Y-121901867D01*
X131498434Y-121806629D01*
X131498434Y-121425677D01*
X131546053Y-121330439D01*
X131641291Y-121282820D01*
X131831767Y-121282820D01*
X131927005Y-121330439D01*
X131974624Y-121425677D01*
X131974624Y-121520915D01*
X131498434Y-121616153D01*
X132927005Y-121949486D02*
X132355577Y-121949486D01*
X132641291Y-121949486D02*
X132641291Y-120949486D01*
X132546053Y-121092344D01*
X132450815Y-121187582D01*
X132355577Y-121235201D01*
%TO.C,K_4*%
X113170268Y-27346869D02*
X113170268Y-26346869D01*
X113741696Y-27346869D02*
X113313125Y-26775441D01*
X113741696Y-26346869D02*
X113170268Y-26918298D01*
X113932173Y-27442108D02*
X114694077Y-27442108D01*
X115360744Y-26680203D02*
X115360744Y-27346869D01*
X115122649Y-26299250D02*
X114884554Y-27013536D01*
X115503601Y-27013536D01*
%TO.C,K_F1*%
X126838840Y-67955516D02*
X126838840Y-66955516D01*
X127410269Y-67955516D02*
X126981698Y-67384088D01*
X127410269Y-66955516D02*
X126838840Y-67526945D01*
X127600745Y-68050755D02*
X128362650Y-68050755D01*
X128934079Y-67431707D02*
X128600745Y-67431707D01*
X128600745Y-67955516D02*
X128600745Y-66955516D01*
X129076936Y-66955516D01*
X129981698Y-67955516D02*
X129410269Y-67955516D01*
X129695983Y-67955516D02*
X129695983Y-66955516D01*
X129600745Y-67098374D01*
X129505507Y-67193612D01*
X129410269Y-67241231D01*
%TO.C,K_X1*%
X95898693Y-88190684D02*
X95898693Y-87190684D01*
X96470122Y-88190684D02*
X96041551Y-87619256D01*
X96470122Y-87190684D02*
X95898693Y-87762113D01*
X96660598Y-88285923D02*
X97422503Y-88285923D01*
X97565360Y-87190684D02*
X98232027Y-88190684D01*
X98232027Y-87190684D02*
X97565360Y-88190684D01*
X99136789Y-88190684D02*
X98565360Y-88190684D01*
X98851074Y-88190684D02*
X98851074Y-87190684D01*
X98755836Y-87333542D01*
X98660598Y-87428780D01*
X98565360Y-87476399D01*
%TO.C,D_R1*%
X118384854Y-60090354D02*
X117384854Y-60090354D01*
X117384854Y-59852259D01*
X117432474Y-59709402D01*
X117527712Y-59614164D01*
X117622950Y-59566545D01*
X117813426Y-59518926D01*
X117956283Y-59518926D01*
X118146759Y-59566545D01*
X118241997Y-59614164D01*
X118337235Y-59709402D01*
X118384854Y-59852259D01*
X118384854Y-60090354D01*
X118480093Y-59328449D02*
X118480093Y-58566545D01*
X118384854Y-57757021D02*
X117908664Y-58090354D01*
X118384854Y-58328449D02*
X117384854Y-58328449D01*
X117384854Y-57947497D01*
X117432474Y-57852259D01*
X117480093Y-57804640D01*
X117575331Y-57757021D01*
X117718188Y-57757021D01*
X117813426Y-57804640D01*
X117861045Y-57852259D01*
X117908664Y-57947497D01*
X117908664Y-58328449D01*
X118384854Y-56804640D02*
X118384854Y-57376068D01*
X118384854Y-57090354D02*
X117384854Y-57090354D01*
X117527712Y-57185592D01*
X117622950Y-57280830D01*
X117670569Y-57376068D01*
%TO.C,D_S1*%
X82763873Y-80590487D02*
X81763873Y-80590487D01*
X81763873Y-80352391D01*
X81811493Y-80209534D01*
X81906731Y-80114296D01*
X82001969Y-80066677D01*
X82192445Y-80019058D01*
X82335302Y-80019058D01*
X82525778Y-80066677D01*
X82621016Y-80114296D01*
X82716254Y-80209534D01*
X82763873Y-80352391D01*
X82763873Y-80590487D01*
X82859112Y-79828582D02*
X82859112Y-79066677D01*
X82716254Y-78876201D02*
X82763873Y-78733344D01*
X82763873Y-78495249D01*
X82716254Y-78400010D01*
X82668635Y-78352391D01*
X82573397Y-78304772D01*
X82478159Y-78304772D01*
X82382921Y-78352391D01*
X82335302Y-78400010D01*
X82287683Y-78495249D01*
X82240064Y-78685725D01*
X82192445Y-78780963D01*
X82144826Y-78828582D01*
X82049588Y-78876201D01*
X81954350Y-78876201D01*
X81859112Y-78828582D01*
X81811493Y-78780963D01*
X81763873Y-78685725D01*
X81763873Y-78447629D01*
X81811493Y-78304772D01*
X82763873Y-77352391D02*
X82763873Y-77923820D01*
X82763873Y-77638106D02*
X81763873Y-77638106D01*
X81906731Y-77733344D01*
X82001969Y-77828582D01*
X82049588Y-77923820D01*
%TO.C,K_Esc1*%
X30615238Y-27376380D02*
X30615238Y-26376380D01*
X31186666Y-27376380D02*
X30758095Y-26804952D01*
X31186666Y-26376380D02*
X30615238Y-26947809D01*
X31377142Y-27471619D02*
X32139047Y-27471619D01*
X32377142Y-26852571D02*
X32710476Y-26852571D01*
X32853333Y-27376380D02*
X32377142Y-27376380D01*
X32377142Y-26376380D01*
X32853333Y-26376380D01*
X33234285Y-27328761D02*
X33329523Y-27376380D01*
X33520000Y-27376380D01*
X33615238Y-27328761D01*
X33662857Y-27233523D01*
X33662857Y-27185904D01*
X33615238Y-27090666D01*
X33520000Y-27043047D01*
X33377142Y-27043047D01*
X33281904Y-26995428D01*
X33234285Y-26900190D01*
X33234285Y-26852571D01*
X33281904Y-26757333D01*
X33377142Y-26709714D01*
X33520000Y-26709714D01*
X33615238Y-26757333D01*
X34520000Y-27328761D02*
X34424761Y-27376380D01*
X34234285Y-27376380D01*
X34139047Y-27328761D01*
X34091428Y-27281142D01*
X34043809Y-27185904D01*
X34043809Y-26900190D01*
X34091428Y-26804952D01*
X34139047Y-26757333D01*
X34234285Y-26709714D01*
X34424761Y-26709714D01*
X34520000Y-26757333D01*
X35472380Y-27376380D02*
X34900952Y-27376380D01*
X35186666Y-27376380D02*
X35186666Y-26376380D01*
X35091428Y-26519238D01*
X34996190Y-26614476D01*
X34900952Y-26662095D01*
%TO.C,K_Shift1*%
X41938619Y-88176400D02*
X41938619Y-87176400D01*
X42510047Y-88176400D02*
X42081476Y-87604972D01*
X42510047Y-87176400D02*
X41938619Y-87747829D01*
X42700523Y-88271639D02*
X43462428Y-88271639D01*
X43652904Y-88128781D02*
X43795762Y-88176400D01*
X44033857Y-88176400D01*
X44129095Y-88128781D01*
X44176714Y-88081162D01*
X44224333Y-87985924D01*
X44224333Y-87890686D01*
X44176714Y-87795448D01*
X44129095Y-87747829D01*
X44033857Y-87700210D01*
X43843381Y-87652591D01*
X43748142Y-87604972D01*
X43700523Y-87557353D01*
X43652904Y-87462115D01*
X43652904Y-87366877D01*
X43700523Y-87271639D01*
X43748142Y-87224020D01*
X43843381Y-87176400D01*
X44081476Y-87176400D01*
X44224333Y-87224020D01*
X44652904Y-88176400D02*
X44652904Y-87176400D01*
X45081476Y-88176400D02*
X45081476Y-87652591D01*
X45033857Y-87557353D01*
X44938619Y-87509734D01*
X44795762Y-87509734D01*
X44700523Y-87557353D01*
X44652904Y-87604972D01*
X45557666Y-88176400D02*
X45557666Y-87509734D01*
X45557666Y-87176400D02*
X45510047Y-87224020D01*
X45557666Y-87271639D01*
X45605285Y-87224020D01*
X45557666Y-87176400D01*
X45557666Y-87271639D01*
X45891000Y-87509734D02*
X46271952Y-87509734D01*
X46033857Y-88176400D02*
X46033857Y-87319258D01*
X46081476Y-87224020D01*
X46176714Y-87176400D01*
X46271952Y-87176400D01*
X46462428Y-87509734D02*
X46843381Y-87509734D01*
X46605285Y-87176400D02*
X46605285Y-88033543D01*
X46652904Y-88128781D01*
X46748142Y-88176400D01*
X46843381Y-88176400D01*
X47700523Y-88176400D02*
X47129095Y-88176400D01*
X47414809Y-88176400D02*
X47414809Y-87176400D01*
X47319571Y-87319258D01*
X47224333Y-87414496D01*
X47129095Y-87462115D01*
%TO.C,K_B1*%
X156779605Y-88190684D02*
X156779605Y-87190684D01*
X157351033Y-88190684D02*
X156922462Y-87619256D01*
X157351033Y-87190684D02*
X156779605Y-87762113D01*
X157541510Y-88285923D02*
X158303414Y-88285923D01*
X158874843Y-87666875D02*
X159017700Y-87714494D01*
X159065319Y-87762113D01*
X159112938Y-87857351D01*
X159112938Y-88000208D01*
X159065319Y-88095446D01*
X159017700Y-88143065D01*
X158922462Y-88190684D01*
X158541510Y-88190684D01*
X158541510Y-87190684D01*
X158874843Y-87190684D01*
X158970081Y-87238304D01*
X159017700Y-87285923D01*
X159065319Y-87381161D01*
X159065319Y-87476399D01*
X159017700Y-87571637D01*
X158970081Y-87619256D01*
X158874843Y-87666875D01*
X158541510Y-87666875D01*
X160065319Y-88190684D02*
X159493891Y-88190684D01*
X159779605Y-88190684D02*
X159779605Y-87190684D01*
X159684367Y-87333542D01*
X159589129Y-87428780D01*
X159493891Y-87476399D01*
%TO.C,D_4*%
X113098696Y-40152536D02*
X112098696Y-40152536D01*
X112098696Y-39914441D01*
X112146316Y-39771584D01*
X112241554Y-39676346D01*
X112336792Y-39628727D01*
X112527268Y-39581108D01*
X112670125Y-39581108D01*
X112860601Y-39628727D01*
X112955839Y-39676346D01*
X113051077Y-39771584D01*
X113098696Y-39914441D01*
X113098696Y-40152536D01*
X113193935Y-39390631D02*
X113193935Y-38628727D01*
X112432030Y-37962060D02*
X113098696Y-37962060D01*
X112051077Y-38200155D02*
X112765363Y-38438250D01*
X112765363Y-37819203D01*
%TO.C,D_Caps1*%
X35045896Y-82030155D02*
X34045896Y-82030155D01*
X34045896Y-81792060D01*
X34093516Y-81649203D01*
X34188754Y-81553964D01*
X34283992Y-81506345D01*
X34474468Y-81458726D01*
X34617325Y-81458726D01*
X34807801Y-81506345D01*
X34903039Y-81553964D01*
X34998277Y-81649203D01*
X35045896Y-81792060D01*
X35045896Y-82030155D01*
X35141135Y-81268250D02*
X35141135Y-80506345D01*
X34950658Y-79696822D02*
X34998277Y-79744441D01*
X35045896Y-79887298D01*
X35045896Y-79982536D01*
X34998277Y-80125393D01*
X34903039Y-80220631D01*
X34807801Y-80268250D01*
X34617325Y-80315869D01*
X34474468Y-80315869D01*
X34283992Y-80268250D01*
X34188754Y-80220631D01*
X34093516Y-80125393D01*
X34045896Y-79982536D01*
X34045896Y-79887298D01*
X34093516Y-79744441D01*
X34141135Y-79696822D01*
X35045896Y-78839679D02*
X34522087Y-78839679D01*
X34426849Y-78887298D01*
X34379230Y-78982536D01*
X34379230Y-79173012D01*
X34426849Y-79268250D01*
X34998277Y-78839679D02*
X35045896Y-78934917D01*
X35045896Y-79173012D01*
X34998277Y-79268250D01*
X34903039Y-79315869D01*
X34807801Y-79315869D01*
X34712563Y-79268250D01*
X34664944Y-79173012D01*
X34664944Y-78934917D01*
X34617325Y-78839679D01*
X34379230Y-78363488D02*
X35379230Y-78363488D01*
X34426849Y-78363488D02*
X34379230Y-78268250D01*
X34379230Y-78077774D01*
X34426849Y-77982536D01*
X34474468Y-77934917D01*
X34569706Y-77887298D01*
X34855420Y-77887298D01*
X34950658Y-77934917D01*
X34998277Y-77982536D01*
X35045896Y-78077774D01*
X35045896Y-78268250D01*
X34998277Y-78363488D01*
X34998277Y-77506345D02*
X35045896Y-77411107D01*
X35045896Y-77220631D01*
X34998277Y-77125393D01*
X34903039Y-77077774D01*
X34855420Y-77077774D01*
X34760182Y-77125393D01*
X34712563Y-77220631D01*
X34712563Y-77363488D01*
X34664944Y-77458726D01*
X34569706Y-77506345D01*
X34522087Y-77506345D01*
X34426849Y-77458726D01*
X34379230Y-77363488D01*
X34379230Y-77220631D01*
X34426849Y-77125393D01*
X35045896Y-76125393D02*
X35045896Y-76696822D01*
X35045896Y-76411107D02*
X34045896Y-76411107D01*
X34188754Y-76506345D01*
X34283992Y-76601584D01*
X34331611Y-76696822D01*
%TO.C,D_3*%
X92727380Y-40676047D02*
X91727380Y-40676047D01*
X91727380Y-40437952D01*
X91775000Y-40295095D01*
X91870238Y-40199857D01*
X91965476Y-40152238D01*
X92155952Y-40104619D01*
X92298809Y-40104619D01*
X92489285Y-40152238D01*
X92584523Y-40199857D01*
X92679761Y-40295095D01*
X92727380Y-40437952D01*
X92727380Y-40676047D01*
X92822619Y-39914142D02*
X92822619Y-39152238D01*
X91727380Y-39009380D02*
X91727380Y-38390333D01*
X92108333Y-38723666D01*
X92108333Y-38580809D01*
X92155952Y-38485571D01*
X92203571Y-38437952D01*
X92298809Y-38390333D01*
X92536904Y-38390333D01*
X92632142Y-38437952D01*
X92679761Y-38485571D01*
X92727380Y-38580809D01*
X92727380Y-38866523D01*
X92679761Y-38961761D01*
X92632142Y-39009380D01*
%TO.C,D_Lin1*%
X60261643Y-122803429D02*
X60261643Y-121803429D01*
X60499738Y-121803429D01*
X60642595Y-121851049D01*
X60737833Y-121946287D01*
X60785452Y-122041525D01*
X60833071Y-122232001D01*
X60833071Y-122374858D01*
X60785452Y-122565334D01*
X60737833Y-122660572D01*
X60642595Y-122755810D01*
X60499738Y-122803429D01*
X60261643Y-122803429D01*
X61023548Y-122898668D02*
X61785452Y-122898668D01*
X62499738Y-122803429D02*
X62023548Y-122803429D01*
X62023548Y-121803429D01*
X62833071Y-122803429D02*
X62833071Y-122136763D01*
X62833071Y-121803429D02*
X62785452Y-121851049D01*
X62833071Y-121898668D01*
X62880690Y-121851049D01*
X62833071Y-121803429D01*
X62833071Y-121898668D01*
X63309262Y-122136763D02*
X63309262Y-122803429D01*
X63309262Y-122232001D02*
X63356881Y-122184382D01*
X63452119Y-122136763D01*
X63594976Y-122136763D01*
X63690214Y-122184382D01*
X63737833Y-122279620D01*
X63737833Y-122803429D01*
X64737833Y-122803429D02*
X64166405Y-122803429D01*
X64452119Y-122803429D02*
X64452119Y-121803429D01*
X64356881Y-121946287D01*
X64261643Y-122041525D01*
X64166405Y-122089144D01*
%TO.C,D_E1*%
X98287478Y-60069319D02*
X97287478Y-60069319D01*
X97287478Y-59831224D01*
X97335098Y-59688367D01*
X97430336Y-59593129D01*
X97525574Y-59545510D01*
X97716050Y-59497891D01*
X97858907Y-59497891D01*
X98049383Y-59545510D01*
X98144621Y-59593129D01*
X98239859Y-59688367D01*
X98287478Y-59831224D01*
X98287478Y-60069319D01*
X98382717Y-59307414D02*
X98382717Y-58545510D01*
X97763669Y-58307414D02*
X97763669Y-57974081D01*
X98287478Y-57831224D02*
X98287478Y-58307414D01*
X97287478Y-58307414D01*
X97287478Y-57831224D01*
X98287478Y-56878843D02*
X98287478Y-57450271D01*
X98287478Y-57164557D02*
X97287478Y-57164557D01*
X97430336Y-57259795D01*
X97525574Y-57355033D01*
X97573193Y-57450271D01*
%TO.C,K_5*%
X133349901Y-27333386D02*
X133349901Y-26333386D01*
X133921329Y-27333386D02*
X133492758Y-26761958D01*
X133921329Y-26333386D02*
X133349901Y-26904815D01*
X134111806Y-27428625D02*
X134873710Y-27428625D01*
X135587996Y-26333386D02*
X135111806Y-26333386D01*
X135064187Y-26809577D01*
X135111806Y-26761958D01*
X135207044Y-26714339D01*
X135445139Y-26714339D01*
X135540377Y-26761958D01*
X135587996Y-26809577D01*
X135635615Y-26904815D01*
X135635615Y-27142910D01*
X135587996Y-27238148D01*
X135540377Y-27285767D01*
X135445139Y-27333386D01*
X135207044Y-27333386D01*
X135111806Y-27285767D01*
X135064187Y-27238148D01*
%TO.C,K_Q1*%
X61135340Y-47634146D02*
X61135340Y-46634146D01*
X61706769Y-47634146D02*
X61278198Y-47062718D01*
X61706769Y-46634146D02*
X61135340Y-47205575D01*
X61897245Y-47729385D02*
X62659150Y-47729385D01*
X63563912Y-47729385D02*
X63468674Y-47681766D01*
X63373436Y-47586527D01*
X63230578Y-47443670D01*
X63135340Y-47396051D01*
X63040102Y-47396051D01*
X63087721Y-47634146D02*
X62992483Y-47586527D01*
X62897245Y-47491289D01*
X62849626Y-47300813D01*
X62849626Y-46967480D01*
X62897245Y-46777004D01*
X62992483Y-46681766D01*
X63087721Y-46634146D01*
X63278198Y-46634146D01*
X63373436Y-46681766D01*
X63468674Y-46777004D01*
X63516293Y-46967480D01*
X63516293Y-47300813D01*
X63468674Y-47491289D01*
X63373436Y-47586527D01*
X63278198Y-47634146D01*
X63087721Y-47634146D01*
X64468674Y-47634146D02*
X63897245Y-47634146D01*
X64182959Y-47634146D02*
X64182959Y-46634146D01*
X64087721Y-46777004D01*
X63992483Y-46872242D01*
X63897245Y-46919861D01*
%TO.C,D_1*%
X52005524Y-40302047D02*
X51005524Y-40302047D01*
X51005524Y-40063952D01*
X51053144Y-39921095D01*
X51148382Y-39825857D01*
X51243620Y-39778238D01*
X51434096Y-39730619D01*
X51576953Y-39730619D01*
X51767429Y-39778238D01*
X51862667Y-39825857D01*
X51957905Y-39921095D01*
X52005524Y-40063952D01*
X52005524Y-40302047D01*
X52100763Y-39540142D02*
X52100763Y-38778238D01*
X52005524Y-38016333D02*
X52005524Y-38587761D01*
X52005524Y-38302047D02*
X51005524Y-38302047D01*
X51148382Y-38397285D01*
X51243620Y-38492523D01*
X51291239Y-38587761D01*
%TO.C,D_5*%
X133144329Y-40139053D02*
X132144329Y-40139053D01*
X132144329Y-39900958D01*
X132191949Y-39758101D01*
X132287187Y-39662863D01*
X132382425Y-39615244D01*
X132572901Y-39567625D01*
X132715758Y-39567625D01*
X132906234Y-39615244D01*
X133001472Y-39662863D01*
X133096710Y-39758101D01*
X133144329Y-39900958D01*
X133144329Y-40139053D01*
X133239568Y-39377148D02*
X133239568Y-38615244D01*
X132144329Y-37900958D02*
X132144329Y-38377148D01*
X132620520Y-38424767D01*
X132572901Y-38377148D01*
X132525282Y-38281910D01*
X132525282Y-38043815D01*
X132572901Y-37948577D01*
X132620520Y-37900958D01*
X132715758Y-37853339D01*
X132953853Y-37853339D01*
X133049091Y-37900958D01*
X133096710Y-37948577D01*
X133144329Y-38043815D01*
X133144329Y-38281910D01*
X133096710Y-38377148D01*
X133049091Y-38424767D01*
%TO.C,D_D1*%
X102994168Y-80401625D02*
X101994168Y-80401625D01*
X101994168Y-80163530D01*
X102041788Y-80020673D01*
X102137026Y-79925435D01*
X102232264Y-79877816D01*
X102422740Y-79830197D01*
X102565597Y-79830197D01*
X102756073Y-79877816D01*
X102851311Y-79925435D01*
X102946549Y-80020673D01*
X102994168Y-80163530D01*
X102994168Y-80401625D01*
X103089407Y-79639720D02*
X103089407Y-78877816D01*
X102994168Y-78639720D02*
X101994168Y-78639720D01*
X101994168Y-78401625D01*
X102041788Y-78258768D01*
X102137026Y-78163530D01*
X102232264Y-78115911D01*
X102422740Y-78068292D01*
X102565597Y-78068292D01*
X102756073Y-78115911D01*
X102851311Y-78163530D01*
X102946549Y-78258768D01*
X102994168Y-78401625D01*
X102994168Y-78639720D01*
X102994168Y-77115911D02*
X102994168Y-77687339D01*
X102994168Y-77401625D02*
X101994168Y-77401625D01*
X102137026Y-77496863D01*
X102232264Y-77592101D01*
X102279883Y-77687339D01*
%TO.C,K_W1*%
X81377899Y-47634146D02*
X81377899Y-46634146D01*
X81949328Y-47634146D02*
X81520756Y-47062718D01*
X81949328Y-46634146D02*
X81377899Y-47205575D01*
X82139804Y-47729385D02*
X82901709Y-47729385D01*
X83044566Y-46634146D02*
X83282661Y-47634146D01*
X83473137Y-46919861D01*
X83663614Y-47634146D01*
X83901709Y-46634146D01*
X84806471Y-47634146D02*
X84235042Y-47634146D01*
X84520756Y-47634146D02*
X84520756Y-46634146D01*
X84425518Y-46777004D01*
X84330280Y-46872242D01*
X84235042Y-46919861D01*
%TO.C,K_G1*%
X147066506Y-67955516D02*
X147066506Y-66955516D01*
X147637934Y-67955516D02*
X147209363Y-67384088D01*
X147637934Y-66955516D02*
X147066506Y-67526945D01*
X147828411Y-68050755D02*
X148590315Y-68050755D01*
X149352220Y-67003136D02*
X149256982Y-66955516D01*
X149114125Y-66955516D01*
X148971268Y-67003136D01*
X148876030Y-67098374D01*
X148828411Y-67193612D01*
X148780792Y-67384088D01*
X148780792Y-67526945D01*
X148828411Y-67717421D01*
X148876030Y-67812659D01*
X148971268Y-67907897D01*
X149114125Y-67955516D01*
X149209363Y-67955516D01*
X149352220Y-67907897D01*
X149399839Y-67860278D01*
X149399839Y-67526945D01*
X149209363Y-67526945D01*
X150352220Y-67955516D02*
X149780792Y-67955516D01*
X150066506Y-67955516D02*
X150066506Y-66955516D01*
X149971268Y-67098374D01*
X149876030Y-67193612D01*
X149780792Y-67241231D01*
%TO.C,D_Ctrl1*%
X35013474Y-122713429D02*
X35013474Y-121713429D01*
X35251569Y-121713429D01*
X35394426Y-121761049D01*
X35489665Y-121856287D01*
X35537284Y-121951525D01*
X35584903Y-122142001D01*
X35584903Y-122284858D01*
X35537284Y-122475334D01*
X35489665Y-122570572D01*
X35394426Y-122665810D01*
X35251569Y-122713429D01*
X35013474Y-122713429D01*
X35775379Y-122808668D02*
X36537284Y-122808668D01*
X37346807Y-122618191D02*
X37299188Y-122665810D01*
X37156331Y-122713429D01*
X37061093Y-122713429D01*
X36918236Y-122665810D01*
X36822998Y-122570572D01*
X36775379Y-122475334D01*
X36727760Y-122284858D01*
X36727760Y-122142001D01*
X36775379Y-121951525D01*
X36822998Y-121856287D01*
X36918236Y-121761049D01*
X37061093Y-121713429D01*
X37156331Y-121713429D01*
X37299188Y-121761049D01*
X37346807Y-121808668D01*
X37632522Y-122046763D02*
X38013474Y-122046763D01*
X37775379Y-121713429D02*
X37775379Y-122570572D01*
X37822998Y-122665810D01*
X37918236Y-122713429D01*
X38013474Y-122713429D01*
X38346807Y-122713429D02*
X38346807Y-122046763D01*
X38346807Y-122237239D02*
X38394426Y-122142001D01*
X38442045Y-122094382D01*
X38537284Y-122046763D01*
X38632522Y-122046763D01*
X39108712Y-122713429D02*
X39013474Y-122665810D01*
X38965855Y-122570572D01*
X38965855Y-121713429D01*
X40013474Y-122713429D02*
X39442045Y-122713429D01*
X39727760Y-122713429D02*
X39727760Y-121713429D01*
X39632522Y-121856287D01*
X39537284Y-121951525D01*
X39442045Y-121999144D01*
%TO.C,D_Tab1*%
X32705167Y-60716565D02*
X31705167Y-60716565D01*
X31705167Y-60478470D01*
X31752787Y-60335613D01*
X31848025Y-60240375D01*
X31943263Y-60192756D01*
X32133739Y-60145137D01*
X32276596Y-60145137D01*
X32467072Y-60192756D01*
X32562310Y-60240375D01*
X32657548Y-60335613D01*
X32705167Y-60478470D01*
X32705167Y-60716565D01*
X32800406Y-59954661D02*
X32800406Y-59192756D01*
X31705167Y-59097518D02*
X31705167Y-58526089D01*
X32705167Y-58811804D02*
X31705167Y-58811804D01*
X32705167Y-57764184D02*
X32181358Y-57764184D01*
X32086120Y-57811804D01*
X32038501Y-57907042D01*
X32038501Y-58097518D01*
X32086120Y-58192756D01*
X32657548Y-57764184D02*
X32705167Y-57859423D01*
X32705167Y-58097518D01*
X32657548Y-58192756D01*
X32562310Y-58240375D01*
X32467072Y-58240375D01*
X32371834Y-58192756D01*
X32324215Y-58097518D01*
X32324215Y-57859423D01*
X32276596Y-57764184D01*
X32705167Y-57287994D02*
X31705167Y-57287994D01*
X32086120Y-57287994D02*
X32038501Y-57192756D01*
X32038501Y-57002280D01*
X32086120Y-56907042D01*
X32133739Y-56859423D01*
X32228977Y-56811804D01*
X32514691Y-56811804D01*
X32609929Y-56859423D01*
X32657548Y-56907042D01*
X32705167Y-57002280D01*
X32705167Y-57192756D01*
X32657548Y-57287994D01*
X32705167Y-55859423D02*
X32705167Y-56430851D01*
X32705167Y-56145137D02*
X31705167Y-56145137D01*
X31848025Y-56240375D01*
X31943263Y-56335613D01*
X31990882Y-56430851D01*
%TO.C,D_T1*%
X138748069Y-59732052D02*
X137748069Y-59732052D01*
X137748069Y-59493956D01*
X137795689Y-59351099D01*
X137890927Y-59255861D01*
X137986165Y-59208242D01*
X138176641Y-59160623D01*
X138319498Y-59160623D01*
X138509974Y-59208242D01*
X138605212Y-59255861D01*
X138700450Y-59351099D01*
X138748069Y-59493956D01*
X138748069Y-59732052D01*
X138843308Y-58970147D02*
X138843308Y-58208242D01*
X137748069Y-58113004D02*
X137748069Y-57541575D01*
X138748069Y-57827290D02*
X137748069Y-57827290D01*
X138748069Y-56684432D02*
X138748069Y-57255861D01*
X138748069Y-56970147D02*
X137748069Y-56970147D01*
X137890927Y-57065385D01*
X137986165Y-57160623D01*
X138033784Y-57255861D01*
%TO.C,D_Shift1*%
X43868137Y-102756583D02*
X42868137Y-102756583D01*
X42868137Y-102518488D01*
X42915757Y-102375631D01*
X43010995Y-102280393D01*
X43106233Y-102232774D01*
X43296709Y-102185155D01*
X43439566Y-102185155D01*
X43630042Y-102232774D01*
X43725280Y-102280393D01*
X43820518Y-102375631D01*
X43868137Y-102518488D01*
X43868137Y-102756583D01*
X43963376Y-101994679D02*
X43963376Y-101232774D01*
X43820518Y-101042298D02*
X43868137Y-100899441D01*
X43868137Y-100661345D01*
X43820518Y-100566107D01*
X43772899Y-100518488D01*
X43677661Y-100470869D01*
X43582423Y-100470869D01*
X43487185Y-100518488D01*
X43439566Y-100566107D01*
X43391947Y-100661345D01*
X43344328Y-100851821D01*
X43296709Y-100947060D01*
X43249090Y-100994679D01*
X43153852Y-101042298D01*
X43058614Y-101042298D01*
X42963376Y-100994679D01*
X42915757Y-100947060D01*
X42868137Y-100851821D01*
X42868137Y-100613726D01*
X42915757Y-100470869D01*
X43868137Y-100042298D02*
X42868137Y-100042298D01*
X43868137Y-99613726D02*
X43344328Y-99613726D01*
X43249090Y-99661345D01*
X43201471Y-99756583D01*
X43201471Y-99899441D01*
X43249090Y-99994679D01*
X43296709Y-100042298D01*
X43868137Y-99137536D02*
X43201471Y-99137536D01*
X42868137Y-99137536D02*
X42915757Y-99185155D01*
X42963376Y-99137536D01*
X42915757Y-99089917D01*
X42868137Y-99137536D01*
X42963376Y-99137536D01*
X43201471Y-98804202D02*
X43201471Y-98423250D01*
X43868137Y-98661345D02*
X43010995Y-98661345D01*
X42915757Y-98613726D01*
X42868137Y-98518488D01*
X42868137Y-98423250D01*
X43201471Y-98232774D02*
X43201471Y-97851821D01*
X42868137Y-98089917D02*
X43725280Y-98089917D01*
X43820518Y-98042298D01*
X43868137Y-97947060D01*
X43868137Y-97851821D01*
X43868137Y-96994679D02*
X43868137Y-97566107D01*
X43868137Y-97280393D02*
X42868137Y-97280393D01*
X43010995Y-97375631D01*
X43106233Y-97470869D01*
X43153852Y-97566107D01*
%TO.C,K_Space1*%
X126062072Y-108368429D02*
X126062072Y-107368429D01*
X126633500Y-108368429D02*
X126204929Y-107797001D01*
X126633500Y-107368429D02*
X126062072Y-107939858D01*
X126823976Y-108463668D02*
X127585881Y-108463668D01*
X127776357Y-108320810D02*
X127919215Y-108368429D01*
X128157310Y-108368429D01*
X128252548Y-108320810D01*
X128300167Y-108273191D01*
X128347786Y-108177953D01*
X128347786Y-108082715D01*
X128300167Y-107987477D01*
X128252548Y-107939858D01*
X128157310Y-107892239D01*
X127966834Y-107844620D01*
X127871595Y-107797001D01*
X127823976Y-107749382D01*
X127776357Y-107654144D01*
X127776357Y-107558906D01*
X127823976Y-107463668D01*
X127871595Y-107416049D01*
X127966834Y-107368429D01*
X128204929Y-107368429D01*
X128347786Y-107416049D01*
X128776357Y-107701763D02*
X128776357Y-108701763D01*
X128776357Y-107749382D02*
X128871595Y-107701763D01*
X129062072Y-107701763D01*
X129157310Y-107749382D01*
X129204929Y-107797001D01*
X129252548Y-107892239D01*
X129252548Y-108177953D01*
X129204929Y-108273191D01*
X129157310Y-108320810D01*
X129062072Y-108368429D01*
X128871595Y-108368429D01*
X128776357Y-108320810D01*
X130109691Y-108368429D02*
X130109691Y-107844620D01*
X130062072Y-107749382D01*
X129966834Y-107701763D01*
X129776357Y-107701763D01*
X129681119Y-107749382D01*
X130109691Y-108320810D02*
X130014453Y-108368429D01*
X129776357Y-108368429D01*
X129681119Y-108320810D01*
X129633500Y-108225572D01*
X129633500Y-108130334D01*
X129681119Y-108035096D01*
X129776357Y-107987477D01*
X130014453Y-107987477D01*
X130109691Y-107939858D01*
X131014453Y-108320810D02*
X130919215Y-108368429D01*
X130728738Y-108368429D01*
X130633500Y-108320810D01*
X130585881Y-108273191D01*
X130538262Y-108177953D01*
X130538262Y-107892239D01*
X130585881Y-107797001D01*
X130633500Y-107749382D01*
X130728738Y-107701763D01*
X130919215Y-107701763D01*
X131014453Y-107749382D01*
X131823976Y-108320810D02*
X131728738Y-108368429D01*
X131538262Y-108368429D01*
X131443024Y-108320810D01*
X131395405Y-108225572D01*
X131395405Y-107844620D01*
X131443024Y-107749382D01*
X131538262Y-107701763D01*
X131728738Y-107701763D01*
X131823976Y-107749382D01*
X131871595Y-107844620D01*
X131871595Y-107939858D01*
X131395405Y-108035096D01*
X132823976Y-108368429D02*
X132252548Y-108368429D01*
X132538262Y-108368429D02*
X132538262Y-107368429D01*
X132443024Y-107511287D01*
X132347786Y-107606525D01*
X132252548Y-107654144D01*
%TO.C,D_C1*%
X116709889Y-101884351D02*
X115709889Y-101884351D01*
X115709889Y-101646256D01*
X115757509Y-101503399D01*
X115852747Y-101408161D01*
X115947985Y-101360542D01*
X116138461Y-101312923D01*
X116281318Y-101312923D01*
X116471794Y-101360542D01*
X116567032Y-101408161D01*
X116662270Y-101503399D01*
X116709889Y-101646256D01*
X116709889Y-101884351D01*
X116805128Y-101122446D02*
X116805128Y-100360542D01*
X116614651Y-99551018D02*
X116662270Y-99598637D01*
X116709889Y-99741494D01*
X116709889Y-99836732D01*
X116662270Y-99979589D01*
X116567032Y-100074827D01*
X116471794Y-100122446D01*
X116281318Y-100170065D01*
X116138461Y-100170065D01*
X115947985Y-100122446D01*
X115852747Y-100074827D01*
X115757509Y-99979589D01*
X115709889Y-99836732D01*
X115709889Y-99741494D01*
X115757509Y-99598637D01*
X115805128Y-99551018D01*
X116709889Y-98598637D02*
X116709889Y-99170065D01*
X116709889Y-98884351D02*
X115709889Y-98884351D01*
X115852747Y-98979589D01*
X115947985Y-99074827D01*
X115995604Y-99170065D01*
%TO.C,D_Q1*%
X57720552Y-59795158D02*
X56720552Y-59795158D01*
X56720552Y-59557062D01*
X56768172Y-59414205D01*
X56863410Y-59318967D01*
X56958648Y-59271348D01*
X57149124Y-59223729D01*
X57291981Y-59223729D01*
X57482457Y-59271348D01*
X57577695Y-59318967D01*
X57672933Y-59414205D01*
X57720552Y-59557062D01*
X57720552Y-59795158D01*
X57815791Y-59033253D02*
X57815791Y-58271348D01*
X57815791Y-57366586D02*
X57768172Y-57461824D01*
X57672933Y-57557062D01*
X57530076Y-57699920D01*
X57482457Y-57795158D01*
X57482457Y-57890396D01*
X57720552Y-57842777D02*
X57672933Y-57938015D01*
X57577695Y-58033253D01*
X57387219Y-58080872D01*
X57053886Y-58080872D01*
X56863410Y-58033253D01*
X56768172Y-57938015D01*
X56720552Y-57842777D01*
X56720552Y-57652301D01*
X56768172Y-57557062D01*
X56863410Y-57461824D01*
X57053886Y-57414205D01*
X57387219Y-57414205D01*
X57577695Y-57461824D01*
X57672933Y-57557062D01*
X57720552Y-57652301D01*
X57720552Y-57842777D01*
X57720552Y-56461824D02*
X57720552Y-57033253D01*
X57720552Y-56747539D02*
X56720552Y-56747539D01*
X56863410Y-56842777D01*
X56958648Y-56938015D01*
X57006267Y-57033253D01*
%TO.C,K_T1*%
X142271800Y-47634146D02*
X142271800Y-46634146D01*
X142843228Y-47634146D02*
X142414657Y-47062718D01*
X142843228Y-46634146D02*
X142271800Y-47205575D01*
X143033704Y-47729385D02*
X143795609Y-47729385D01*
X143890847Y-46634146D02*
X144462276Y-46634146D01*
X144176561Y-47634146D02*
X144176561Y-46634146D01*
X145319419Y-47634146D02*
X144747990Y-47634146D01*
X145033704Y-47634146D02*
X145033704Y-46634146D01*
X144938466Y-46777004D01*
X144843228Y-46872242D01*
X144747990Y-46919861D01*
%TO.C,K_R1*%
X121907707Y-47634146D02*
X121907707Y-46634146D01*
X122479135Y-47634146D02*
X122050564Y-47062718D01*
X122479135Y-46634146D02*
X121907707Y-47205575D01*
X122669612Y-47729385D02*
X123431516Y-47729385D01*
X124241040Y-47634146D02*
X123907707Y-47157956D01*
X123669612Y-47634146D02*
X123669612Y-46634146D01*
X124050564Y-46634146D01*
X124145802Y-46681766D01*
X124193421Y-46729385D01*
X124241040Y-46824623D01*
X124241040Y-46967480D01*
X124193421Y-47062718D01*
X124145802Y-47110337D01*
X124050564Y-47157956D01*
X123669612Y-47157956D01*
X125193421Y-47634146D02*
X124621993Y-47634146D01*
X124907707Y-47634146D02*
X124907707Y-46634146D01*
X124812469Y-46777004D01*
X124717231Y-46872242D01*
X124621993Y-46919861D01*
%TO.C,K_Ctrl1*%
X35282974Y-108368429D02*
X35282974Y-107368429D01*
X35854403Y-108368429D02*
X35425831Y-107797001D01*
X35854403Y-107368429D02*
X35282974Y-107939858D01*
X36044879Y-108463668D02*
X36806784Y-108463668D01*
X37616307Y-108273191D02*
X37568688Y-108320810D01*
X37425831Y-108368429D01*
X37330593Y-108368429D01*
X37187736Y-108320810D01*
X37092498Y-108225572D01*
X37044879Y-108130334D01*
X36997260Y-107939858D01*
X36997260Y-107797001D01*
X37044879Y-107606525D01*
X37092498Y-107511287D01*
X37187736Y-107416049D01*
X37330593Y-107368429D01*
X37425831Y-107368429D01*
X37568688Y-107416049D01*
X37616307Y-107463668D01*
X37902022Y-107701763D02*
X38282974Y-107701763D01*
X38044879Y-107368429D02*
X38044879Y-108225572D01*
X38092498Y-108320810D01*
X38187736Y-108368429D01*
X38282974Y-108368429D01*
X38616307Y-108368429D02*
X38616307Y-107701763D01*
X38616307Y-107892239D02*
X38663926Y-107797001D01*
X38711545Y-107749382D01*
X38806784Y-107701763D01*
X38902022Y-107701763D01*
X39378212Y-108368429D02*
X39282974Y-108320810D01*
X39235355Y-108225572D01*
X39235355Y-107368429D01*
X40282974Y-108368429D02*
X39711545Y-108368429D01*
X39997260Y-108368429D02*
X39997260Y-107368429D01*
X39902022Y-107511287D01*
X39806784Y-107606525D01*
X39711545Y-107654144D01*
%TO.C,K_Lin1*%
X60596643Y-108368429D02*
X60596643Y-107368429D01*
X61168071Y-108368429D02*
X60739500Y-107797001D01*
X61168071Y-107368429D02*
X60596643Y-107939858D01*
X61358548Y-108463668D02*
X62120452Y-108463668D01*
X62834738Y-108368429D02*
X62358548Y-108368429D01*
X62358548Y-107368429D01*
X63168071Y-108368429D02*
X63168071Y-107701763D01*
X63168071Y-107368429D02*
X63120452Y-107416049D01*
X63168071Y-107463668D01*
X63215690Y-107416049D01*
X63168071Y-107368429D01*
X63168071Y-107463668D01*
X63644262Y-107701763D02*
X63644262Y-108368429D01*
X63644262Y-107797001D02*
X63691881Y-107749382D01*
X63787119Y-107701763D01*
X63929976Y-107701763D01*
X64025214Y-107749382D01*
X64072833Y-107844620D01*
X64072833Y-108368429D01*
X65072833Y-108368429D02*
X64501405Y-108368429D01*
X64787119Y-108368429D02*
X64787119Y-107368429D01*
X64691881Y-107511287D01*
X64596643Y-107606525D01*
X64501405Y-107654144D01*
%TO.C,K_Caps-Lock1*%
X34880891Y-67958053D02*
X34880891Y-66958053D01*
X35452320Y-67958053D02*
X35023748Y-67386625D01*
X35452320Y-66958053D02*
X34880891Y-67529482D01*
X35642796Y-68053292D02*
X36404701Y-68053292D01*
X37214225Y-67862815D02*
X37166606Y-67910434D01*
X37023748Y-67958053D01*
X36928510Y-67958053D01*
X36785653Y-67910434D01*
X36690415Y-67815196D01*
X36642796Y-67719958D01*
X36595177Y-67529482D01*
X36595177Y-67386625D01*
X36642796Y-67196149D01*
X36690415Y-67100911D01*
X36785653Y-67005673D01*
X36928510Y-66958053D01*
X37023748Y-66958053D01*
X37166606Y-67005673D01*
X37214225Y-67053292D01*
X38071367Y-67958053D02*
X38071367Y-67434244D01*
X38023748Y-67339006D01*
X37928510Y-67291387D01*
X37738034Y-67291387D01*
X37642796Y-67339006D01*
X38071367Y-67910434D02*
X37976129Y-67958053D01*
X37738034Y-67958053D01*
X37642796Y-67910434D01*
X37595177Y-67815196D01*
X37595177Y-67719958D01*
X37642796Y-67624720D01*
X37738034Y-67577101D01*
X37976129Y-67577101D01*
X38071367Y-67529482D01*
X38547558Y-67291387D02*
X38547558Y-68291387D01*
X38547558Y-67339006D02*
X38642796Y-67291387D01*
X38833272Y-67291387D01*
X38928510Y-67339006D01*
X38976129Y-67386625D01*
X39023748Y-67481863D01*
X39023748Y-67767577D01*
X38976129Y-67862815D01*
X38928510Y-67910434D01*
X38833272Y-67958053D01*
X38642796Y-67958053D01*
X38547558Y-67910434D01*
X39404701Y-67910434D02*
X39499939Y-67958053D01*
X39690415Y-67958053D01*
X39785653Y-67910434D01*
X39833272Y-67815196D01*
X39833272Y-67767577D01*
X39785653Y-67672339D01*
X39690415Y-67624720D01*
X39547558Y-67624720D01*
X39452320Y-67577101D01*
X39404701Y-67481863D01*
X39404701Y-67434244D01*
X39452320Y-67339006D01*
X39547558Y-67291387D01*
X39690415Y-67291387D01*
X39785653Y-67339006D01*
X40261844Y-67577101D02*
X41023748Y-67577101D01*
X41976129Y-67958053D02*
X41499939Y-67958053D01*
X41499939Y-66958053D01*
X42452320Y-67958053D02*
X42357082Y-67910434D01*
X42309463Y-67862815D01*
X42261844Y-67767577D01*
X42261844Y-67481863D01*
X42309463Y-67386625D01*
X42357082Y-67339006D01*
X42452320Y-67291387D01*
X42595177Y-67291387D01*
X42690415Y-67339006D01*
X42738034Y-67386625D01*
X42785653Y-67481863D01*
X42785653Y-67767577D01*
X42738034Y-67862815D01*
X42690415Y-67910434D01*
X42595177Y-67958053D01*
X42452320Y-67958053D01*
X43642796Y-67910434D02*
X43547558Y-67958053D01*
X43357082Y-67958053D01*
X43261844Y-67910434D01*
X43214225Y-67862815D01*
X43166606Y-67767577D01*
X43166606Y-67481863D01*
X43214225Y-67386625D01*
X43261844Y-67339006D01*
X43357082Y-67291387D01*
X43547558Y-67291387D01*
X43642796Y-67339006D01*
X44071367Y-67958053D02*
X44071367Y-66958053D01*
X44166606Y-67577101D02*
X44452320Y-67958053D01*
X44452320Y-67291387D02*
X44071367Y-67672339D01*
X45404701Y-67958053D02*
X44833272Y-67958053D01*
X45118987Y-67958053D02*
X45118987Y-66958053D01*
X45023748Y-67100911D01*
X44928510Y-67196149D01*
X44833272Y-67243768D01*
%TO.C,D_X1*%
X92611954Y-99989076D02*
X91611954Y-99989076D01*
X91611954Y-99750980D01*
X91659574Y-99608123D01*
X91754812Y-99512885D01*
X91850050Y-99465266D01*
X92040526Y-99417647D01*
X92183383Y-99417647D01*
X92373859Y-99465266D01*
X92469097Y-99512885D01*
X92564335Y-99608123D01*
X92611954Y-99750980D01*
X92611954Y-99989076D01*
X92707193Y-99227171D02*
X92707193Y-98465266D01*
X91611954Y-98322409D02*
X92611954Y-97655742D01*
X91611954Y-97655742D02*
X92611954Y-98322409D01*
X92611954Y-96750980D02*
X92611954Y-97322409D01*
X92611954Y-97036695D02*
X91611954Y-97036695D01*
X91754812Y-97131933D01*
X91850050Y-97227171D01*
X91897669Y-97322409D01*
%TO.C,K_A1*%
X65926893Y-67958053D02*
X65926893Y-66958053D01*
X66498322Y-67958053D02*
X66069751Y-67386625D01*
X66498322Y-66958053D02*
X65926893Y-67529482D01*
X66688798Y-68053292D02*
X67450703Y-68053292D01*
X67641179Y-67672339D02*
X68117370Y-67672339D01*
X67545941Y-67958053D02*
X67879274Y-66958053D01*
X68212608Y-67958053D01*
X69069751Y-67958053D02*
X68498322Y-67958053D01*
X68784036Y-67958053D02*
X68784036Y-66958053D01*
X68688798Y-67100911D01*
X68593560Y-67196149D01*
X68498322Y-67243768D01*
%TO.C,D_6*%
X153603650Y-40259053D02*
X152603650Y-40259053D01*
X152603650Y-40020958D01*
X152651270Y-39878101D01*
X152746508Y-39782863D01*
X152841746Y-39735244D01*
X153032222Y-39687625D01*
X153175079Y-39687625D01*
X153365555Y-39735244D01*
X153460793Y-39782863D01*
X153556031Y-39878101D01*
X153603650Y-40020958D01*
X153603650Y-40259053D01*
X153698889Y-39497148D02*
X153698889Y-38735244D01*
X152603650Y-38068577D02*
X152603650Y-38259053D01*
X152651270Y-38354291D01*
X152698889Y-38401910D01*
X152841746Y-38497148D01*
X153032222Y-38544767D01*
X153413174Y-38544767D01*
X153508412Y-38497148D01*
X153556031Y-38449529D01*
X153603650Y-38354291D01*
X153603650Y-38163815D01*
X153556031Y-38068577D01*
X153508412Y-38020958D01*
X153413174Y-37973339D01*
X153175079Y-37973339D01*
X153079841Y-38020958D01*
X153032222Y-38068577D01*
X152984603Y-38163815D01*
X152984603Y-38354291D01*
X153032222Y-38449529D01*
X153079841Y-38497148D01*
X153175079Y-38544767D01*
%TO.C,K_Z1*%
X75581576Y-88190684D02*
X75581576Y-87190684D01*
X76153005Y-88190684D02*
X75724434Y-87619256D01*
X76153005Y-87190684D02*
X75581576Y-87762113D01*
X76343481Y-88285923D02*
X77105386Y-88285923D01*
X77248243Y-87190684D02*
X77914910Y-87190684D01*
X77248243Y-88190684D01*
X77914910Y-88190684D01*
X78819672Y-88190684D02*
X78248243Y-88190684D01*
X78533957Y-88190684D02*
X78533957Y-87190684D01*
X78438719Y-87333542D01*
X78343481Y-87428780D01*
X78248243Y-87476399D01*
D11*
%TO.C,D_Alt1*%
X87421816Y-119442049D02*
X87944320Y-119442049D01*
X87421816Y-120912049D02*
X87944320Y-120912049D01*
%TO.C,D_Z1*%
X72560589Y-99484505D02*
X72560589Y-98962001D01*
X74030589Y-99484505D02*
X74030589Y-98962001D01*
%TO.C,K_E1*%
X110335873Y-48070766D02*
X110335873Y-62040766D01*
X96365873Y-48070766D02*
X110335873Y-48070766D01*
X96365873Y-62040766D02*
X96365873Y-48070766D01*
X110335873Y-62040766D02*
X96365873Y-62040766D01*
%TO.C,D_F1*%
X125187084Y-79024264D02*
X125187084Y-78501760D01*
X123717084Y-79024264D02*
X123717084Y-78501760D01*
%TO.C,K_S1*%
X80781682Y-68394673D02*
X94751682Y-68394673D01*
X80781682Y-82364673D02*
X80781682Y-68394673D01*
X94751682Y-68394673D02*
X94751682Y-82364673D01*
X94751682Y-82364673D02*
X80781682Y-82364673D01*
%TO.C,K_1*%
X46395144Y-27813000D02*
X60365144Y-27813000D01*
X60365144Y-27813000D02*
X60365144Y-41783000D01*
X46395144Y-41783000D02*
X46395144Y-27813000D01*
X60365144Y-41783000D02*
X46395144Y-41783000D01*
%TO.C,D_W1*%
X79559988Y-58759143D02*
X79559988Y-58236639D01*
X81029988Y-58759143D02*
X81029988Y-58236639D01*
%TO.C,D_esc1*%
X33570000Y-39566252D02*
X33570000Y-39043748D01*
X32100000Y-39566252D02*
X32100000Y-39043748D01*
%TO.C,D_A1*%
X62999613Y-79369854D02*
X62999613Y-78847350D01*
X64469613Y-79369854D02*
X64469613Y-78847350D01*
%TO.C,D_G1*%
X146002223Y-78997681D02*
X146002223Y-78475177D01*
X144532223Y-78997681D02*
X144532223Y-78475177D01*
%TO.C,D_2*%
X72804000Y-39446252D02*
X72804000Y-38923748D01*
X74274000Y-39446252D02*
X74274000Y-38923748D01*
%TO.C,K_V1*%
X145127576Y-102597304D02*
X131157576Y-102597304D01*
X131157576Y-102597304D02*
X131157576Y-88627304D01*
X131157576Y-88627304D02*
X145127576Y-88627304D01*
X145127576Y-88627304D02*
X145127576Y-102597304D01*
%TO.C,K_Alt1*%
X80753568Y-108805049D02*
X94723568Y-108805049D01*
X80753568Y-122775049D02*
X80753568Y-108805049D01*
X94723568Y-122775049D02*
X80753568Y-122775049D01*
X94723568Y-108805049D02*
X94723568Y-122775049D01*
%TO.C,D_B1*%
X155731262Y-99774332D02*
X155731262Y-99251828D01*
X154261262Y-99774332D02*
X154261262Y-99251828D01*
%TO.C,K_C1*%
X124751509Y-88627304D02*
X124751509Y-102597304D01*
X110781509Y-102597304D02*
X110781509Y-88627304D01*
X124751509Y-102597304D02*
X110781509Y-102597304D01*
X110781509Y-88627304D02*
X124751509Y-88627304D01*
%TO.C,D_V1*%
X133634570Y-99878396D02*
X133634570Y-99355892D01*
X135104570Y-99878396D02*
X135104570Y-99355892D01*
%TO.C,K_3*%
X86995000Y-41783000D02*
X86995000Y-27813000D01*
X100965000Y-27813000D02*
X100965000Y-41783000D01*
X86995000Y-27813000D02*
X100965000Y-27813000D01*
X100965000Y-41783000D02*
X86995000Y-41783000D01*
%TO.C,K_2*%
X66675000Y-27813000D02*
X80645000Y-27813000D01*
X80645000Y-27813000D02*
X80645000Y-41783000D01*
X66675000Y-41783000D02*
X66675000Y-27813000D01*
X80645000Y-41783000D02*
X66675000Y-41783000D01*
%TO.C,K_Tab1*%
X30774165Y-48066483D02*
X44744165Y-48066483D01*
X44744165Y-62036483D02*
X30774165Y-62036483D01*
X44744165Y-48066483D02*
X44744165Y-62036483D01*
X30774165Y-62036483D02*
X30774165Y-48066483D01*
%TO.C,K_6*%
X161895270Y-27770006D02*
X161895270Y-41740006D01*
X147925270Y-27770006D02*
X161895270Y-27770006D01*
X147925270Y-41740006D02*
X147925270Y-27770006D01*
X161895270Y-41740006D02*
X147925270Y-41740006D01*
%TO.C,K_D1*%
X115032860Y-68392136D02*
X115032860Y-82362136D01*
X101062860Y-82362136D02*
X101062860Y-68392136D01*
X115032860Y-82362136D02*
X101062860Y-82362136D01*
X101062860Y-68392136D02*
X115032860Y-68392136D01*
%TO.C,D_Space1*%
X129783496Y-120552106D02*
X129260992Y-120552106D01*
X129783496Y-119082106D02*
X129260992Y-119082106D01*
%TO.C,K_4*%
X107304316Y-27783489D02*
X121274316Y-27783489D01*
X107304316Y-41753489D02*
X107304316Y-27783489D01*
X121274316Y-41753489D02*
X107304316Y-41753489D01*
X121274316Y-27783489D02*
X121274316Y-41753489D01*
%TO.C,K_F1*%
X121401460Y-68392136D02*
X135371460Y-68392136D01*
X135371460Y-68392136D02*
X135371460Y-82362136D01*
X135371460Y-82362136D02*
X121401460Y-82362136D01*
X121401460Y-82362136D02*
X121401460Y-68392136D01*
%TO.C,K_X1*%
X90508932Y-102597304D02*
X90508932Y-88627304D01*
X104478932Y-88627304D02*
X104478932Y-102597304D01*
X104478932Y-102597304D02*
X90508932Y-102597304D01*
X90508932Y-88627304D02*
X104478932Y-88627304D01*
%TO.C,D_R1*%
X120347474Y-58732559D02*
X120347474Y-58210055D01*
X118877474Y-58732559D02*
X118877474Y-58210055D01*
%TO.C,D_S1*%
X83256493Y-79256501D02*
X83256493Y-78733997D01*
X84726493Y-79256501D02*
X84726493Y-78733997D01*
%TO.C,K_Esc1*%
X26035000Y-41783000D02*
X26035000Y-27813000D01*
X40005000Y-41783000D02*
X26035000Y-41783000D01*
X26035000Y-27813000D02*
X40005000Y-27813000D01*
X40005000Y-27813000D02*
X40005000Y-41783000D01*
%TO.C,K_Shift1*%
X37810762Y-88613020D02*
X51780762Y-88613020D01*
X51780762Y-102583020D02*
X37810762Y-102583020D01*
X51780762Y-88613020D02*
X51780762Y-102583020D01*
X37810762Y-102583020D02*
X37810762Y-88613020D01*
%TO.C,K_B1*%
X151413653Y-102597304D02*
X151413653Y-88627304D01*
X165383653Y-88627304D02*
X165383653Y-102597304D01*
X151413653Y-88627304D02*
X165383653Y-88627304D01*
X165383653Y-102597304D02*
X151413653Y-102597304D01*
%TO.C,D_4*%
X115061316Y-39294741D02*
X115061316Y-38772237D01*
X113591316Y-39294741D02*
X113591316Y-38772237D01*
%TO.C,D_Caps1*%
X35538516Y-79362836D02*
X35538516Y-78840332D01*
X37008516Y-79362836D02*
X37008516Y-78840332D01*
%TO.C,D_3*%
X93220000Y-39818252D02*
X93220000Y-39295748D01*
X94690000Y-39818252D02*
X94690000Y-39295748D01*
%TO.C,D_Lin1*%
X62737181Y-121406049D02*
X62214677Y-121406049D01*
X62737181Y-119936049D02*
X62214677Y-119936049D01*
%TO.C,D_E1*%
X100250098Y-58759143D02*
X100250098Y-58236639D01*
X98780098Y-58759143D02*
X98780098Y-58236639D01*
%TO.C,K_5*%
X127483949Y-41740006D02*
X127483949Y-27770006D01*
X127483949Y-27770006D02*
X141453949Y-27770006D01*
X141453949Y-41740006D02*
X127483949Y-41740006D01*
X141453949Y-27770006D02*
X141453949Y-41740006D01*
%TO.C,K_Q1*%
X55793198Y-62040766D02*
X55793198Y-48070766D01*
X69763198Y-48070766D02*
X69763198Y-62040766D01*
X55793198Y-48070766D02*
X69763198Y-48070766D01*
X69763198Y-62040766D02*
X55793198Y-62040766D01*
%TO.C,D_1*%
X53968144Y-39444252D02*
X53968144Y-38921748D01*
X52498144Y-39444252D02*
X52498144Y-38921748D01*
%TO.C,D_5*%
X135106949Y-39281258D02*
X135106949Y-38758754D01*
X133636949Y-39281258D02*
X133636949Y-38758754D01*
%TO.C,D_D1*%
X104956788Y-79043830D02*
X104956788Y-78521326D01*
X103486788Y-79043830D02*
X103486788Y-78521326D01*
%TO.C,K_W1*%
X90053376Y-62040766D02*
X76083376Y-62040766D01*
X90053376Y-48070766D02*
X90053376Y-62040766D01*
X76083376Y-48070766D02*
X90053376Y-48070766D01*
X76083376Y-62040766D02*
X76083376Y-48070766D01*
%TO.C,K_G1*%
X155670554Y-68392136D02*
X155670554Y-82362136D01*
X141700554Y-68392136D02*
X155670554Y-68392136D01*
X155670554Y-82362136D02*
X141700554Y-82362136D01*
X141700554Y-82362136D02*
X141700554Y-68392136D01*
%TO.C,D_Ctrl1*%
X37750917Y-121316049D02*
X37228413Y-121316049D01*
X37750917Y-119846049D02*
X37228413Y-119846049D01*
%TO.C,D_Tab1*%
X33197787Y-58573056D02*
X33197787Y-58050552D01*
X34667787Y-58573056D02*
X34667787Y-58050552D01*
%TO.C,D_T1*%
X139240689Y-58493304D02*
X139240689Y-57970800D01*
X140710689Y-58493304D02*
X140710689Y-57970800D01*
%TO.C,D_Shift1*%
X44360757Y-100160693D02*
X44360757Y-99638189D01*
X45830757Y-100160693D02*
X45830757Y-99638189D01*
%TO.C,K_Space1*%
X122434215Y-108805049D02*
X136404215Y-108805049D01*
X136404215Y-122775049D02*
X122434215Y-122775049D01*
X136404215Y-108805049D02*
X136404215Y-122775049D01*
X122434215Y-122775049D02*
X122434215Y-108805049D01*
%TO.C,D_C1*%
X117202509Y-100526556D02*
X117202509Y-100004052D01*
X118672509Y-100526556D02*
X118672509Y-100004052D01*
%TO.C,D_Q1*%
X59683172Y-58413553D02*
X59683172Y-57891049D01*
X58213172Y-58413553D02*
X58213172Y-57891049D01*
%TO.C,K_T1*%
X150756800Y-62040766D02*
X136786800Y-62040766D01*
X136786800Y-62040766D02*
X136786800Y-48070766D01*
X150756800Y-48070766D02*
X150756800Y-62040766D01*
X136786800Y-48070766D02*
X150756800Y-48070766D01*
%TO.C,K_R1*%
X116541755Y-48070766D02*
X130511755Y-48070766D01*
X130511755Y-62040766D02*
X116541755Y-62040766D01*
X130511755Y-48070766D02*
X130511755Y-62040766D01*
X116541755Y-62040766D02*
X116541755Y-48070766D01*
%TO.C,K_Ctrl1*%
X44744165Y-108805049D02*
X44744165Y-122775049D01*
X30774165Y-122775049D02*
X30774165Y-108805049D01*
X30774165Y-108805049D02*
X44744165Y-108805049D01*
X44744165Y-122775049D02*
X30774165Y-122775049D01*
%TO.C,K_Lin1*%
X69795929Y-108805049D02*
X69795929Y-122775049D01*
X55825929Y-108805049D02*
X69795929Y-108805049D01*
X55825929Y-122775049D02*
X55825929Y-108805049D01*
X69795929Y-122775049D02*
X55825929Y-122775049D01*
%TO.C,K_Caps-Lock1*%
X47103987Y-68394673D02*
X47103987Y-82364673D01*
X33133987Y-82364673D02*
X33133987Y-68394673D01*
X47103987Y-82364673D02*
X33133987Y-82364673D01*
X33133987Y-68394673D02*
X47103987Y-68394673D01*
%TO.C,D_X1*%
X94574574Y-98655090D02*
X94574574Y-98132586D01*
X93104574Y-98655090D02*
X93104574Y-98132586D01*
%TO.C,K_A1*%
X60489513Y-82364673D02*
X60489513Y-68394673D01*
X60489513Y-68394673D02*
X74459513Y-68394673D01*
X74459513Y-82364673D02*
X60489513Y-82364673D01*
X74459513Y-68394673D02*
X74459513Y-82364673D01*
%TO.C,D_6*%
X154096270Y-39401258D02*
X154096270Y-38878754D01*
X155566270Y-39401258D02*
X155566270Y-38878754D01*
%TO.C,K_Z1*%
X84161815Y-88627304D02*
X84161815Y-102597304D01*
X84161815Y-102597304D02*
X70191815Y-102597304D01*
X70191815Y-102597304D02*
X70191815Y-88627304D01*
X70191815Y-88627304D02*
X84161815Y-88627304D01*
%TD*%
M02*
