M48
; DRILL file {KiCad 6.0.2+dfsg-1} date Tue 02 May 2023 06:44:19 PM CEST
; FORMAT={-:-/ absolute / inch / decimal}
; #@! TF.CreationDate,2023-05-02T18:44:19+02:00
; #@! TF.GenerationSoftware,Kicad,Pcbnew,6.0.2+dfsg-1
; #@! TF.FileFunction,Plated,1,2,PTH
FMAT,2
INCH
; #@! TA.AperFunction,Plated,PTH,ViaDrill
T1C0.0157
; #@! TA.AperFunction,Plated,PTH,ComponentDrill
T2C0.0157
; #@! TA.AperFunction,Plated,PTH,ComponentDrill
T3C0.0236
; #@! TA.AperFunction,Plated,PTH,ComponentDrill
T4C0.0591
%
G90
G05
T1
X1.6142Y-4.456
X1.7453Y-4.0973
X2.3221Y-4.7435
X2.3864Y-1.3073
X2.4821Y-1.2895
X2.5156Y-1.311
X2.7089Y-2.0953
X2.7291Y-2.1496
X2.734Y-2.0398
X2.7669Y-2.0687
X3.3046Y-4.6153
X3.3191Y-4.2337
X3.4325Y-4.4329
X3.4407Y-4.6825
X3.5785Y-4.7613
X3.5996Y-4.2461
X3.6389Y-4.3301
X3.64Y-4.2422
X3.6922Y-4.2303
X3.7525Y-4.7649
X3.7878Y-4.7964
X3.7897Y-4.7013
X3.8012Y-4.2253
X3.853Y-4.5393
X3.8592Y-4.4204
X3.8642Y-4.1158
X3.8941Y-4.348
X3.9024Y-4.8042
X3.9191Y-2.435
X3.9412Y-4.1415
X3.9487Y-3.899
X3.9534Y-4.6589
X3.9695Y-4.4917
X3.9733Y-4.435
X3.9745Y-3.1754
X3.9846Y-4.8839
X3.988Y-3.8988
X3.9983Y-4.5783
X3.9995Y-4.3441
X4.0022Y-4.8275
X4.0307Y-4.9173
X4.0339Y-4.445
X4.0629Y-4.8264
X4.0634Y-4.7851
X4.0896Y-4.5037
X4.1026Y-4.7816
X4.1231Y-4.86
X4.1504Y-4.1563
X4.1504Y-4.0301
X4.1734Y-4.4367
X4.184Y-4.0533
X4.2345Y-4.0808
X4.3198Y-4.4775
X4.3292Y-4.0404
X4.3531Y-4.4442
X4.3816Y-4.4103
X4.4857Y-4.2202
X4.4857Y-4.3305
X4.9534Y-4.106
X5.1537Y-4.2363
X5.2278Y-4.2372
X5.261Y-4.1849
X5.4051Y-4.5693
X5.4354Y-4.4125
X5.4372Y-4.4665
X5.4381Y-4.5078
X5.5034Y-4.5078
X5.5052Y-4.4657
X5.506Y-4.4169
X5.6123Y-4.2058
X5.8391Y-3.3376
X5.9776Y-4.5536
X6.0011Y-4.2792
X6.0105Y-4.1008
X6.0268Y-4.9766
X6.0618Y-4.6511
X6.0754Y-4.7784
X6.1034Y-4.0223
T2
X2.3814Y-1.1812
X2.3814Y-1.2344
X2.4149Y-1.1812
X2.4149Y-1.2344
X2.4483Y-1.1812
X2.4483Y-1.2344
X2.4818Y-1.1812
X2.4818Y-1.2344
X2.5153Y-1.1812
X2.5153Y-1.2344
X2.5487Y-1.1812
X2.5487Y-1.2344
X2.5822Y-1.1812
X2.5822Y-1.2344
X2.6157Y-1.1812
X2.6157Y-1.2344
T4
X1.15Y-1.27
X1.3366Y-2.0674
X1.3366Y-4.4587
X1.4Y-1.17
X1.4295Y-2.8677
X1.5866Y-1.9674
X1.5866Y-4.3587
X1.6136Y-3.6637
X1.6795Y-2.7677
X1.8636Y-3.5637
X1.9516Y-1.27
X2.2016Y-1.17
X2.3216Y-2.0675
X2.3229Y-4.4587
X2.5065Y-2.8677
X2.5716Y-1.9675
X2.5729Y-4.3587
X2.75Y-1.27
X2.7565Y-2.7677
X2.8885Y-3.6643
X3.0Y-1.17
X3.1204Y-2.0675
X3.1385Y-3.5643
X3.3043Y-4.4587
X3.3054Y-2.8677
X3.3704Y-1.9675
X3.55Y-1.27
X3.5543Y-4.3587
X3.5554Y-2.7677
X3.6883Y-3.6643
X3.8Y-1.17
X3.9189Y-2.0675
X3.9383Y-3.5643
X4.1039Y-2.8676
X4.1689Y-1.9675
X4.3496Y-1.2688
X4.3539Y-2.7676
X4.4865Y-3.6643
X4.5996Y-1.1688
X4.7133Y-2.0675
X4.7365Y-3.5643
X4.9046Y-2.8676
X4.9452Y-4.4587
X4.9633Y-1.9675
X5.1441Y-1.2683
X5.1546Y-2.7676
X5.1952Y-4.3587
X5.2887Y-3.6643
X5.3941Y-1.1683
X5.5103Y-2.0675
X5.5387Y-3.5643
X5.7038Y-2.8676
X5.7603Y-1.9675
X5.9488Y-1.2683
X5.9538Y-2.7676
X6.0862Y-3.6643
X6.1988Y-1.1683
X6.3362Y-3.5643
T3
G00X2.3283Y-1.047
M15
G01X2.3283Y-1.0785
M16
G05
G00X2.3283Y-1.1663
M15
G01X2.3283Y-1.2253
M16
G05
G00X2.6688Y-1.047
M15
G01X2.6688Y-1.0785
M16
G05
G00X2.6688Y-1.1663
M15
G01X2.6688Y-1.2253
M16
G05
T0
M30
