%TF.GenerationSoftware,KiCad,Pcbnew,6.0.2+dfsg-1*%
%TF.CreationDate,2023-05-02T18:44:15+02:00*%
%TF.ProjectId,keyboard2_ctrl,6b657962-6f61-4726-9432-5f6374726c2e,rev?*%
%TF.SameCoordinates,Original*%
%TF.FileFunction,Paste,Top*%
%TF.FilePolarity,Positive*%
%FSLAX46Y46*%
G04 Gerber Fmt 4.6, Leading zero omitted, Abs format (unit mm)*
G04 Created by KiCad (PCBNEW 6.0.2+dfsg-1) date 2023-05-02 18:44:15*
%MOMM*%
%LPD*%
G01*
G04 APERTURE LIST*
G04 Aperture macros list*
%AMRoundRect*
0 Rectangle with rounded corners*
0 $1 Rounding radius*
0 $2 $3 $4 $5 $6 $7 $8 $9 X,Y pos of 4 corners*
0 Add a 4 corners polygon primitive as box body*
4,1,4,$2,$3,$4,$5,$6,$7,$8,$9,$2,$3,0*
0 Add four circle primitives for the rounded corners*
1,1,$1+$1,$2,$3*
1,1,$1+$1,$4,$5*
1,1,$1+$1,$6,$7*
1,1,$1+$1,$8,$9*
0 Add four rect primitives between the rounded corners*
20,1,$1+$1,$2,$3,$4,$5,0*
20,1,$1+$1,$4,$5,$6,$7,0*
20,1,$1+$1,$6,$7,$8,$9,0*
20,1,$1+$1,$8,$9,$2,$3,0*%
G04 Aperture macros list end*
%ADD10RoundRect,0.250000X-0.250000X-0.475000X0.250000X-0.475000X0.250000X0.475000X-0.250000X0.475000X0*%
%ADD11RoundRect,0.250000X0.475000X-0.250000X0.475000X0.250000X-0.475000X0.250000X-0.475000X-0.250000X0*%
%ADD12RoundRect,0.250000X0.250000X0.475000X-0.250000X0.475000X-0.250000X-0.475000X0.250000X-0.475000X0*%
G04 APERTURE END LIST*
D10*
%TO.C,D_Alt1*%
X86733068Y-120177049D03*
X88633068Y-120177049D03*
%TD*%
D11*
%TO.C,D_Z1*%
X73295589Y-100173253D03*
X73295589Y-98273253D03*
%TD*%
%TO.C,D_F1*%
X124452084Y-79713012D03*
X124452084Y-77813012D03*
%TD*%
%TO.C,D_W1*%
X80294988Y-59447891D03*
X80294988Y-57547891D03*
%TD*%
%TO.C,D_esc1*%
X32835000Y-40255000D03*
X32835000Y-38355000D03*
%TD*%
%TO.C,D_A1*%
X63734613Y-80058602D03*
X63734613Y-78158602D03*
%TD*%
%TO.C,D_G1*%
X145267223Y-79686429D03*
X145267223Y-77786429D03*
%TD*%
%TO.C,D_2*%
X73539000Y-40135000D03*
X73539000Y-38235000D03*
%TD*%
%TO.C,D_B1*%
X154996262Y-100463080D03*
X154996262Y-98563080D03*
%TD*%
%TO.C,D_V1*%
X134369570Y-100567144D03*
X134369570Y-98667144D03*
%TD*%
D12*
%TO.C,D_Space1*%
X130472244Y-119817106D03*
X128572244Y-119817106D03*
%TD*%
D11*
%TO.C,D_R1*%
X119612474Y-59421307D03*
X119612474Y-57521307D03*
%TD*%
%TO.C,D_S1*%
X83991493Y-79945249D03*
X83991493Y-78045249D03*
%TD*%
%TO.C,D_4*%
X114326316Y-39983489D03*
X114326316Y-38083489D03*
%TD*%
%TO.C,D_Caps1*%
X36273516Y-80051584D03*
X36273516Y-78151584D03*
%TD*%
%TO.C,D_3*%
X93955000Y-40507000D03*
X93955000Y-38607000D03*
%TD*%
D12*
%TO.C,D_Lin1*%
X63425929Y-120671049D03*
X61525929Y-120671049D03*
%TD*%
D11*
%TO.C,D_E1*%
X99515098Y-59447891D03*
X99515098Y-57547891D03*
%TD*%
%TO.C,D_1*%
X53233144Y-40133000D03*
X53233144Y-38233000D03*
%TD*%
%TO.C,D_5*%
X134371949Y-39970006D03*
X134371949Y-38070006D03*
%TD*%
%TO.C,D_D1*%
X104221788Y-79732578D03*
X104221788Y-77832578D03*
%TD*%
D12*
%TO.C,D_Ctrl1*%
X38439665Y-120581049D03*
X36539665Y-120581049D03*
%TD*%
D11*
%TO.C,D_Tab1*%
X33932787Y-59261804D03*
X33932787Y-57361804D03*
%TD*%
%TO.C,D_T1*%
X139975689Y-59182052D03*
X139975689Y-57282052D03*
%TD*%
%TO.C,D_Shift1*%
X45095757Y-100849441D03*
X45095757Y-98949441D03*
%TD*%
%TO.C,D_C1*%
X117937509Y-101215304D03*
X117937509Y-99315304D03*
%TD*%
%TO.C,D_Q1*%
X58948172Y-59102301D03*
X58948172Y-57202301D03*
%TD*%
%TO.C,D_X1*%
X93839574Y-99343838D03*
X93839574Y-97443838D03*
%TD*%
%TO.C,D_6*%
X154831270Y-40090006D03*
X154831270Y-38190006D03*
%TD*%
M02*
